<svg xmlns="http://www.w3.org/2000/svg" width="98" height="97.998" viewBox="0 0 98 97.998">
  <g id="Group_1228896" data-name="Group 1228896" transform="translate(-803.781 -1972.016)">
    <g id="Group_1204143" data-name="Group 1204143" transform="translate(-67.331 1694.852)">
      <g id="Group_1188789" data-name="Group 1188789" transform="translate(871.113 277.164)">
        <path id="Path_1243039" data-name="Path 1243039" d="M41.05,0h0a41.05,41.05,0,0,1,0,82.1h0a41.05,41.05,0,0,1,0-82.1Z" transform="translate(7.951 7.949)" fill="#fdcae3"/>
        <rect id="Rectangle_400907" data-name="Rectangle 400907" width="88.438" height="88.437" rx="44.218" transform="translate(4.782 4.781)" fill="none"/>
        <g id="Group_1098742" data-name="Group 1098742" transform="translate(0)">
          <g id="Rectangle_400898" data-name="Rectangle 400898" transform="translate(0)" fill="none" stroke="#fff" stroke-width="2" opacity="0.859">
            <rect width="98" height="97.999" rx="48.999" stroke="none"/>
            <rect x="1" y="1" width="96" height="95.999" rx="47.999" fill="none"/>
          </g>
          <g id="Rectangle_400907-2" data-name="Rectangle 400907" transform="translate(0)" fill="none" stroke="#0f1f33" stroke-linecap="round" stroke-width="2">
            <rect width="98" height="97.999" rx="48.999" stroke="none"/>
            <rect x="1" y="1" width="96" height="95.999" rx="47.999" fill="none"/>
          </g>
        </g>
      </g>
    </g>
    <g id="Group_1229124" data-name="Group 1229124" transform="translate(-973.556 10508.664)">
      <path id="Path_1532336" data-name="Path 1532336" d="M158.992,56.9a2.4,2.4,0,0,1,.707,1.8,2.488,2.488,0,0,1-2.525,2.5H139.7a2.92,2.92,0,0,1-1.818-.7,2.256,2.256,0,0,1-.707-1.8,2.488,2.488,0,0,1,2.525-2.5h.2a4.718,4.718,0,0,0,4.747-4.7v-.3h7.574v.3a4.719,4.719,0,0,0,4.747,4.7h.3a2.649,2.649,0,0,1,1.717.7" transform="translate(1678 -8521)" fill="#33383f" stroke="#000" stroke-linecap="round" stroke-linejoin="round" stroke-width="2" stroke-dasharray="80 5"/>
      <path id="Path_1532337" data-name="Path 1532337" d="M119.3,43.7v3.6a3.924,3.924,0,0,0,3.939,3.9h50.193a3.925,3.925,0,0,0,3.939-3.9V43.7Z" transform="translate(1678 -8521)" fill="#3d4459" stroke="#000" stroke-linecap="round" stroke-linejoin="round" stroke-width="2" stroke-dasharray="80 5"/>
      <path id="Path_1532338" data-name="Path 1532338" d="M173.535,11.7h-50.3a3.924,3.924,0,0,0-3.938,3.9V43.7h58.071V15.6a3.839,3.839,0,0,0-3.838-3.9" transform="translate(1678 -8521)" fill="#6e7896" stroke="#000" stroke-linecap="round" stroke-linejoin="round" stroke-width="2" stroke-dasharray="80 5"/>
      <path id="Path_1532339" data-name="Path 1532339" d="M123.139,38V15.5h12.625v20h25.248v-20h12.624v25h-50.5Z" transform="translate(1678 -8521)" fill="#00d2d2" stroke="#000" stroke-linecap="round" stroke-linejoin="round" stroke-width="1" stroke-dasharray="80 5"/>
      <path id="Path_1532340" data-name="Path 1532340" d="M135.764,5.5v30h25.248V5.5Z" transform="translate(1678 -8521)" fill="#c6d4df" stroke="#000" stroke-linecap="round" stroke-linejoin="round" stroke-width="1" stroke-dasharray="80 5"/>
      <path id="Path_1532341" data-name="Path 1532341" d="M152.933,12a1.676,1.676,0,0,1,1.515,1.8c-.1,1.6-1.818,2.4-3.636,3.9a26.524,26.524,0,0,1-2.525-2.9,2.259,2.259,0,0,1-.4-1.6,1.682,1.682,0,0,1,1.818-1.5,1.163,1.163,0,0,1,1.111.6,4.337,4.337,0,0,1,.4.7,1.638,1.638,0,0,1,1.717-1" transform="translate(1678 -8521)" fill="#e64178" stroke="#000" stroke-linecap="round" stroke-linejoin="round" stroke-width="1" stroke-dasharray="80 5"/>
      <path id="Path_1532342" data-name="Path 1532342" d="M149.2,8.8a2.068,2.068,0,0,1,1.918,2.3,2.127,2.127,0,0,1-.4,1.2,1.273,1.273,0,0,0-1.111-.6,1.682,1.682,0,0,0-1.818,1.5,2.911,2.911,0,0,0,.4,1.6,22.157,22.157,0,0,0-1.818,1.4c-1.919-2.3-3.939-3.6-3.838-5.7a2.075,2.075,0,0,1,2.323-1.9c1.111.1,1.515.7,2.02,1.7.707-1.1,1.313-1.6,2.323-1.5" transform="translate(1678 -8521)" fill="#ff6e91" stroke="#000" stroke-linecap="round" stroke-linejoin="round" stroke-width="1" stroke-dasharray="80 5"/>
      <path id="Path_1532343" data-name="Path 1532343" d="M173.535,46.7a1.033,1.033,0,0,0-1.212.6,1.018,1.018,0,0,0,.606,1.2,1.032,1.032,0,0,0,1.211-.6.928.928,0,0,0-.6-1.2" transform="translate(1678 -8521)" fill="#242935"/>
      <path id="Path_1532344" data-name="Path 1532344" d="M170.4,46.7a1.033,1.033,0,0,0-1.212.6,1.017,1.017,0,0,0,.6,1.2,1.033,1.033,0,0,0,1.212-.6.928.928,0,0,0-.6-1.2" transform="translate(1678 -8521)" fill="#242935"/>
      <path id="Path_1532345" data-name="Path 1532345" d="M167.273,46.7a1.033,1.033,0,0,0-1.212.6,1.018,1.018,0,0,0,.606,1.2,1.031,1.031,0,0,0,1.211-.6.928.928,0,0,0-.605-1.2" transform="translate(1678 -8521)" fill="#242935"/>
      <path id="Path_1532346" data-name="Path 1532346" d="M149.6,58.1h-2.525a.6.6,0,1,1,0-1.2H149.6a.648.648,0,0,1,.606.6c.1.3-.2.6-.606.6" transform="translate(1678 -8521)" fill="#242935"/>
      <path id="Path_1532347" data-name="Path 1532347" d="M138.894,20.5h8.888a.6.6,0,1,0,0-1.2h-8.888a.6.6,0,1,0,0,1.2" transform="translate(1678 -8521)" fill="#aab5bc"/>
      <path id="Path_1532348" data-name="Path 1532348" d="M138.894,22.3h18.987a.6.6,0,1,0,0-1.2H138.894a.6.6,0,1,0,0,1.2" transform="translate(1678 -8521)" fill="#aab5bc"/>
      <path id="Path_1532349" data-name="Path 1532349" d="M138.894,25.5h8.888a.6.6,0,1,0,0-1.2h-8.888a.6.6,0,1,0,0,1.2" transform="translate(1678 -8521)" fill="#aab5bc"/>
      <path id="Path_1532350" data-name="Path 1532350" d="M157.881,26.1H138.894a.6.6,0,1,0,0,1.2h18.987a.6.6,0,1,0,0-1.2" transform="translate(1678 -8521)" fill="#aab5bc"/>
      <path id="Path_1532351" data-name="Path 1532351" d="M138.894,30.5h8.888a.6.6,0,1,0,0-1.2h-8.888a.6.6,0,1,0,0,1.2" transform="translate(1678 -8521)" fill="#aab5bc"/>
      <path id="Path_1532352" data-name="Path 1532352" d="M157.881,31.1H138.894a.6.6,0,1,0,0,1.2h18.987a.6.6,0,1,0,0-1.2" transform="translate(1678 -8521)" fill="#aab5bc"/>
      <path id="Path_1532353" data-name="Path 1532353" d="M129.4,32.3h-6.363v1.3H129.4a.649.649,0,0,0,.606-.6.663.663,0,0,0-.606-.7" transform="translate(1678.101 -8521)" fill="#00acc1" stroke="#000" stroke-linecap="round" stroke-linejoin="round" stroke-width="1" stroke-dasharray="80 5"/>
      <path id="Path_1532354" data-name="Path 1532354" d="M129.4,29.8h-6.363v1.3H129.4a.649.649,0,0,0,.606-.6.565.565,0,0,0-.606-.7" transform="translate(1678.101 -8521)" fill="#00acc1" stroke="#000" stroke-linecap="round" stroke-linejoin="round" stroke-width="1" stroke-dasharray="80 5"/>
      <path id="Path_1532355" data-name="Path 1532355" d="M129.4,37.3h-6.363v1.3H129.4a.649.649,0,0,0,.606-.6.663.663,0,0,0-.606-.7" transform="translate(1678.101 -8521)" fill="#00acc1" stroke="#000" stroke-linecap="round" stroke-linejoin="round" stroke-width="1" stroke-dasharray="80 5"/>
      <path id="Path_1532356" data-name="Path 1532356" d="M129.4,34.8h-6.363v1.3H129.4a.649.649,0,0,0,.606-.6.663.663,0,0,0-.606-.7" transform="translate(1678.101 -8521)" fill="#00acc1" stroke="#000" stroke-linecap="round" stroke-linejoin="round" stroke-width="1" stroke-dasharray="80 5"/>
      <path id="Path_1532357" data-name="Path 1532357" d="M166.667,35.5a.65.65,0,0,0,.606.6h6.363V34.8h-6.363a.673.673,0,0,0-.606.7" transform="translate(1678 -8521)" fill="#00acc1" stroke="#000" stroke-linecap="round" stroke-linejoin="round" stroke-width="1" stroke-dasharray="80 5"/>
      <path id="Path_1532358" data-name="Path 1532358" d="M166.667,38a.65.65,0,0,0,.606.6h6.363V37.3h-6.363a.673.673,0,0,0-.606.7" transform="translate(1678 -8521)" fill="#00acc1" stroke="#000" stroke-linecap="round" stroke-linejoin="round" stroke-width="1" stroke-dasharray="80 5"/>
      <path id="Path_1532359" data-name="Path 1532359" d="M167.273,29.8a.6.6,0,1,0,0,1.2h6.362V29.7h-6.362Z" transform="translate(1678 -8521)" fill="#00acc1" stroke="#000" stroke-linecap="round" stroke-linejoin="round" stroke-width="1" stroke-dasharray="80 5"/>
      <path id="Path_1532360" data-name="Path 1532360" d="M166.667,33a.65.65,0,0,0,.606.6h6.363V32.3h-6.363a.673.673,0,0,0-.606.7" transform="translate(1678 -8521)" fill="#00acc1" stroke="#000" stroke-linecap="round" stroke-linejoin="round" stroke-width="1" stroke-dasharray="80 5"/>
    </g>
  </g>
</svg>
