<svg xmlns="http://www.w3.org/2000/svg" width="98" height="97.999" viewBox="0 0 98 97.999">
  <g id="Group_1228899" data-name="Group 1228899" transform="translate(-803.781 -1972.016)">
    <g id="Group_1204143" data-name="Group 1204143" transform="translate(-67.331 1694.852)">
      <g id="Group_1188789" data-name="Group 1188789" transform="translate(871.113 277.164)">
        <path id="Path_1243039" data-name="Path 1243039" d="M41.05,0h0a41.05,41.05,0,0,1,0,82.1h0a41.05,41.05,0,0,1,0-82.1Z" transform="translate(7.951 7.949)" fill="#ffa724"/>
        <rect id="Rectangle_400907" data-name="Rectangle 400907" width="88.438" height="88.437" rx="44.218" transform="translate(4.782 4.781)" fill="none"/>
        <g id="Group_1098742" data-name="Group 1098742" transform="translate(0)">
          <g id="Rectangle_400898" data-name="Rectangle 400898" transform="translate(0)" fill="none" stroke="#fff" stroke-width="2" opacity="0.859">
            <rect width="98" height="97.999" rx="48.999" stroke="none"/>
            <rect x="1" y="1" width="96" height="95.999" rx="47.999" fill="none"/>
          </g>
          <g id="Rectangle_400907-2" data-name="Rectangle 400907" transform="translate(0)" fill="none" stroke="#0f1f33" stroke-linecap="round" stroke-width="2">
            <rect width="98" height="97.999" rx="48.999" stroke="none"/>
            <rect x="1" y="1" width="96" height="95.999" rx="47.999" fill="none"/>
          </g>
        </g>
      </g>
    </g>
    <g id="Group_1228926" data-name="Group 1228926" transform="translate(1754.958 10409.514)">
      <path id="Path_1491424" data-name="Path 1491424" d="M51.275,16.047H6.762a4.264,4.264,0,0,0-4.239,4.239V49.658A4.264,4.264,0,0,0,6.762,53.9H51.275a4.264,4.264,0,0,0,4.239-4.239V20.286a4.138,4.138,0,0,0-4.239-4.239" transform="translate(-931.245 -8421.251)" fill="#555a66" stroke="#000" stroke-linecap="round" stroke-linejoin="round" stroke-width="2" stroke-dasharray="80 5"/>
      <path id="Path_1491425" data-name="Path 1491425" d="M51.174,21.094V48.851H6.965V21.094Z" transform="translate(-931.245 -8421.251)" fill="#f2f2f2" stroke="#000" stroke-linecap="round" stroke-linejoin="round" stroke-width="2" stroke-dasharray="80 5"/>
      <path id="Path_1491426" data-name="Path 1491426" d="M43.907,16.047a15.256,15.256,0,0,0-3.836-7.369,14.885,14.885,0,0,0-21.6,0,15.246,15.246,0,0,0-3.835,7.369,13.622,13.622,0,0,0-.3,2.927,14.893,14.893,0,0,0,.2,2.119,14.548,14.548,0,0,0,3.936,8.075,14.882,14.882,0,0,0,21.6,0,14.231,14.231,0,0,0,3.937-8.075,15.19,15.19,0,0,0,.2-2.119,13.75,13.75,0,0,0-.3-2.927" transform="translate(-931.245 -8421.251)" fill="#4a7aff" stroke="#000" stroke-linecap="round" stroke-linejoin="round" stroke-width="2" stroke-dasharray="80 5"/>
      <path id="Path_1491427" data-name="Path 1491427" d="M29.372,33.811V24.626a14.523,14.523,0,0,1,7.47,2.019c-1.515,4.34-4.341,7.166-7.47,7.166" transform="translate(-931.245 -8421.251)" fill="#2c62c4" stroke="#000" stroke-linecap="round" stroke-linejoin="round" stroke-width="2" stroke-dasharray="80 5"/>
      <path id="Path_1491428" data-name="Path 1491428" d="M21.8,26.645c1.515,4.34,4.341,7.166,7.47,7.166a15.011,15.011,0,0,1-10.8-4.643,24.25,24.25,0,0,1,3.33-2.523" transform="translate(-931.245 -8421.251)" fill="#2c62c4" stroke="#000" stroke-linecap="round" stroke-linejoin="round" stroke-width="2" stroke-dasharray="80 5"/>
      <path id="Path_1491429" data-name="Path 1491429" d="M38.053,18.974H44.21a15.068,15.068,0,0,1-.2,2.12,14.547,14.547,0,0,1-3.937,8.074,16.018,16.018,0,0,0-3.229-2.624,21.643,21.643,0,0,0,1.211-7.57" transform="translate(-931.245 -8421.251)" fill="#2c62c4" stroke="#000" stroke-linecap="round" stroke-linejoin="round" stroke-width="2" stroke-dasharray="80 5"/>
      <path id="Path_1491430" data-name="Path 1491430" d="M29.372,18.974v5.652A14.532,14.532,0,0,0,21.9,26.645a22.668,22.668,0,0,1-1.211-7.671Z" transform="translate(-931.245 -8421.251)" fill="#2c62c4" stroke="#000" stroke-linecap="round" stroke-linejoin="round" stroke-width="2" stroke-dasharray="80 5"/>
      <path id="Path_1491431" data-name="Path 1491431" d="M36.842,11.2c-1.515-4.34-4.341-7.166-7.47-7.166a15.013,15.013,0,0,1,10.8,4.643,16.074,16.074,0,0,1-3.33,2.523" transform="translate(-931.245 -8421.251)" fill="#2c62c4" stroke="#000" stroke-linecap="round" stroke-linejoin="round" stroke-width="2" stroke-dasharray="80 5"/>
      <path id="Path_1491432" data-name="Path 1491432" d="M38.053,18.974H29.272V13.322A14.535,14.535,0,0,0,36.741,11.3a20.38,20.38,0,0,1,1.312,7.671" transform="translate(-931.245 -8421.251)" fill="#2c62c4" stroke="#000" stroke-linecap="round" stroke-linejoin="round" stroke-width="2" stroke-dasharray="80 5"/>
      <path id="Path_1491433" data-name="Path 1491433" d="M21.8,11.2a22.672,22.672,0,0,0-1.211,7.671H14.434a14.4,14.4,0,0,1,.3-2.927,15.257,15.257,0,0,1,3.836-7.368A11.53,11.53,0,0,0,21.8,11.2" transform="translate(-931.245 -8421.251)" fill="#2c62c4" stroke="#000" stroke-linecap="round" stroke-linejoin="round" stroke-width="2" stroke-dasharray="80 5"/>
      <path id="Path_1491434" data-name="Path 1491434" d="M29.372,4.036v9.185A14.522,14.522,0,0,1,21.9,11.2c1.514-4.239,4.24-7.166,7.469-7.166" transform="translate(-931.245 -8421.251)" fill="#2c62c4" stroke="#000" stroke-linecap="round" stroke-linejoin="round" stroke-width="2" stroke-dasharray="80 5"/>
      <path id="Path_1491435" data-name="Path 1491435" d="M29.372,33.811c3.129,0,5.955-2.927,7.47-7.166a13.642,13.642,0,0,1,3.229,2.624,14.7,14.7,0,0,1-10.7,4.542" transform="translate(-931.245 -8421.251)" fill="#4a7aff" stroke="#000" stroke-linecap="round" stroke-linejoin="round" stroke-width="2" stroke-dasharray="80 5"/>
      <path id="Path_1491436" data-name="Path 1491436" d="M29.372,24.626v9.185c-3.229,0-5.955-2.927-7.469-7.166a14.266,14.266,0,0,1,7.469-2.019" transform="translate(-931.245 -8421.251)" fill="#4a7aff" stroke="#000" stroke-linecap="round" stroke-linejoin="round" stroke-width="2" stroke-dasharray="80 5"/>
      <path id="Path_1491437" data-name="Path 1491437" d="M29.372,18.974h8.781a25.449,25.449,0,0,1-1.211,7.671,14.529,14.529,0,0,0-7.468-2.019Z" transform="translate(-931.245 -8421.251)" fill="#4a7aff" stroke="#000" stroke-linecap="round" stroke-linejoin="round" stroke-width="2" stroke-dasharray="80 5"/>
      <path id="Path_1491438" data-name="Path 1491438" d="M20.591,18.974A25.48,25.48,0,0,0,21.8,26.645a13.288,13.288,0,0,0-3.23,2.523,14.217,14.217,0,0,1-3.936-8.074,15.068,15.068,0,0,1-.2-2.12Z" transform="translate(-931.245 -8421.251)" fill="#4a7aff" stroke="#000" stroke-linecap="round" stroke-linejoin="round" stroke-width="2" stroke-dasharray="80 5"/>
      <path id="Path_1491439" data-name="Path 1491439" d="M44.21,18.974H38.053A25.486,25.486,0,0,0,36.842,11.3a13.642,13.642,0,0,0,3.229-2.624,15.257,15.257,0,0,1,3.836,7.368,13.757,13.757,0,0,1,.3,2.927" transform="translate(-931.245 -8421.251)" fill="#4a7aff" stroke="#000" stroke-linecap="round" stroke-linejoin="round" stroke-width="2" stroke-dasharray="80 5"/>
      <path id="Path_1491440" data-name="Path 1491440" d="M29.372,13.322v5.652H20.591A25.486,25.486,0,0,1,21.8,11.3a15.964,15.964,0,0,0,7.57,2.019" transform="translate(-931.245 -8421.251)" fill="#4a7aff" stroke="#000" stroke-linecap="round" stroke-linejoin="round" stroke-width="2" stroke-dasharray="80 5"/>
      <path id="Path_1491441" data-name="Path 1491441" d="M29.372,4.036c3.129,0,5.955,2.927,7.47,7.166a14.523,14.523,0,0,1-7.47,2.019Z" transform="translate(-931.245 -8421.251)" fill="#4a7aff" stroke="#000" stroke-linecap="round" stroke-linejoin="round" stroke-width="2" stroke-dasharray="80 5"/>
      <path id="Path_1491442" data-name="Path 1491442" d="M29.372,4.036c-3.229,0-5.955,2.927-7.469,7.166a13.643,13.643,0,0,1-3.23-2.624,14.921,14.921,0,0,1,10.7-4.542" transform="translate(-931.245 -8421.251)" fill="#4a7aff" stroke="#000" stroke-linecap="round" stroke-linejoin="round" stroke-width="2" stroke-dasharray="80 5"/>
      <path id="Path_1491443" data-name="Path 1491443" d="M47.439,38.152a.521.521,0,0,1-.4-.2L41.383,32.3a.642.642,0,1,1,.908-.909l5.653,5.653a.752.752,0,0,1,0,.908.556.556,0,0,1-.505.2" transform="translate(-931.245 -8421.251)" fill="#07cc66" stroke="#000" stroke-linecap="round" stroke-linejoin="round" stroke-width="2" stroke-dasharray="80 5"/>
      <path id="Path_1491444" data-name="Path 1491444" d="M29.372,45.722a.651.651,0,0,1-.6-.606V37.041a.6.6,0,0,1,1.21,0v8.075a.651.651,0,0,1-.6.606" transform="translate(-931.245 -8421.251)" fill="#07cc66" stroke="#000" stroke-linecap="round" stroke-linejoin="round" stroke-width="2" stroke-dasharray="80 5"/>
      <path id="Path_1491445" data-name="Path 1491445" d="M11.2,38.152a.521.521,0,0,1-.4-.2.752.752,0,0,1,0-.908l5.651-5.653a.643.643,0,0,1,.909.909L11.709,37.95a.654.654,0,0,1-.5.2" transform="translate(-931.245 -8421.251)" fill="#07cc66" stroke="#000" stroke-linecap="round" stroke-linejoin="round" stroke-width="2" stroke-dasharray="80 5"/>
      <path id="Path_1491446" data-name="Path 1491446" d="M48.045,30.885a.372.372,0,0,1-.3-.1L44.21,28.765a.658.658,0,1,1,.706-1.11l3.533,2.019a.655.655,0,0,1,.2.908.869.869,0,0,1-.605.3" transform="translate(-931.245 -8421.251)" fill="#07cc66" stroke="#000" stroke-linecap="round" stroke-linejoin="round" stroke-width="2" stroke-dasharray="80 5"/>
      <path id="Path_1491447" data-name="Path 1491447" d="M40.071,38.757a.556.556,0,0,1-.5-.3l-2.018-3.532a.658.658,0,1,1,1.11-.707l2.018,3.533a.655.655,0,0,1-.2.908.6.6,0,0,1-.4.1" transform="translate(-931.245 -8421.251)" fill="#07cc66" stroke="#000" stroke-linecap="round" stroke-linejoin="round" stroke-width="2" stroke-dasharray="80 5"/>
      <path id="Path_1491448" data-name="Path 1491448" d="M34.924,40.978a.64.64,0,0,1-.606-.505l-1.009-3.835a.638.638,0,0,1,1.211-.4l1.009,3.835a.686.686,0,0,1-.4.808.353.353,0,0,0-.2.1" transform="translate(-931.245 -8421.251)" fill="#07cc66" stroke="#000" stroke-linecap="round" stroke-linejoin="round" stroke-width="2" stroke-dasharray="80 5"/>
      <path id="Path_1491449" data-name="Path 1491449" d="M23.72,40.978h-.2a.638.638,0,0,1-.4-.808l1.009-3.835a.638.638,0,1,1,1.211.4l-1.01,3.835a.679.679,0,0,1-.605.4" transform="translate(-931.245 -8421.251)" fill="#07cc66" stroke="#000" stroke-linecap="round" stroke-linejoin="round" stroke-width="2" stroke-dasharray="80 5"/>
      <path id="Path_1491450" data-name="Path 1491450" d="M18.472,38.757a.37.37,0,0,1-.3-.1.658.658,0,0,1-.2-.908l2.019-3.533a.658.658,0,1,1,1.11.707l-2.019,3.532a.609.609,0,0,1-.6.3" transform="translate(-931.245 -8421.251)" fill="#07cc66" stroke="#000" stroke-linecap="round" stroke-linejoin="round" stroke-width="2" stroke-dasharray="80 5"/>
      <path id="Path_1491451" data-name="Path 1491451" d="M10.6,30.885a.555.555,0,0,1-.505-.3.657.657,0,0,1,.2-.908l3.532-2.019a.658.658,0,1,1,.707,1.11L11,30.784c-.2,0-.3.1-.4.1" transform="translate(-931.245 -8421.251)" fill="#07cc66" stroke="#000" stroke-linecap="round" stroke-linejoin="round" stroke-width="2" stroke-dasharray="80 5"/>
      <path id="Path_1491452" data-name="Path 1491452" d="M54.3,53.8a3.9,3.9,0,0,1,2.726,1.11,3.73,3.73,0,0,1,1.11,2.725A3.834,3.834,0,0,1,54.3,61.468H3.836a3.9,3.9,0,0,1-2.725-1.11A3.731,3.731,0,0,1,0,57.632,3.834,3.834,0,0,1,3.836,53.8Z" transform="translate(-931.245 -8421.251)" fill="#333940" stroke="#000" stroke-linecap="round" stroke-linejoin="round" stroke-width="2" stroke-dasharray="80 5"/>
      <rect id="Rectangle_425586" data-name="Rectangle 425586" width="6.964" height="2.523" transform="translate(-887.641 -8367.454)" fill="#22282d" stroke="#000" stroke-linecap="round" stroke-linejoin="round" stroke-width="2" stroke-dasharray="80 5"/>
      <rect id="Rectangle_425587" data-name="Rectangle 425587" width="12.617" height="2.523" transform="translate(-908.435 -8367.454)" fill="#22282d" stroke="#000" stroke-linecap="round" stroke-linejoin="round" stroke-width="2" stroke-dasharray="80 5"/>
      <rect id="Rectangle_425588" data-name="Rectangle 425588" width="6.965" height="2.523" transform="translate(-923.574 -8367.454)" fill="#22282d" stroke="#000" stroke-linecap="round" stroke-linejoin="round" stroke-width="2" stroke-dasharray="80 5"/>
      <path id="Path_1491453" data-name="Path 1491453" d="M6.965,41.886h5.652a.606.606,0,1,0,0-1.211H6.965Z" transform="translate(-931.245 -8421.251)" fill="#dddcdb"/>
      <path id="Path_1491454" data-name="Path 1491454" d="M12.718,45.722H7.066v1.312h5.652a.651.651,0,0,0,.6-.606c0-.3-.3-.706-.6-.706" transform="translate(-931.245 -8421.251)" fill="#dddcdb"/>
      <path id="Path_1491455" data-name="Path 1491455" d="M12.718,43.2H7.066v1.312h5.652a.651.651,0,0,0,.6-.606c0-.3-.3-.706-.6-.706" transform="translate(-931.245 -8421.251)" fill="#dddcdb"/>
      <path id="Path_1491456" data-name="Path 1491456" d="M45.521,44.409h5.652V43.1H45.521a.651.651,0,0,0-.6.6.668.668,0,0,0,.6.707" transform="translate(-931.245 -8421.251)" fill="#dddcdb"/>
      <path id="Path_1491457" data-name="Path 1491457" d="M45.521,41.886h5.652V40.574H45.521a.651.651,0,0,0-.6.6.668.668,0,0,0,.6.707" transform="translate(-931.245 -8421.251)" fill="#dddcdb"/>
      <path id="Path_1491458" data-name="Path 1491458" d="M51.174,45.722H45.522a.605.605,0,1,0,0,1.211h5.652Z" transform="translate(-931.245 -8421.251)" fill="#dddcdb"/>
    </g>
  </g>
</svg>
