<svg xmlns="http://www.w3.org/2000/svg" width="98" height="97.999" viewBox="0 0 98 97.999">
  <g id="Group_1228901" data-name="Group 1228901" transform="translate(-803.781 -1972.016)">
    <g id="Group_1204143" data-name="Group 1204143" transform="translate(-67.331 1694.852)">
      <g id="Group_1188789" data-name="Group 1188789" transform="translate(871.113 277.164)">
        <path id="Path_1243039" data-name="Path 1243039" d="M41.05,0h0a41.05,41.05,0,0,1,0,82.1h0a41.05,41.05,0,0,1,0-82.1Z" transform="translate(7.951 7.949)" fill="#ffa724"/>
        <rect id="Rectangle_400907" data-name="Rectangle 400907" width="88.438" height="88.437" rx="44.218" transform="translate(4.782 4.781)" fill="none"/>
        <g id="Group_1098742" data-name="Group 1098742" transform="translate(0)">
          <g id="Rectangle_400898" data-name="Rectangle 400898" transform="translate(0)" fill="none" stroke="#fff" stroke-width="2" opacity="0.859">
            <rect width="98" height="97.999" rx="48.999" stroke="none"/>
            <rect x="1" y="1" width="96" height="95.999" rx="47.999" fill="none"/>
          </g>
          <g id="Rectangle_400907-2" data-name="Rectangle 400907" transform="translate(0)" fill="none" stroke="#0f1f33" stroke-linecap="round" stroke-width="2">
            <rect width="98" height="97.999" rx="48.999" stroke="none"/>
            <rect x="1" y="1" width="96" height="95.999" rx="47.999" fill="none"/>
          </g>
        </g>
      </g>
    </g>
    <g id="Group_1228929" data-name="Group 1228929" transform="translate(1283.925 10407.229)">
      <path id="Path_1491469" data-name="Path 1491469" d="M476.761,13.639v42.9h32.8v-42.9Z" transform="translate(-931.245 -8421.251)" fill="#f2f2f2" stroke="#000" stroke-linecap="round" stroke-linejoin="round" stroke-width="2" stroke-dasharray="80 5"/>
      <rect id="Rectangle_425589" data-name="Rectangle 425589" width="27.757" height="37.851" transform="translate(-451.961 -8405.088)" fill="#87c7ff" stroke="#000" stroke-linecap="round" stroke-linejoin="round" stroke-width="2" stroke-dasharray="80 5"/>
      <path id="Path_1491470" data-name="Path 1491470" d="M522.686,50.379l-5.047-5.046.1-.1a.863.863,0,0,0,0-1.313.923.923,0,0,0-.707-.3,1.088,1.088,0,0,0-.706.3l-.708.707-1.211-1.514A10.3,10.3,0,0,0,513.4,29.688a10.808,10.808,0,0,0-3.735-2.423,11.444,11.444,0,0,0-2.523-.6,10.394,10.394,0,0,0-8.378,17.664c.2.2.3.3.505.5a10.652,10.652,0,0,0,7.772,2.523,11.466,11.466,0,0,0,2.524-.605,10.18,10.18,0,0,0,2.321-1.211l1.514,1.513-.706.707a.859.859,0,0,0,0,1.312.916.916,0,0,0,.706.3,1.093,1.093,0,0,0,.707-.3l.1-.1,5.047,5.047a2.363,2.363,0,0,0,1.716.706,2.211,2.211,0,0,0,1.716-.706,2.555,2.555,0,0,0,0-3.634M511.179,42.1a7.4,7.4,0,0,1-9.79.505,1.223,1.223,0,0,1-.505-.505,7.28,7.28,0,1,1,10.295,0" transform="translate(-931.245 -8421.251)" fill="#333940" stroke="#000" stroke-linecap="round" stroke-linejoin="round" stroke-width="2" stroke-dasharray="80 5"/>
      <path id="Path_1491471" data-name="Path 1491471" d="M517.841,43.819a.861.861,0,0,1,0,1.312l-.1.1-3.533,3.532-.1.1a.924.924,0,0,1-.708.3,1.1,1.1,0,0,1-.706-.3.861.861,0,0,1,0-1.313l.706-.706,2.423-2.423.707-.706a.916.916,0,0,1,.706-.3,2.1,2.1,0,0,1,.606.4" transform="translate(-931.245 -8421.251)" fill="#22282d"/>
      <path id="Path_1491472" data-name="Path 1491472" d="M501.489,42.608a1.229,1.229,0,0,1-.505-.505,7.28,7.28,0,1,1,10.3,0,7.407,7.407,0,0,1-9.791.505" transform="translate(-931.245 -8421.251)" fill="#f2f2f2" stroke="#000" stroke-linecap="round" stroke-linejoin="round" stroke-width="2" stroke-dasharray="80 5"/>
      <path id="Path_1491473" data-name="Path 1491473" d="M491.3,18.08a.606.606,0,1,1-.605.6.6.6,0,0,1,.605-.6" transform="translate(-931.245 -8421.251)" fill="#4a7aff"/>
      <path id="Path_1491474" data-name="Path 1491474" d="M491.3,20.6a.606.606,0,1,1-.605.6.6.6,0,0,1,.605-.6" transform="translate(-931.245 -8421.251)" fill="#4a7aff"/>
      <path id="Path_1491475" data-name="Path 1491475" d="M491.3,23.127a.605.605,0,1,1-.605.6.6.6,0,0,1,.605-.6" transform="translate(-931.245 -8421.251)" fill="#4a7aff"/>
      <path id="Path_1491476" data-name="Path 1491476" d="M491.3,25.651a.606.606,0,1,1-.605.605.6.6,0,0,1,.605-.605" transform="translate(-931.245 -8421.251)" fill="#4a7aff"/>
      <path id="Path_1491477" data-name="Path 1491477" d="M491.3,28.174a.606.606,0,1,1-.605.6.6.6,0,0,1,.605-.6" transform="translate(-931.245 -8421.251)" fill="#4a7aff"/>
      <path id="Path_1491478" data-name="Path 1491478" d="M491.3,30.7a.606.606,0,1,1-.605.6.6.6,0,0,1,.605-.6" transform="translate(-931.245 -8421.251)" fill="#4a7aff"/>
      <path id="Path_1491479" data-name="Path 1491479" d="M494.424,50.177a.522.522,0,0,1-.4-.2l-3.634-3.634-3.634,3.634a.642.642,0,0,1-.908-.909l4.138-4.138a.754.754,0,0,1,.909,0l3.634,3.634,11.2-11.2a.642.642,0,0,1,.908.908L494.929,49.976a.771.771,0,0,1-.5.2" transform="translate(-931.245 -8421.251)" fill="#f0582f" stroke="#000" stroke-linecap="round" stroke-linejoin="round" stroke-width="2" stroke-dasharray="80 5"/>
      <path id="Path_1491480" data-name="Path 1491480" d="M505.83,40.993h0a.6.6,0,0,1-.606-.707l.2-1.817h-1.817a.605.605,0,1,1,0-1.21h2.524c.2,0,.3.1.5.2s.2.3.2.505l-.4,2.523a.566.566,0,0,1-.606.505" transform="translate(-931.245 -8421.251)" fill="#c6361a" stroke="#000" stroke-linecap="round" stroke-linejoin="round" stroke-width="2" stroke-dasharray="80 5"/>
      <path id="Path_1491481" data-name="Path 1491481" d="M489.377,31.909h-7.57a.606.606,0,1,1,0-1.211h7.57a.651.651,0,0,1,.6.6c.1.3-.2.606-.6.606" transform="translate(-931.245 -8421.251)" fill="#4a7aff"/>
      <path id="Path_1491482" data-name="Path 1491482" d="M489.377,29.385h-7.57a.606.606,0,1,1,0-1.211h7.57a.651.651,0,0,1,.6.606c.1.3-.2.6-.6.6" transform="translate(-931.245 -8421.251)" fill="#4a7aff"/>
      <path id="Path_1491483" data-name="Path 1491483" d="M489.377,26.862h-7.57a.606.606,0,1,1,0-1.211h7.57a.651.651,0,0,1,.6.606c.1.3-.2.6-.6.6" transform="translate(-931.245 -8421.251)" fill="#4a7aff"/>
      <path id="Path_1491484" data-name="Path 1491484" d="M489.377,24.338h-7.57a.605.605,0,1,1,0-1.211h7.57a.651.651,0,0,1,.6.606c.1.3-.2.6-.6.6" transform="translate(-931.245 -8421.251)" fill="#4a7aff"/>
      <path id="Path_1491485" data-name="Path 1491485" d="M489.377,21.815h-7.57a.606.606,0,1,1,0-1.211h7.57a.651.651,0,0,1,.6.606c.1.3-.2.605-.6.605" transform="translate(-931.245 -8421.251)" fill="#4a7aff"/>
      <path id="Path_1491486" data-name="Path 1491486" d="M489.377,19.291h-7.57a.606.606,0,1,1,0-1.211h7.57a.651.651,0,0,1,.6.606c.1.3-.2.6-.6.6" transform="translate(-931.245 -8421.251)" fill="#4a7aff"/>
      <path id="Path_1491487" data-name="Path 1491487" d="M509.565,11.217V13.74h-32.8V11.217a5.062,5.062,0,0,1,5.046-5.047h22.612a5.022,5.022,0,0,1,5.147,5.047" transform="translate(-931.245 -8421.251)" fill="#555a66" stroke="#000" stroke-linecap="round" stroke-linejoin="round" stroke-width="2" stroke-dasharray="80 5"/>
      <path id="Path_1491488" data-name="Path 1491488" d="M495.736,10.611h-5.047a.606.606,0,0,1,0-1.211h5.047a.606.606,0,0,1,0,1.211" transform="translate(-931.245 -8421.251)" fill="#404651"/>
      <path id="Path_1491489" data-name="Path 1491489" d="M476.761,56.334v2.523a5.061,5.061,0,0,0,5.046,5.047h22.61a5.061,5.061,0,0,0,5.046-5.047V56.334Z" transform="translate(-931.245 -8421.251)" fill="#555a66" stroke="#000" stroke-linecap="round" stroke-linejoin="round" stroke-width="2" stroke-dasharray="80 5"/>
      <path id="Path_1491490" data-name="Path 1491490" d="M493.213,58.252A1.918,1.918,0,1,1,491.3,60.17a1.917,1.917,0,0,1,1.918-1.918" transform="translate(-931.245 -8421.251)" fill="#404651"/>
    </g>
  </g>
</svg>
