<svg xmlns="http://www.w3.org/2000/svg" width="98" height="97.998" viewBox="0 0 98 97.998">
  <g id="Group_1228903" data-name="Group 1228903" transform="translate(-803.781 -1972.016)">
    <g id="Group_1204143" data-name="Group 1204143" transform="translate(-67.331 1694.852)">
      <g id="Group_1188789" data-name="Group 1188789" transform="translate(871.113 277.164)">
        <path id="Path_1243039" data-name="Path 1243039" d="M41.05,0h0a41.05,41.05,0,0,1,0,82.1h0a41.05,41.05,0,0,1,0-82.1Z" transform="translate(7.951 7.949)" fill="#fdcae3"/>
        <rect id="Rectangle_400907" data-name="Rectangle 400907" width="88.438" height="88.437" rx="44.218" transform="translate(4.782 4.781)" fill="none"/>
        <g id="Group_1098742" data-name="Group 1098742" transform="translate(0)">
          <g id="Rectangle_400898" data-name="Rectangle 400898" transform="translate(0)" fill="none" stroke="#fff" stroke-width="2" opacity="0.859">
            <rect width="98" height="97.999" rx="48.999" stroke="none"/>
            <rect x="1" y="1" width="96" height="95.999" rx="47.999" fill="none"/>
          </g>
          <g id="Rectangle_400907-2" data-name="Rectangle 400907" transform="translate(0)" fill="none" stroke="#0f1f33" stroke-linecap="round" stroke-width="2">
            <rect width="98" height="97.999" rx="48.999" stroke="none"/>
            <rect x="1" y="1" width="96" height="95.999" rx="47.999" fill="none"/>
          </g>
        </g>
      </g>
    </g>
    <g id="Group_1228938" data-name="Group 1228938" transform="translate(1534.315 10264.854)">
      <path id="Path_1491566" data-name="Path 1491566" d="M336.93,3.743a12.813,12.813,0,0,1,3.338,5.867,12.629,12.629,0,1,1-24.885,3.035h12.645c1.011-1.012,7.89-7.891,8.9-8.9" transform="translate(-1026 -8271)" fill="#e64c42" stroke="#000" stroke-linecap="round" stroke-linejoin="round" stroke-width="2" stroke-dasharray="80 5"/>
      <path id="Path_1491567" data-name="Path 1491567" d="M336.93,3.743h0l-8.9,8.9V0a12.549,12.549,0,0,1,8.9,3.743" transform="translate(-1026 -8271)" fill="#80af52" stroke="#000" stroke-linecap="round" stroke-linejoin="round" stroke-width="2" stroke-dasharray="80 5"/>
      <path id="Path_1491568" data-name="Path 1491568" d="M328.028,0V12.645H315.383A12.585,12.585,0,0,1,328.028,0" transform="translate(-1026 -8271)" fill="#fcd884" stroke="#000" stroke-linecap="round" stroke-linejoin="round" stroke-width="2" stroke-dasharray="80 5"/>
      <path id="Path_1491569" data-name="Path 1491569" d="M350.789,5.058a22.346,22.346,0,0,0-11.027,2.833,7.245,7.245,0,0,1,.506,1.719,12.759,12.759,0,0,1,.2,5.159,13.156,13.156,0,0,1-4.35,7.587,13.691,13.691,0,0,1-3.136,1.922,13.907,13.907,0,0,1-4.856,1.011,22.782,22.782,0,1,0,22.66-20.231" transform="translate(-1026 -8271)" fill="#ecf0f1" stroke="#000" stroke-linecap="round" stroke-linejoin="round" stroke-width="2" stroke-dasharray="80 5"/>
      <path id="Path_1491570" data-name="Path 1491570" d="M369.1,50.58A1.92,1.92,0,0,1,371.02,52.5a1.629,1.629,0,0,1-.607,1.315,1.919,1.919,0,0,1-1.315.506H325.5a1.934,1.934,0,0,1-1.416-3.237,2.007,2.007,0,0,1,1.315-.607h43.7Z" transform="translate(-1026 -8271)" fill="#323133" stroke="#000" stroke-linecap="round" stroke-linejoin="round" stroke-width="2" stroke-dasharray="80 5"/>
      <path id="Path_1491571" data-name="Path 1491571" d="M350.789,32.877v8.9h-5.058V27.819h5.058Z" transform="translate(-1026 -8271)" fill="#414a56" stroke="#000" stroke-linecap="round" stroke-linejoin="round" stroke-width="2" stroke-dasharray="80 5"/>
      <path id="Path_1491572" data-name="Path 1491572" d="M360.9,29.134V41.779h-5.058V25.29H360.9Z" transform="translate(-1026 -8271)" fill="#414a56" stroke="#000" stroke-linecap="round" stroke-linejoin="round" stroke-width="2" stroke-dasharray="80 5"/>
      <rect id="Rectangle_425604" data-name="Rectangle 425604" width="5.058" height="12.645" transform="translate(-665.095 -8241.867)" fill="#57606f" stroke="#000" stroke-linecap="round" stroke-linejoin="round" stroke-width="2" stroke-dasharray="80 5"/>
      <rect id="Rectangle_425605" data-name="Rectangle 425605" width="5.058" height="8.902" transform="translate(-675.211 -8238.123)" fill="#57606f" stroke="#000" stroke-linecap="round" stroke-linejoin="round" stroke-width="2" stroke-dasharray="80 5"/>
      <rect id="Rectangle_425606" data-name="Rectangle 425606" width="5.058" height="7.587" transform="translate(-685.327 -8236.808)" fill="#57606f" stroke="#000" stroke-linecap="round" stroke-linejoin="round" stroke-width="2" stroke-dasharray="80 5"/>
    </g>
  </g>
</svg>
