<svg xmlns="http://www.w3.org/2000/svg" width="98" height="97.998" viewBox="0 0 98 97.998">
  <g id="Group_1228902" data-name="Group 1228902" transform="translate(-803.781 -1972.016)">
    <g id="Group_1204143" data-name="Group 1204143" transform="translate(-67.331 1694.852)">
      <g id="Group_1188789" data-name="Group 1188789" transform="translate(871.113 277.164)">
        <path id="Path_1243039" data-name="Path 1243039" d="M41.05,0h0a41.05,41.05,0,0,1,0,82.1h0a41.05,41.05,0,0,1,0-82.1Z" transform="translate(7.951 7.949)" fill="#fdcae3"/>
        <rect id="Rectangle_400907" data-name="Rectangle 400907" width="88.438" height="88.437" rx="44.218" transform="translate(4.782 4.781)" fill="none"/>
        <g id="Group_1098742" data-name="Group 1098742" transform="translate(0)">
          <g id="Rectangle_400898" data-name="Rectangle 400898" transform="translate(0)" fill="none" stroke="#fff" stroke-width="2" opacity="0.859">
            <rect width="98" height="97.999" rx="48.999" stroke="none"/>
            <rect x="1" y="1" width="96" height="95.999" rx="47.999" fill="none"/>
          </g>
          <g id="Rectangle_400907-2" data-name="Rectangle 400907" transform="translate(0)" fill="none" stroke="#0f1f33" stroke-linecap="round" stroke-width="2">
            <rect width="98" height="97.999" rx="48.999" stroke="none"/>
            <rect x="1" y="1" width="96" height="95.999" rx="47.999" fill="none"/>
          </g>
        </g>
      </g>
    </g>
    <g id="Group_1228939" data-name="Group 1228939" transform="translate(1427.141 10262.314)">
      <rect id="Rectangle_425602" data-name="Rectangle 425602" width="7.574" height="17.5" transform="translate(-598.345 -8251.5)" fill="#07475d" stroke="#000" stroke-linecap="round" stroke-linejoin="round" stroke-width="2" stroke-dasharray="80 5"/>
      <path id="Path_1491556" data-name="Path 1491556" d="M447.853,21.7a1.33,1.33,0,0,1-1.312-1.3V8a1.33,1.33,0,0,1,1.312-1.3h7.574A1.331,1.331,0,0,1,456.741,8V18a1.313,1.313,0,0,1-2.626,0V9.2h-5.05V20.5a1.222,1.222,0,0,1-1.212,1.2" transform="translate(-1026 -8271)" fill="#ff3939" stroke="#000" stroke-linecap="round" stroke-linejoin="round" stroke-width="2" stroke-dasharray="80 5"/>
      <path id="Path_1491557" data-name="Path 1491557" d="M431.391,43a7.5,7.5,0,1,1-7.574,7.5,7.537,7.537,0,0,1,7.574-7.5" transform="translate(-1026 -8271)" fill="#ff9f22" stroke="#000" stroke-linecap="round" stroke-linejoin="round" stroke-width="2" stroke-dasharray="80 5"/>
      <path id="Path_1491558" data-name="Path 1491558" d="M451.59,30.5a7.5,7.5,0,1,1-7.575,7.5,7.537,7.537,0,0,1,7.575-7.5" transform="translate(-1026 -8271)" fill="#ff9f22" stroke="#000" stroke-linecap="round" stroke-linejoin="round" stroke-width="2" stroke-dasharray="80 5"/>
      <path id="Path_1491559" data-name="Path 1491559" d="M471.789,43a7.5,7.5,0,1,1-7.574,7.5,7.537,7.537,0,0,1,7.574-7.5" transform="translate(-1026 -8271)" fill="#ff9f22" stroke="#000" stroke-linecap="round" stroke-linejoin="round" stroke-width="2" stroke-dasharray="80 5"/>
      <path id="Path_1491560" data-name="Path 1491560" d="M480.676,20.8H463l8.786-7.8Z" transform="translate(-1026 -8271)" fill="#02ba66" stroke="#000" stroke-linecap="round" stroke-linejoin="round" stroke-width="2" stroke-dasharray="80 5"/>
      <rect id="Rectangle_425603" data-name="Rectangle 425603" width="7.574" height="16.2" transform="translate(-557.948 -8250.198)" fill="#00dd80" stroke="#000" stroke-linecap="round" stroke-linejoin="round" stroke-width="2" stroke-dasharray="80 5"/>
      <path id="Path_1491561" data-name="Path 1491561" d="M460.477,9.2H442.8l8.787-7.8Z" transform="translate(-1026 -8271)" fill="#d83535" stroke="#000" stroke-linecap="round" stroke-linejoin="round" stroke-width="2" stroke-dasharray="80 5"/>
      <path id="Path_1491562" data-name="Path 1491562" d="M440.279,20.8H422.6l8.786-7.8Z" transform="translate(-1026 -8271)" fill="#063744" stroke="#000" stroke-linecap="round" stroke-linejoin="round" stroke-width="2" stroke-dasharray="80 5"/>
      <path id="Path_1491563" data-name="Path 1491563" d="M474.92,51.1a1.794,1.794,0,0,0-.505-.7,5.646,5.646,0,0,0-.808-.5c-.3-.1-.707-.2-1.011-.3l-.4-.1V47.9a1.441,1.441,0,0,1,.605.2c.2.1.4.1.607.2s.3.2.4.2a.316.316,0,0,0,.2.1l.809-1.6a3.763,3.763,0,0,0-1.111-.5,3.259,3.259,0,0,0-1.414-.3V45h-.808v1.2a3.014,3.014,0,0,0-1.01.2,2.194,2.194,0,0,0-.808.5,5.48,5.48,0,0,0-.606.8,3.563,3.563,0,0,0-.2,1.1,1.931,1.931,0,0,0,.1.8,2.091,2.091,0,0,0,.4.6,4.276,4.276,0,0,0,.707.5,10.438,10.438,0,0,0,1.01.4l.505.2v1.5a2.4,2.4,0,0,1-.808-.2,4.9,4.9,0,0,1-.707-.3,2.212,2.212,0,0,1-.505-.3l-.2-.2-.808,1.6a6.174,6.174,0,0,0,1.414.7,4.224,4.224,0,0,0,1.616.3v1.3h.808V54.4a3.024,3.024,0,0,0,1.01-.2,3.6,3.6,0,0,0,.908-.4,1.346,1.346,0,0,0,.607-.7,1.961,1.961,0,0,0,.2-1.1c-.1-.3-.1-.7-.2-.9m-3.333-1.8a1.65,1.65,0,0,1-.606-.3.76.76,0,0,1-.2-.5c0-.4.3-.6.808-.7Zm.606,3.5V51.4a1.635,1.635,0,0,1,.605.3c.2.1.2.3.2.5,0,.4-.3.6-.808.6" transform="translate(-1026 -8271)" fill="#ecf0f1"/>
      <path id="Path_1491564" data-name="Path 1491564" d="M454.216,37.9a5.646,5.646,0,0,0-.808-.5c-.3-.1-.707-.2-1.01-.3l-.4-.1V35.4a1.445,1.445,0,0,1,.606.2c.2.1.4.1.606.2s.3.2.4.2a.314.314,0,0,0,.2.1l.808-1.6a3.757,3.757,0,0,0-1.11-.5,3.259,3.259,0,0,0-1.414-.3V32.5h-.809v1.2a3.019,3.019,0,0,0-1.01.2,2.2,2.2,0,0,0-.807.5,5.481,5.481,0,0,0-.607.8,3.593,3.593,0,0,0-.2,1.1,1.914,1.914,0,0,0,.1.8,2.07,2.07,0,0,0,.4.6,4.223,4.223,0,0,0,.706.5,10.57,10.57,0,0,0,1.011.4l.505.2v1.5a2.4,2.4,0,0,1-.809-.2,4.952,4.952,0,0,1-.707-.3c-.2-.1-.3-.1-.5-.2l-.2-.2-.809,1.6a6.215,6.215,0,0,0,1.414.7,4.225,4.225,0,0,0,1.617.3v1.3h.807V42a3.014,3.014,0,0,0,1.01-.2,3.59,3.59,0,0,0,.909-.4,1.355,1.355,0,0,0,.607-.7,1.969,1.969,0,0,0,.2-1.1,2.958,2.958,0,0,0-.2-1,1.806,1.806,0,0,0-.506-.7m-2.827-1.1a1.657,1.657,0,0,1-.607-.3.765.765,0,0,1-.2-.5c0-.4.3-.6.809-.7Zm.6,3.5V38.9a1.642,1.642,0,0,1,.606.3c.2.1.2.3.2.5,0,.4-.3.6-.809.6" transform="translate(-1026 -8271)" fill="#ecf0f1"/>
      <path id="Path_1491565" data-name="Path 1491565" d="M434.017,50.4a5.7,5.7,0,0,0-.808-.5c-.3-.1-.707-.2-1.111-.3l-.4-.1V47.9a1.445,1.445,0,0,1,.607.2c.2.1.4.1.605.2s.3.2.4.2a.312.312,0,0,0,.2.1l.807-1.6a3.746,3.746,0,0,0-1.11-.5,3.252,3.252,0,0,0-1.413-.3V45h-.81v1.2a3.013,3.013,0,0,0-1.009.2,2.2,2.2,0,0,0-.808.5,5.554,5.554,0,0,0-.606.8,3.564,3.564,0,0,0-.2,1.1,1.931,1.931,0,0,0,.1.8,2.09,2.09,0,0,0,.4.6,4.275,4.275,0,0,0,.707.5,10.54,10.54,0,0,0,1.01.4l.506.2v1.5a2.4,2.4,0,0,1-.809-.2,4.9,4.9,0,0,1-.707-.3,2.212,2.212,0,0,1-.505-.3l-.2-.2-.808,1.6a6.2,6.2,0,0,0,1.414.7,4.222,4.222,0,0,0,1.617.3v1.3h.807V54.4a3,3,0,0,0,1.009-.2,3.575,3.575,0,0,0,.909-.4,1.355,1.355,0,0,0,.607-.7,1.969,1.969,0,0,0,.2-1.1,2.933,2.933,0,0,0-.2-1c0-.2-.2-.4-.4-.6m-2.829-1.1a1.652,1.652,0,0,1-.6-.3.754.754,0,0,1-.2-.5c0-.4.3-.6.806-.7Zm.608,3.5V51.4a1.637,1.637,0,0,1,.6.3c.2.1.2.3.2.5,0,.4-.3.6-.807.6" transform="translate(-1026 -8271)" fill="#ecf0f1"/>
    </g>
  </g>
</svg>
