<svg xmlns="http://www.w3.org/2000/svg" width="98" height="97.999" viewBox="0 0 98 97.999">
  <g id="Group_1228943" data-name="Group 1228943" transform="translate(-803.781 -1972.016)">
    <g id="Group_1204143" data-name="Group 1204143" transform="translate(-67.331 1694.852)">
      <g id="Group_1188789" data-name="Group 1188789" transform="translate(871.113 277.164)">
        <path id="Path_1243039" data-name="Path 1243039" d="M41.05,0h0a41.05,41.05,0,0,1,0,82.1h0a41.05,41.05,0,0,1,0-82.1Z" transform="translate(7.951 7.949)" fill="#fdcae3"/>
        <rect id="Rectangle_400907" data-name="Rectangle 400907" width="88.438" height="88.437" rx="44.218" transform="translate(4.782 4.781)" fill="none"/>
        <g id="Group_1098742" data-name="Group 1098742" transform="translate(0)">
          <g id="Rectangle_400898" data-name="Rectangle 400898" transform="translate(0)" fill="none" stroke="#fff" stroke-width="2" opacity="0.859">
            <rect width="98" height="97.999" rx="48.999" stroke="none"/>
            <rect x="1" y="1" width="96" height="95.999" rx="47.999" fill="none"/>
          </g>
          <g id="Rectangle_400907-2" data-name="Rectangle 400907" transform="translate(0)" fill="none" stroke="#0f1f33" stroke-linecap="round" stroke-width="2">
            <rect width="98" height="97.999" rx="48.999" stroke="none"/>
            <rect x="1" y="1" width="96" height="95.999" rx="47.999" fill="none"/>
          </g>
        </g>
      </g>
    </g>
    <g id="Group_1228978" data-name="Group 1228978" transform="translate(-2172.344 10274.051)">
      <path id="Path_1491646" data-name="Path 1491646" d="M49.78,134.862l-6.363,8.2-5.958,7.6-4.343,1.5.3-4.5,10-12.8,2.424-3.1Z" transform="translate(2998.748 -8387.698)" fill="#5a5a5a" stroke="#000" stroke-linecap="round" stroke-linejoin="round" stroke-width="2" stroke-dasharray="80 5"/>
      <path id="Path_1491647" data-name="Path 1491647" d="M51.6,129.862a1.61,1.61,0,0,1,.3,2.3l-2.02,2.6-4.039-3.1,2.019-2.6a1.648,1.648,0,0,1,2.323-.3Z" transform="translate(2998.748 -8387.698)" fill="#ff9f22" stroke="#000" stroke-linecap="round" stroke-linejoin="round" stroke-width="2" stroke-dasharray="80 5"/>
      <path id="Path_1491648" data-name="Path 1491648" d="M38.368,157.162v5H.495v-50h5.05v45Z" transform="translate(2998.748 -8387.698)" fill="#bec3c7" stroke="#000" stroke-linecap="round" stroke-linejoin="round" stroke-width="2" stroke-dasharray="80 5"/>
      <path id="Path_1491649" data-name="Path 1491649" d="M35.843,107.162l7.574,7.5H35.843Z" transform="translate(2998.748 -8387.698)" fill="#bec3c7" stroke="#000" stroke-linecap="round" stroke-linejoin="round" stroke-width="2" stroke-dasharray="80 5"/>
      <path id="Path_1491650" data-name="Path 1491650" d="M33.116,152.162l4.343-1.5,5.958-7.6v14.1H5.545v-50h30.3v7.5h7.574v20.2l-10,12.8Z" transform="translate(2998.748 -8387.698)" fill="#ecf0f1" stroke="#000" stroke-linecap="round" stroke-linejoin="round" stroke-width="2" stroke-dasharray="80 5"/>
      <path id="Path_1491651" data-name="Path 1491651" d="M33.116,153.362h-9.9a1.3,1.3,0,1,1,0-2.6h9.9a1.33,1.33,0,0,1,1.313,1.3,1.4,1.4,0,0,1-1.313,1.3" transform="translate(2998.748 -8387.698)" fill="#bec3c7" stroke="#000" stroke-linecap="round" stroke-linejoin="round" stroke-width="2" stroke-dasharray="80 5"/>
      <path id="Path_1491652" data-name="Path 1491652" d="M11.806,118.362H24.43a1.3,1.3,0,1,0,0-2.6H11.806a1.33,1.33,0,0,0-1.313,1.3,1.4,1.4,0,0,0,1.313,1.3" transform="translate(2998.748 -8387.698)" fill="#bec3c7"/>
      <path id="Path_1491653" data-name="Path 1491653" d="M11.806,122.162H24.43a1.3,1.3,0,1,0,0-2.6H11.806a1.33,1.33,0,0,0-1.313,1.3,1.4,1.4,0,0,0,1.313,1.3" transform="translate(2998.748 -8387.698)" fill="#bec3c7"/>
      <path id="Path_1491654" data-name="Path 1491654" d="M11.806,125.862H33.318a1.3,1.3,0,1,0,0-2.6H11.806a1.33,1.33,0,0,0-1.313,1.3,1.4,1.4,0,0,0,1.313,1.3" transform="translate(2998.748 -8387.698)" fill="#bec3c7"/>
      <path id="Path_1491655" data-name="Path 1491655" d="M33.318,127.162H11.806a1.3,1.3,0,1,0,0,2.6H33.318a1.33,1.33,0,0,0,1.313-1.3,1.4,1.4,0,0,0-1.313-1.3" transform="translate(2998.748 -8387.698)" fill="#bec3c7"/>
      <path id="Path_1491656" data-name="Path 1491656" d="M33.318,130.862H11.806a1.3,1.3,0,1,0,0,2.6H33.318a1.33,1.33,0,0,0,1.313-1.3,1.491,1.491,0,0,0-1.313-1.3" transform="translate(2998.748 -8387.698)" fill="#bec3c7"/>
      <path id="Path_1491657" data-name="Path 1491657" d="M33.318,134.662H11.806a1.3,1.3,0,1,0,0,2.6H33.318a1.33,1.33,0,0,0,1.313-1.3,1.4,1.4,0,0,0-1.313-1.3" transform="translate(2998.748 -8387.698)" fill="#bec3c7"/>
      <path id="Path_1491658" data-name="Path 1491658" d="M33.318,138.362H11.806a1.3,1.3,0,1,0,0,2.6H33.318a1.33,1.33,0,0,0,1.313-1.3,1.4,1.4,0,0,0-1.313-1.3" transform="translate(2998.748 -8387.698)" fill="#bec3c7"/>
    </g>
  </g>
</svg>
