<svg xmlns="http://www.w3.org/2000/svg" width="98" height="97.999" viewBox="0 0 98 97.999">
  <g id="Group_1228944" data-name="Group 1228944" transform="translate(-803.781 -1972.016)">
    <g id="Group_1204143" data-name="Group 1204143" transform="translate(-67.331 1694.852)">
      <g id="Group_1188789" data-name="Group 1188789" transform="translate(871.113 277.164)">
        <path id="Path_1243039" data-name="Path 1243039" d="M41.05,0h0a41.05,41.05,0,0,1,0,82.1h0a41.05,41.05,0,0,1,0-82.1Z" transform="translate(7.951 7.949)" fill="#fdcae3"/>
        <rect id="Rectangle_400907" data-name="Rectangle 400907" width="88.438" height="88.437" rx="44.218" transform="translate(4.782 4.781)" fill="none"/>
        <g id="Group_1098742" data-name="Group 1098742" transform="translate(0)">
          <g id="Rectangle_400898" data-name="Rectangle 400898" transform="translate(0)" fill="none" stroke="#fff" stroke-width="2" opacity="0.859">
            <rect width="98" height="97.999" rx="48.999" stroke="none"/>
            <rect x="1" y="1" width="96" height="95.999" rx="47.999" fill="none"/>
          </g>
          <g id="Rectangle_400907-2" data-name="Rectangle 400907" transform="translate(0)" fill="none" stroke="#0f1f33" stroke-linecap="round" stroke-width="2">
            <rect width="98" height="97.999" rx="48.999" stroke="none"/>
            <rect x="1" y="1" width="96" height="95.999" rx="47.999" fill="none"/>
          </g>
        </g>
      </g>
    </g>
    <g id="Group_1228979" data-name="Group 1228979" transform="translate(-2253.782 10276.718)">
      <path id="Path_1491659" data-name="Path 1491659" d="M88.436,155.312V109.891H83.288v50.467h35.327v-5.046Z" transform="translate(2998.748 -8387.698)" fill="#dddcdb" stroke="#000" stroke-linecap="round" stroke-linejoin="round" stroke-width="2" stroke-dasharray="80 5"/>
      <path id="Path_1491660" data-name="Path 1491660" d="M129.718,135.225H85.912a2.714,2.714,0,0,0-2.725,2.725v14.737a2.713,2.713,0,0,0,2.725,2.725h43.806a2.713,2.713,0,0,0,2.725-2.725V137.95a2.714,2.714,0,0,0-2.725-2.725" transform="translate(2998.748 -8387.698)" fill="#555a66" stroke="#000" stroke-linecap="round" stroke-linejoin="round" stroke-width="2" stroke-dasharray="80 5"/>
      <path id="Path_1491661" data-name="Path 1491661" d="M118.615,103.633H88.334v31.592h37.851V111.2c-2.423-2.321-5.248-5.147-7.57-7.569" transform="translate(2998.748 -8387.698)" fill="#f2f2f2" stroke="#000" stroke-linecap="round" stroke-linejoin="round" stroke-width="2" stroke-dasharray="80 5"/>
      <rect id="Rectangle_425644" data-name="Rectangle 425644" width="7.569" height="2.523" transform="translate(3120.492 -8248.737)" fill="#87c7ff" stroke="#000" stroke-linecap="round" stroke-linejoin="round" stroke-width="2" stroke-dasharray="80 5"/>
      <rect id="Rectangle_425645" data-name="Rectangle 425645" width="7.569" height="7.57" transform="translate(3120.492 -8242.985)" fill="#87c7ff" stroke="#000" stroke-linecap="round" stroke-linejoin="round" stroke-width="2" stroke-dasharray="80 5"/>
      <rect id="Rectangle_425646" data-name="Rectangle 425646" width="30.28" height="7.57" transform="translate(3085.165 -8242.985)" fill="#87c7ff" stroke="#000" stroke-linecap="round" stroke-linejoin="round" stroke-width="2" stroke-dasharray="80 5"/>
      <rect id="Rectangle_425647" data-name="Rectangle 425647" width="30.28" height="3.835" transform="translate(3085.165 -8249.343)" fill="#87c7ff" stroke="#000" stroke-linecap="round" stroke-linejoin="round" stroke-width="2" stroke-dasharray="80 5"/>
      <path id="Path_1491662" data-name="Path 1491662" d="M105.291,148.447v3.836H90.151v-3.836h15.14Z" transform="translate(2998.748 -8387.698)" fill="#4a7aff"/>
      <rect id="Rectangle_425648" data-name="Rectangle 425648" width="3.836" height="3.836" transform="translate(3111.61 -8239.251)" fill="#87c7ff"/>
      <rect id="Rectangle_425649" data-name="Rectangle 425649" width="3.835" height="3.836" transform="translate(3107.875 -8239.251)" fill="#65b1fc"/>
      <rect id="Rectangle_425650" data-name="Rectangle 425650" width="3.835" height="3.836" transform="translate(3085.165 -8239.251)" fill="#65b1fc"/>
      <rect id="Rectangle_425651" data-name="Rectangle 425651" width="3.835" height="3.836" transform="translate(3088.9 -8242.985)" fill="#65b1fc"/>
      <rect id="Rectangle_425652" data-name="Rectangle 425652" width="3.836" height="3.836" transform="translate(3096.469 -8242.985)" fill="#65b1fc"/>
      <rect id="Rectangle_425653" data-name="Rectangle 425653" width="3.836" height="3.836" transform="translate(3104.039 -8242.985)" fill="#65b1fc"/>
      <rect id="Rectangle_425654" data-name="Rectangle 425654" width="3.836" height="3.835" transform="translate(3111.61 -8249.343)" fill="#65b1fc"/>
      <rect id="Rectangle_425655" data-name="Rectangle 425655" width="3.836" height="3.835" transform="translate(3104.039 -8249.343)" fill="#65b1fc"/>
      <rect id="Rectangle_425656" data-name="Rectangle 425656" width="3.836" height="3.835" transform="translate(3096.469 -8249.343)" fill="#65b1fc"/>
      <rect id="Rectangle_425657" data-name="Rectangle 425657" width="3.835" height="3.835" transform="translate(3088.9 -8249.343)" fill="#65b1fc"/>
      <rect id="Rectangle_425658" data-name="Rectangle 425658" width="3.835" height="3.836" transform="translate(3120.492 -8239.251)" fill="#65b1fc"/>
      <rect id="Rectangle_425659" data-name="Rectangle 425659" width="3.835" height="3.836" transform="translate(3124.227 -8242.985)" fill="#65b1fc"/>
      <rect id="Rectangle_425660" data-name="Rectangle 425660" width="3.835" height="2.523" transform="translate(3124.227 -8248.738)" fill="#65b1fc"/>
      <rect id="Rectangle_425661" data-name="Rectangle 425661" width="3.835" height="2.523" transform="translate(3120.492 -8248.738)" fill="#87c7ff"/>
      <rect id="Rectangle_425662" data-name="Rectangle 425662" width="3.835" height="3.836" transform="translate(3124.227 -8239.251)" fill="#87c7ff"/>
      <rect id="Rectangle_425663" data-name="Rectangle 425663" width="3.835" height="3.836" transform="translate(3120.492 -8242.985)" fill="#87c7ff"/>
      <rect id="Rectangle_425664" data-name="Rectangle 425664" width="3.836" height="3.836" transform="translate(3104.039 -8239.251)" fill="#87c7ff"/>
      <path id="Path_1491663" data-name="Path 1491663" d="M116.7,144.713v3.734h-7.57v-3.734h7.57Z" transform="translate(2998.748 -8387.698)" fill="#4a7aff"/>
      <rect id="Rectangle_425665" data-name="Rectangle 425665" width="3.836" height="3.836" transform="translate(3100.305 -8242.985)" fill="#87c7ff"/>
      <rect id="Rectangle_425666" data-name="Rectangle 425666" width="3.836" height="3.836" transform="translate(3092.735 -8242.985)" fill="#87c7ff"/>
      <rect id="Rectangle_425667" data-name="Rectangle 425667" width="3.835" height="3.836" transform="translate(3085.165 -8242.985)" fill="#87c7ff"/>
      <rect id="Rectangle_425668" data-name="Rectangle 425668" width="3.835" height="3.835" transform="translate(3107.875 -8249.343)" fill="#87c7ff"/>
      <rect id="Rectangle_425669" data-name="Rectangle 425669" width="3.836" height="3.835" transform="translate(3100.305 -8249.343)" fill="#87c7ff"/>
      <rect id="Rectangle_425670" data-name="Rectangle 425670" width="3.836" height="3.835" transform="translate(3092.735 -8249.343)" fill="#87c7ff"/>
      <rect id="Rectangle_425671" data-name="Rectangle 425671" width="3.835" height="3.835" transform="translate(3085.165 -8249.343)" fill="#87c7ff"/>
      <path id="Path_1491664" data-name="Path 1491664" d="M116.7,117.259v10.8h-3.836v-5.148h-3.836v2.827H105.19V121.2h-3.836v7.368H97.52v-2.826H93.684v9.386h26.546V117.259Z" transform="translate(2998.748 -8387.698)" fill="#ff7058" stroke="#000" stroke-linecap="round" stroke-linejoin="round" stroke-width="2" stroke-dasharray="80 5"/>
      <rect id="Rectangle_425672" data-name="Rectangle 425672" width="3.836" height="7.166" transform="translate(3111.61 -8259.64)" fill="#e04434" stroke="#000" stroke-linecap="round" stroke-linejoin="round" stroke-width="2" stroke-dasharray="80 5"/>
      <rect id="Rectangle_425673" data-name="Rectangle 425673" width="3.836" height="9.387" transform="translate(3104.039 -8261.961)" fill="#e04434" stroke="#000" stroke-linecap="round" stroke-linejoin="round" stroke-width="2" stroke-dasharray="80 5"/>
      <rect id="Rectangle_425674" data-name="Rectangle 425674" width="3.836" height="6.561" transform="translate(3096.469 -8259.034)" fill="#e04434" stroke="#000" stroke-linecap="round" stroke-linejoin="round" stroke-width="2" stroke-dasharray="80 5"/>
      <path id="Path_1491665" data-name="Path 1491665" d="M118.615,103.633l7.57,7.569h-7.57Z" transform="translate(2998.748 -8387.698)" fill="#dddcdb" stroke="#000" stroke-linecap="round" stroke-linejoin="round" stroke-width="2" stroke-dasharray="80 5"/>
      <path id="Path_1491666" data-name="Path 1491666" d="M94.289,124.224a.526.526,0,0,1-.4-.2.749.749,0,0,1,0-.908l8.478-8.479a.752.752,0,0,1,.908,0l3.331,3.33,5.249-5.248a.642.642,0,1,1,.909.908l-5.653,5.653a.752.752,0,0,1-.908,0l-3.331-3.331-8.075,8.075a1.724,1.724,0,0,1-.5.2" transform="translate(2998.748 -8387.698)" fill="#4a7aff"/>
      <path id="Path_1491667" data-name="Path 1491667" d="M112.256,116.249a.651.651,0,0,1-.6-.605v-1.918h-1.918a.605.605,0,1,1,0-1.211h2.523a.65.65,0,0,1,.605.605v2.524a.581.581,0,0,1-.605.605" transform="translate(2998.748 -8387.698)" fill="#2c62c4"/>
    </g>
  </g>
</svg>
