<svg xmlns="http://www.w3.org/2000/svg" width="98" height="97.999" viewBox="0 0 98 97.999">
  <g id="Group_1228962" data-name="Group 1228962" transform="translate(-803.781 -1972.015)">
    <g id="Group_1204143" data-name="Group 1204143" transform="translate(-67.331 1694.852)">
      <g id="Group_1188789" data-name="Group 1188789" transform="translate(871.113 277.164)">
        <path id="Path_1243039" data-name="Path 1243039" d="M41.05,0h0a41.05,41.05,0,0,1,0,82.1h0a41.05,41.05,0,0,1,0-82.1Z" transform="translate(7.951 7.949)" fill="#fdcae3"/>
        <rect id="Rectangle_400907" data-name="Rectangle 400907" width="88.438" height="88.437" rx="44.218" transform="translate(4.782 4.781)" fill="none"/>
        <g id="Group_1098742" data-name="Group 1098742" transform="translate(0)">
          <g id="Rectangle_400898" data-name="Rectangle 400898" transform="translate(0)" fill="none" stroke="#fff" stroke-width="2" opacity="0.859">
            <rect width="98" height="97.999" rx="48.999" stroke="none"/>
            <rect x="1" y="1" width="96" height="95.999" rx="47.999" fill="none"/>
          </g>
          <g id="Rectangle_400907-2" data-name="Rectangle 400907" transform="translate(0)" fill="none" stroke="#0f1f33" stroke-linecap="round" stroke-width="2">
            <rect width="98" height="97.999" rx="48.999" stroke="none"/>
            <rect x="1" y="1" width="96" height="95.999" rx="47.999" fill="none"/>
          </g>
        </g>
      </g>
    </g>
    <g id="Group_1228997" data-name="Group 1228997" transform="translate(-5440.938 -5100.535)">
      <path id="Path_1491833" data-name="Path 1491833" d="M526.839,52.141a1.215,1.215,0,0,1,1.614.6.9.9,0,0,1,.1.505,1.242,1.242,0,0,1-.707,1.111l-1.211.505-1.01-2.221Z" transform="translate(5748.61 7090)" fill="#c6361a" stroke="#000" stroke-linecap="round" stroke-linejoin="round" stroke-width="1" stroke-dasharray="80 5"/>
      <path id="Path_1491834" data-name="Path 1491834" d="M526.738,54.867l1.615,3.634a1.333,1.333,0,0,1-.605,1.716.918.918,0,0,1-.505.1,1.24,1.24,0,0,1-1.11-.707l-2.624-5.753,2.321-1.009Z" transform="translate(5748.61 7090)" fill="#333940" stroke="#000" stroke-linecap="round" stroke-linejoin="round" stroke-width="1" stroke-dasharray="80 5"/>
      <path id="Path_1491835" data-name="Path 1491835" d="M563.983,8.437l.4,3.936,1.817-1.817L565.7,6.72Z" transform="translate(5748.61 7090)" fill="#07cc66" stroke="#000" stroke-linecap="round" stroke-linejoin="round" stroke-width="1" stroke-dasharray="80 5"/>
      <path id="Path_1491836" data-name="Path 1491836" d="M567.919,4.5l.4,3.937L570.14,6.62l-.505-3.836Z" transform="translate(5748.61 7090)" fill="#07cc66" stroke="#000" stroke-linecap="round" stroke-linejoin="round" stroke-width="1" stroke-dasharray="80 5"/>
      <path id="Path_1491837" data-name="Path 1491837" d="M568.625,8.437l3.937.4,1.716-1.715-3.836-.505Z" transform="translate(5748.61 7090)" fill="#19ab5c" stroke="#000" stroke-linecap="round" stroke-linejoin="round" stroke-width="1" stroke-dasharray="80 5"/>
      <path id="Path_1491838" data-name="Path 1491838" d="M564.69,12.373l3.935.4,1.717-1.715-3.836-.505Z" transform="translate(5748.61 7090)" fill="#19ab5c" stroke="#000" stroke-linecap="round" stroke-linejoin="round" stroke-width="1" stroke-dasharray="80 5"/>
      <path id="Path_1491839" data-name="Path 1491839" d="M561.561,15.3a23.981,23.981,0,1,0,.606,33.207,23.966,23.966,0,0,0-.606-33.207" transform="translate(5748.61 7090)" fill="#ff7058" stroke="#000" stroke-linecap="round" stroke-linejoin="round" stroke-width="2" stroke-dasharray="80 5"/>
      <path id="Path_1491840" data-name="Path 1491840" d="M544.6,13.988a18.324,18.324,0,0,0-5.047,35.933,17.971,17.971,0,0,0,10.8-.2A18.339,18.339,0,0,0,544.6,13.988" transform="translate(5748.61 7090)" fill="#f2f2f2" stroke="#000" stroke-linecap="round" stroke-linejoin="round" stroke-width="2" stroke-dasharray="80 5"/>
      <path id="Path_1491841" data-name="Path 1491841" d="M553.889,22.871a13.3,13.3,0,0,0-22.609,9.892,13.378,13.378,0,0,0,6.258,10.8,12.936,12.936,0,0,0,7.469,1.918,13.377,13.377,0,0,0,10.8-6.258,13.19,13.19,0,0,0-1.918-16.351" transform="translate(5748.61 7090)" fill="#ff7058" stroke="#000" stroke-linecap="round" stroke-linejoin="round" stroke-width="2" stroke-dasharray="80 5"/>
      <path id="Path_1491842" data-name="Path 1491842" d="M550.357,26.5a8.208,8.208,0,1,1-11.607,0,8.166,8.166,0,0,1,11.607,0" transform="translate(5748.61 7090)" fill="#f2f2f2" stroke="#000" stroke-linecap="round" stroke-width="2" stroke-dasharray="80 5"/>
      <path id="Path_1491843" data-name="Path 1491843" d="M539.758,48.407l-2.22-4.946-4.543-10.093a1.176,1.176,0,0,0-1.11-.707.907.907,0,0,0-.5.1,1.216,1.216,0,0,0-.6,1.615l-3.534,3.634-3.633,3.734-.909.505-5.45,2.423.706,1.513-.4.2a2.661,2.661,0,0,0-1.615,2.524,4.254,4.254,0,0,0,.2,1.11,2.619,2.619,0,0,0,3.634,1.312l.4-.2.707,1.716,1.009-.505.807,1.716.707-.3,2.322-1.01,1.11-.505-.808-1.716,1.111-.5,1.009-.1,9.084-.606.1.2a1.3,1.3,0,0,0,1.716.606c.1-.1.3-.1.4-.3a1.085,1.085,0,0,0,.3-1.413" transform="translate(5748.61 7090)" fill="#f5ea0a" stroke="#000" stroke-linecap="round" stroke-linejoin="round" stroke-width="2" stroke-dasharray="80 5"/>
      <path id="Path_1491844" data-name="Path 1491844" d="M526.132,50.426l.707,1.716-1.11.6-2.322,1.01-.707.3-.807-1.716Z" transform="translate(5748.61 7090)" fill="#ffd15c"/>
      <path id="Path_1491845" data-name="Path 1491845" d="M539.557,49.921a1.391,1.391,0,0,1-.4.3,1.333,1.333,0,0,1-1.716-.606v-.3l-6.661-14.837a1.216,1.216,0,0,1,.6-1.616.915.915,0,0,1,.5-.1,1.24,1.24,0,0,1,1.11.706l4.543,10.094,2.22,4.945a1.242,1.242,0,0,1-.2,1.413" transform="translate(5748.61 7090)" fill="#efc203" stroke="#000" stroke-linecap="round" stroke-linejoin="round" stroke-width="2" stroke-dasharray="80 5"/>
      <path id="Path_1491846" data-name="Path 1491846" d="M523.609,41.846l3.634,8.074-1.111.5-4.239,1.918-1.009.4-.707-1.614-2.22-4.946-.706-1.514,5.45-2.423Z" transform="translate(5748.61 7090)" fill="#efc203" stroke="#000" stroke-linecap="round" stroke-linejoin="round" stroke-width="2" stroke-dasharray="80 5"/>
      <path id="Path_1491847" data-name="Path 1491847" d="M517.957,46.186l2.221,4.946-.4.2a2.817,2.817,0,0,1-3.633-1.311,2.165,2.165,0,0,1-.2-1.111,2.875,2.875,0,0,1,1.616-2.523Z" transform="translate(5748.61 7090)" fill="#f5ea0a" stroke="#000" stroke-linecap="round" stroke-linejoin="round" stroke-width="2" stroke-dasharray="80 5"/>
      <path id="Path_1491848" data-name="Path 1491848" d="M530.776,34.478l6.661,14.837-9.184.505-1.01.1-3.634-8.074,3.634-3.735Z" transform="translate(5748.61 7090)" fill="#f5ea0a" stroke="#000" stroke-linecap="round" stroke-linejoin="round" stroke-width="2" stroke-dasharray="80 5"/>
      <path id="Path_1491849" data-name="Path 1491849" d="M545.916,31.551a.523.523,0,0,1-.4-.2.754.754,0,0,1,0-.909L571.049,4.905a.749.749,0,0,1,.908,0,.752.752,0,0,1,0,.908L546.32,31.35a.4.4,0,0,1-.4.2" transform="translate(5748.61 7090)" fill="#333940" stroke="#000" stroke-linecap="round" stroke-linejoin="round" stroke-width="1" stroke-dasharray="80 5"/>
      <path id="Path_1491850" data-name="Path 1491850" d="M520.582,46.59a.64.64,0,0,1-.3-1.211l1.817-.808a.61.61,0,0,1,.5,1.111l-1.817.807c-.1.1-.1.1-.2.1" transform="translate(5748.61 7090)" fill="#f5ea0a"/>
      <path id="Path_1491851" data-name="Path 1491851" d="M521.288,48.407a.628.628,0,0,1-.605-.4.635.635,0,0,1,.3-.807l1.918-.909a.61.61,0,1,1,.505,1.11l-1.817.908c-.1,0-.2.1-.3.1" transform="translate(5748.61 7090)" fill="#f5ea0a"/>
      <path id="Path_1491852" data-name="Path 1491852" d="M522.095,50.123a.626.626,0,0,1-.6-.4.635.635,0,0,1,.3-.808l1.817-.808a.61.61,0,0,1,.5,1.111l-1.816.807c0,.1-.1.1-.2.1" transform="translate(5748.61 7090)" fill="#f5ea0a"/>
      <path id="Path_1491853" data-name="Path 1491853" d="M533.7,47.7a.626.626,0,0,1-.6-.4l-3.634-8.076a.609.609,0,0,1,1.11-.5l3.634,8.074a.635.635,0,0,1-.3.807.313.313,0,0,1-.2.1" transform="translate(5748.61 7090)" fill="#efc203"/>
      <path id="Path_1491854" data-name="Path 1491854" d="M530.372,46.287a.625.625,0,0,1-.6-.4l-1.716-3.937a.61.61,0,0,1,1.11-.5l1.716,3.937a.636.636,0,0,1-.3.808c0,.1-.1.1-.2.1" transform="translate(5748.61 7090)" fill="#efc203"/>
    </g>
  </g>
</svg>
