<svg xmlns="http://www.w3.org/2000/svg" width="98" height="97.999" viewBox="0 0 98 97.999">
  <g id="Group_1229057" data-name="Group 1229057" transform="translate(-803.781 -1972.016)">
    <g id="Group_1204143" data-name="Group 1204143" transform="translate(-67.331 1694.852)">
      <g id="Group_1188789" data-name="Group 1188789" transform="translate(871.113 277.164)">
        <path id="Path_1243039" data-name="Path 1243039" d="M41.05,0h0a41.05,41.05,0,0,1,0,82.1h0a41.05,41.05,0,0,1,0-82.1Z" transform="translate(7.951 7.949)" fill="#fdcae3"/>
        <rect id="Rectangle_400907" data-name="Rectangle 400907" width="88.438" height="88.437" rx="44.218" transform="translate(4.782 4.781)" fill="none"/>
        <g id="Group_1098742" data-name="Group 1098742" transform="translate(0)">
          <g id="Rectangle_400898" data-name="Rectangle 400898" transform="translate(0)" fill="none" stroke="#fff" stroke-width="2" opacity="0.859">
            <rect width="98" height="97.999" rx="48.999" stroke="none"/>
            <rect x="1" y="1" width="96" height="95.999" rx="47.999" fill="none"/>
          </g>
          <g id="Rectangle_400907-2" data-name="Rectangle 400907" transform="translate(0)" fill="none" stroke="#0f1f33" stroke-linecap="round" stroke-width="2">
            <rect width="98" height="97.999" rx="48.999" stroke="none"/>
            <rect x="1" y="1" width="96" height="95.999" rx="47.999" fill="none"/>
          </g>
        </g>
      </g>
    </g>
    <g id="Group_1229062" data-name="Group 1229062" transform="translate(-9412.021 7798.255)">
      <g id="Group_1229047" data-name="Group 1229047">
        <path id="Path_1491986" data-name="Path 1491986" d="M407.324,13.972a7.772,7.772,0,1,1-7.773,7.772,7.841,7.841,0,0,1,7.773-7.772m4.541,7.772a4.542,4.542,0,1,0-4.541,4.542,4.523,4.523,0,0,0,4.541-4.542" transform="translate(9865 -5811.5)" fill="#2c4151" stroke="#000" stroke-linecap="round" stroke-linejoin="round" stroke-width="2" stroke-dasharray="80 5"/>
        <path id="Path_1491987" data-name="Path 1491987" d="M391.78,61.108a1.7,1.7,0,0,1-.807,2.221,1.716,1.716,0,0,1-.707.1,1.764,1.764,0,0,1-1.513-1.01l-3.331-7.469,3.027-1.413,1.311,2.927Z" transform="translate(9865 -5811.5)" fill="#333940" stroke="#000" stroke-linecap="round" stroke-linejoin="round" stroke-width="1" stroke-dasharray="80 5"/>
        <path id="Path_1491988" data-name="Path 1491988" d="M390.165,52.932a1.583,1.583,0,0,1,2.119.808,1.266,1.266,0,0,1,.1.6,1.43,1.43,0,0,1-.91,1.414l-1.614.706-1.312-2.927Z" transform="translate(9865 -5811.5)" fill="#f0582f" stroke="#000" stroke-linecap="round" stroke-linejoin="round" stroke-width="1" stroke-dasharray="80 5"/>
        <path id="Path_1491989" data-name="Path 1491989" d="M389.055,50.611l1.009,2.321-1.514.707-3.028,1.312-1.009.5-1.01-2.322Z" transform="translate(9865 -5811.5)" fill="#ffd15c" stroke="#000" stroke-linecap="round" stroke-linejoin="round" stroke-width="1" stroke-dasharray="80 5"/>
        <path id="Path_1491990" data-name="Path 1491990" d="M405.81,38.4a3.556,3.556,0,0,1-1.817,2.624l-3.128-6.863a4.281,4.281,0,0,1,1.11-.2,3.833,3.833,0,0,1,3.835,3.835Z" transform="translate(9865 -5811.5)" fill="#f2f2f2" stroke="#000" stroke-linecap="round" stroke-linejoin="round" stroke-width="2" stroke-dasharray="80 5"/>
        <path id="Path_1491991" data-name="Path 1491991" d="M407.122,47.987l-3.129-6.964-3.129-6.864L398.139,28.1a1.769,1.769,0,0,0-1.514-1.009h-.2c-.2,0-.3.1-.505.1a1.7,1.7,0,0,0-.808,2.221l-9.386,9.791-8.378,3.735.909,1.917-.505.2a3.627,3.627,0,0,0-2.12,3.23,4.047,4.047,0,0,0,.3,1.514,3.587,3.587,0,0,0,4.744,1.817l.505-.2,1.009,2.221,1.312-.606,5.552-2.524,1.513-.706,13.425-.707.1.3a1.671,1.671,0,1,0,3.028-1.413" transform="translate(9865 -5811.5)" fill="#f5ea0a" stroke="#000" stroke-linecap="round" stroke-linejoin="round" stroke-width="2" stroke-dasharray="80 5"/>
        <path id="Path_1491992" data-name="Path 1491992" d="M403.993,41.022l3.129,6.964a1.671,1.671,0,0,1-3.028,1.414l-.1-.3L395.11,29.516a1.7,1.7,0,0,1,.808-2.221.755.755,0,0,1,.505-.1h.2a1.769,1.769,0,0,1,1.514,1.009l2.725,6.056Z" transform="translate(9865 -5811.5)" fill="#efc203" stroke="#000" stroke-linecap="round" stroke-linejoin="round" stroke-width="2" stroke-dasharray="80 5"/>
        <path id="Path_1491993" data-name="Path 1491993" d="M390.569,49.9l-1.514.707L383.5,53.135l-1.312.606-1.01-2.221-2.926-6.561-.91-1.918,8.378-3.835Z" transform="translate(9865 -5811.5)" fill="#efc203" stroke="#000" stroke-linecap="round" stroke-linejoin="round" stroke-width="2" stroke-dasharray="80 5"/>
        <path id="Path_1491994" data-name="Path 1491994" d="M423.977,20.129v3.23l-4.743,1.11a11.9,11.9,0,0,1-1.615,3.836l2.624,4.138-2.221,2.22-4.137-2.624a12.907,12.907,0,0,1-3.836,1.615L408.938,38.4H405.81v-.606a3.834,3.834,0,0,0-3.836-3.835,3.624,3.624,0,0,0-1.11.2L398.139,28.1a1.767,1.767,0,0,0-1.514-1.009h-.2a13.384,13.384,0,0,1-1.01-2.827l-4.743-1.11V20.129l4.743-1.11a11.894,11.894,0,0,1,1.615-3.836L394.4,11.045l2.221-2.221,4.138,2.625A12.884,12.884,0,0,1,404.6,9.834l1.11-4.744h3.229l1.111,4.744a11.882,11.882,0,0,1,3.836,1.615l4.137-2.625,2.221,2.221-2.624,4.138a12.921,12.921,0,0,1,1.615,3.836Zm-8.982,1.615a7.671,7.671,0,1,0-7.671,7.671,7.8,7.8,0,0,0,7.671-7.671" transform="translate(9865 -5811.5)" fill="#40596b" stroke="#000" stroke-linecap="round" stroke-linejoin="round" stroke-width="1" stroke-dasharray="80 5"/>
        <path id="Path_1491995" data-name="Path 1491995" d="M380.98,45.665a.627.627,0,0,1-.605-.4.635.635,0,0,1,.3-.807l3.937-1.817a.61.61,0,0,1,.5,1.111l-3.937,1.816c-.1.1-.1.1-.2.1" transform="translate(9865 -5811.5)" fill="#f5ea0a"/>
        <path id="Path_1491996" data-name="Path 1491996" d="M381.989,47.987a.626.626,0,0,1-.605-.4.636.636,0,0,1,.3-.808l3.937-1.817a.61.61,0,0,1,.5,1.111l-3.936,1.816c0,.1-.1.1-.2.1" transform="translate(9865 -5811.5)" fill="#f5ea0a"/>
        <path id="Path_1491997" data-name="Path 1491997" d="M383,50.308a.628.628,0,0,1-.6-.4.637.637,0,0,1,.3-.808l3.937-1.816a.61.61,0,0,1,.505,1.11L383.2,50.207c0,.1-.1.1-.2.1" transform="translate(9865 -5811.5)" fill="#f5ea0a"/>
        <path id="Path_1491998" data-name="Path 1491998" d="M399.35,46.776a.628.628,0,0,1-.605-.4L394,35.27a.61.61,0,0,1,1.111-.505l4.744,11.1a.637.637,0,0,1-.3.808c0,.1-.1.1-.2.1" transform="translate(9865 -5811.5)" fill="#efc203"/>
        <path id="Path_1491999" data-name="Path 1491999" d="M396.221,44.959a.626.626,0,0,1-.605-.4l-2.221-5.248a.61.61,0,1,1,1.11-.505l2.221,5.249a.636.636,0,0,1-.3.807.349.349,0,0,1-.2.1" transform="translate(9865 -5811.5)" fill="#efc203"/>
      </g>
    </g>
  </g>
</svg>
