<svg xmlns="http://www.w3.org/2000/svg" width="98" height="97.999" viewBox="0 0 98 97.999">
  <g id="Group_1229058" data-name="Group 1229058" transform="translate(-803.781 -1972.016)">
    <g id="Group_1204143" data-name="Group 1204143" transform="translate(-67.331 1694.852)">
      <g id="Group_1188789" data-name="Group 1188789" transform="translate(871.113 277.164)">
        <path id="Path_1243039" data-name="Path 1243039" d="M41.05,0h0a41.05,41.05,0,0,1,0,82.1h0a41.05,41.05,0,0,1,0-82.1Z" transform="translate(7.951 7.949)" fill="#fdcae3"/>
        <rect id="Rectangle_400907" data-name="Rectangle 400907" width="88.438" height="88.437" rx="44.218" transform="translate(4.782 4.781)" fill="none"/>
        <g id="Group_1098742" data-name="Group 1098742" transform="translate(0)">
          <g id="Rectangle_400898" data-name="Rectangle 400898" transform="translate(0)" fill="none" stroke="#fff" stroke-width="2" opacity="0.859">
            <rect width="98" height="97.999" rx="48.999" stroke="none"/>
            <rect x="1" y="1" width="96" height="95.999" rx="47.999" fill="none"/>
          </g>
          <g id="Rectangle_400907-2" data-name="Rectangle 400907" transform="translate(0)" fill="none" stroke="#0f1f33" stroke-linecap="round" stroke-width="2">
            <rect width="98" height="97.999" rx="48.999" stroke="none"/>
            <rect x="1" y="1" width="96" height="95.999" rx="47.999" fill="none"/>
          </g>
        </g>
      </g>
    </g>
    <g id="Group_1229063" data-name="Group 1229063" transform="translate(-9562.553 7796.525)">
      <g id="Group_1229046" data-name="Group 1229046" transform="translate(10384.019 -5803.368)">
        <path id="Path_1491966" data-name="Path 1491966" d="M546.764,20.082a14.638,14.638,0,0,0-10.246,4.226A14.464,14.464,0,0,0,538.567,46.6v3.842a3.117,3.117,0,0,0,3.074,3.074h10.247a3.117,3.117,0,0,0,3.074-3.074V46.6a14.546,14.546,0,0,0-8.2-26.513" transform="translate(-515.385 -4.84)" fill="#87c7ff" stroke="#000" stroke-linecap="round" stroke-linejoin="round" stroke-width="2" stroke-dasharray="80 5"/>
        <path id="Path_1491967" data-name="Path 1491967" d="M556.995,35.3a10.311,10.311,0,1,0-20.622,0h-4.1A14.767,14.767,0,0,1,536.5,24.409a14.32,14.32,0,0,1,10.246-4.227A14.609,14.609,0,0,1,561.222,35.3Z" transform="translate(-515.368 -4.813)" fill="#65b1fc"/>
        <path id="Path_1491968" data-name="Path 1491968" d="M541.623,52.46a3.117,3.117,0,0,1-3.074-3.074V45.544a14.553,14.553,0,0,1-6.275-11.271h4.1A10.331,10.331,0,0,1,546.747,23.9a10.224,10.224,0,0,1,10.247,10.375h4.1a14.558,14.558,0,0,1-6.277,11.271v3.842a3.117,3.117,0,0,1-3.073,3.074Z" transform="translate(-515.366 -3.789)" fill="#87c7ff" stroke="#000" stroke-linecap="round" stroke-linejoin="round" stroke-width="2" stroke-dasharray="80 5"/>
        <path id="Path_1491969" data-name="Path 1491969" d="M543.786,19.787a.826.826,0,0,1-.768-.769V8.9a.768.768,0,1,1,1.536,0V19.018a.825.825,0,0,1-.768.769" transform="translate(-512.407 -8.132)" fill="#ff7058"/>
        <path id="Path_1491970" data-name="Path 1491970" d="M554.508,23.629a.956.956,0,0,1,0-1.153L561.68,15.3a.956.956,0,0,1,1.153,0,.957.957,0,0,1,0,1.152l-7.3,7.173a.778.778,0,0,1-1.024,0" transform="translate(-509.294 -6.209)" fill="#ff7058"/>
        <path id="Path_1491971" data-name="Path 1491971" d="M569.871,33.569H559.753a.768.768,0,0,1,0-1.537h10.118a.826.826,0,0,1,.769.768.738.738,0,0,1-.769.769" transform="translate(-508.008 -1.548)" fill="#ff7058"/>
        <path id="Path_1491972" data-name="Path 1491972" d="M562.191,52.1a.666.666,0,0,1-.511-.256l-7.172-7.172a.815.815,0,0,1,1.152-1.153l7.173,7.172a.959.959,0,0,1,0,1.153.985.985,0,0,1-.642.256" transform="translate(-509.295 1.564)" fill="#ff7058"/>
        <path id="Path_1491973" data-name="Path 1491973" d="M526.8,52.1a.666.666,0,0,1-.511-.256.955.955,0,0,1,0-1.153l7.172-7.172a.815.815,0,0,1,1.153,1.153l-7.173,7.172a2.162,2.162,0,0,1-.64.256" transform="translate(-517.068 1.564)" fill="#ff7058"/>
        <path id="Path_1491974" data-name="Path 1491974" d="M529.906,33.569h-10.12a.768.768,0,0,1,0-1.537h10.12a.826.826,0,0,1,.768.768.738.738,0,0,1-.768.769" transform="translate(-519.018 -1.548)" fill="#ff7058"/>
        <path id="Path_1491975" data-name="Path 1491975" d="M534,23.784a.666.666,0,0,1-.513-.256l-7.3-7.173a.955.955,0,0,1,0-1.153.959.959,0,0,1,1.153,0l7.172,7.173a.952.952,0,0,1,0,1.153c-.127.256-.256.256-.511.256" transform="translate(-517.095 -6.237)" fill="#ff7058"/>
        <path id="Path_1491976" data-name="Path 1491976" d="M547.508,14.487l-2.946,1.921-3.074-1.921a.834.834,0,0,0-.9,1.408l3.458,2.179h.256l3.458-2.179a.833.833,0,0,0,.256-1.152c.384-.385-.127-.513-.513-.256" transform="translate(-513.182 -6.418)" fill="#e04434"/>
        <path id="Path_1491977" data-name="Path 1491977" d="M559.326,22.41l-3.459-.769-.768-3.329a.779.779,0,0,0-1.537.255c.513,2.306.9,3.843.9,3.972s.128.255.256.384c.128,0,.128.128.255.128l3.97.9h.129a.811.811,0,0,0,.768-.64c.258-.384,0-.768-.511-.9" transform="translate(-509.502 -5.504)" fill="#e04434"/>
        <path id="Path_1491978" data-name="Path 1491978" d="M560.677,33.548,562.6,30.6a.835.835,0,0,0-1.409-.9c-2.177,3.587-2.177,3.459-2.3,3.714V33.8l2.177,3.458a.7.7,0,0,0,.64.384.475.475,0,0,0,.385-.128.837.837,0,0,0,.256-1.153Z" transform="translate(-508.036 -2.296)" fill="#e04434"/>
        <path id="Path_1491979" data-name="Path 1491979" d="M559.077,42.58c-4.226.9-4.1.9-4.355,1.024l-.129.129a.125.125,0,0,1-.128.128v.129l-.9,3.969a.779.779,0,1,0,1.537.258l.768-3.459,3.459-.768c.384-.129.769-.513.64-.9-.128-.255-.513-.639-.9-.511" transform="translate(-509.509 1.351)" fill="#e04434"/>
        <path id="Path_1491980" data-name="Path 1491980" d="M533.917,43.735h0l-.256-.256h-.129c-.128,0-1.152-.256-3.969-.9a.779.779,0,0,0-.256,1.537l3.33.769.768,3.458c.128.384.513.768.9.64s.768-.513.64-.9c-.9-4.227-.9-4.1-1.024-4.354" transform="translate(-516.369 1.349)" fill="#e04434"/>
        <path id="Path_1491981" data-name="Path 1491981" d="M529.061,33.42v-.256l-2.178-3.458a.835.835,0,0,0-1.409.9l1.922,2.946-1.922,2.945a.835.835,0,0,0,.258,1.153.47.47,0,0,0,.383.128.7.7,0,0,0,.641-.384c.513-.768,2.05-3.33,2.177-3.458v-.384a.126.126,0,0,0,.129-.129" transform="translate(-517.277 -2.296)" fill="#e04434"/>
        <path id="Path_1491982" data-name="Path 1491982" d="M529.455,23.927h.129l3.84-.9h.258l.127-.128c.129-.129.129-.129.129-.256v-.128l.9-3.843a.779.779,0,0,0-1.537-.256l-.769,3.459-3.33.511a.965.965,0,0,0-.64.9.964.964,0,0,0,.9.64" transform="translate(-516.39 -5.483)" fill="#e04434"/>
        <path id="Path_1491983" data-name="Path 1491983" d="M548.067,31.831a2.432,2.432,0,0,0-2.434,2.432v.769h-1.664v-.769a2.434,2.434,0,1,0-2.434,2.435h.769V50.274a.768.768,0,0,0,1.537,0V36.7h1.792V50.274a.768.768,0,0,0,1.537,0V36.7h.769a2.433,2.433,0,0,0,2.434-2.435,2.325,2.325,0,0,0-2.306-2.432m-7.044,1.921a.831.831,0,0,1,1.409.511v.769h-.769c-.768,0-1.153-.769-.64-1.281m7.044,1.281H547.3v-.769a.768.768,0,0,1,1.537,0,.953.953,0,0,1-.769.769" transform="translate(-513.485 -1.603)" fill="#65b1fc"/>
        <path id="Path_1491984" data-name="Path 1491984" d="M546.58,49.3v.769a2.433,2.433,0,0,1-4.866,0V49.3Z" transform="translate(-512.766 3.21)" fill="#22282d" stroke="#000" stroke-linecap="round" stroke-linejoin="round" stroke-width="1" stroke-dasharray="80 5"/>
        <path id="Path_1491985" data-name="Path 1491985" d="M548.424,50.289h-7.172a2.049,2.049,0,1,1,0-4.1h7.172a2.023,2.023,0,0,1,2.05,2.05,2.106,2.106,0,0,1-2.05,2.048" transform="translate(-513.458 2.352)" fill="#333940" stroke="#000" stroke-linecap="round" stroke-linejoin="round" stroke-width="1" stroke-dasharray="80 5"/>
      </g>
    </g>
  </g>
</svg>
