<svg xmlns="http://www.w3.org/2000/svg" width="98" height="97.998" viewBox="0 0 98 97.998">
  <g id="Group_1229105" data-name="Group 1229105" transform="translate(-803.781 -1972.016)">
    <g id="Group_1204143" data-name="Group 1204143" transform="translate(-67.331 1694.852)">
      <g id="Group_1188789" data-name="Group 1188789" transform="translate(871.113 277.164)">
        <path id="Path_1243039" data-name="Path 1243039" d="M41.05,0h0a41.05,41.05,0,0,1,0,82.1h0a41.05,41.05,0,0,1,0-82.1Z" transform="translate(7.951 7.949)" fill="#ffa724"/>
        <rect id="Rectangle_400907" data-name="Rectangle 400907" width="88.438" height="88.437" rx="44.218" transform="translate(4.782 4.781)" fill="none"/>
        <g id="Group_1098742" data-name="Group 1098742" transform="translate(0)">
          <g id="Rectangle_400898" data-name="Rectangle 400898" transform="translate(0)" fill="none" stroke="#fff" stroke-width="2" opacity="0.859">
            <rect width="98" height="97.999" rx="48.999" stroke="none"/>
            <rect x="1" y="1" width="96" height="95.999" rx="47.999" fill="none"/>
          </g>
          <g id="Rectangle_400907-2" data-name="Rectangle 400907" transform="translate(0)" fill="none" stroke="#0f1f33" stroke-linecap="round" stroke-width="2">
            <rect width="98" height="97.999" rx="48.999" stroke="none"/>
            <rect x="1" y="1" width="96" height="95.999" rx="47.999" fill="none"/>
          </g>
        </g>
      </g>
    </g>
    <g id="Group_1229110" data-name="Group 1229110" transform="translate(-6550.314 9028.582)">
      <rect id="Rectangle_434934" data-name="Rectangle 434934" width="41.779" height="56.952" transform="translate(7382.206 -7036.043)" fill="#ecf0f1" stroke="#000" stroke-linecap="round" stroke-linejoin="round" stroke-width="2" stroke-dasharray="80 5"/>
      <path id="Path_1532082" data-name="Path 1532082" d="M589.707,198.559l-2.226-6.171a2.043,2.043,0,0,1,1.113-.3,5.352,5.352,0,0,1,1.315-.1,6.676,6.676,0,1,1-6.676,6.677,5.947,5.947,0,0,1,.4-2.328Z" transform="translate(6810 -7217)" fill="#b53532" stroke="#000" stroke-linecap="round" stroke-linejoin="round" stroke-width="2" stroke-dasharray="80 5"/>
      <path id="Path_1532083" data-name="Path 1532083" d="M587.481,192.388l2.226,6.171-6.07-2.326-1.315-.506a8.1,8.1,0,0,1,4.653-4.653Z" transform="translate(6810 -7217)" fill="#f14742" stroke="#000" stroke-linecap="round" stroke-linejoin="round" stroke-width="2" stroke-dasharray="80 5"/>
      <path id="Path_1532084" data-name="Path 1532084" d="M598.71,211.305v10.116h-3.743V211.305Z" transform="translate(6810 -7217)" fill="#469be0" stroke="#000" stroke-linecap="round" stroke-linejoin="round" stroke-width="2" stroke-dasharray="80 5"/>
      <path id="Path_1532085" data-name="Path 1532085" d="M591.123,213.834v7.587H587.38v-7.587Z" transform="translate(6810 -7217)" fill="#469be0" stroke="#000" stroke-linecap="round" stroke-linejoin="round" stroke-width="2" stroke-dasharray="80 5"/>
      <path id="Path_1532086" data-name="Path 1532086" d="M602.554,209.99v11.432H598.71V209.99Z" transform="translate(6810 -7217)" fill="#65b2fe" stroke="#000" stroke-linecap="round" stroke-linejoin="round" stroke-width="2" stroke-dasharray="80 5"/>
      <path id="Path_1532087" data-name="Path 1532087" d="M594.967,212.519v8.9h-3.844v-8.9Z" transform="translate(6810 -7217)" fill="#65b2fe" stroke="#000" stroke-linecap="round" stroke-linejoin="round" stroke-width="2" stroke-dasharray="80 5"/>
      <rect id="Rectangle_434935" data-name="Rectangle 434935" width="3.844" height="6.373" transform="translate(7393.536 -7001.952)" fill="#65b2fe" stroke="#000" stroke-linecap="round" stroke-linejoin="round" stroke-width="2" stroke-dasharray="80 5"/>
      <path id="Path_1532088" data-name="Path 1532088" d="M602.554,226.479h6.271l-6.372,6.373v-6.373Z" transform="translate(6810 -7217)" fill="#afb9d2"/>
      <path id="Path_1532089" data-name="Path 1532089" d="M608.826,192.288a1.315,1.315,0,1,1-1.315,1.314,1.413,1.413,0,0,1,1.315-1.314" transform="translate(6810 -7217)" fill="#d7deed"/>
      <path id="Path_1532090" data-name="Path 1532090" d="M602.554,234.066h-25.29a1.338,1.338,0,0,1-1.315-1.315V186.015a1.315,1.315,0,0,1,2.63,0v45.522h23.469l5.564-5.564V197.345a1.315,1.315,0,0,1,2.63,0v29.134a1.23,1.23,0,0,1-.405.91l-6.474,6.273a1.249,1.249,0,0,1-.809.4" transform="translate(6810 -7217)" fill="#d7deed"/>
      <path id="Path_1532091" data-name="Path 1532091" d="M589.909,226.479h-6.373a1.315,1.315,0,1,1,0-2.63h6.373a1.339,1.339,0,0,1,1.315,1.316,1.5,1.5,0,0,1-1.315,1.314" transform="translate(6810 -7217)" fill="#bec3c7"/>
      <path id="Path_1532092" data-name="Path 1532092" d="M589.909,230.222h-6.373a1.315,1.315,0,0,1,0-2.63h6.373a1.339,1.339,0,0,1,1.315,1.315,1.407,1.407,0,0,1-1.315,1.315" transform="translate(6810 -7217)" fill="#bec3c7"/>
    </g>
  </g>
</svg>
