<svg xmlns="http://www.w3.org/2000/svg" width="98" height="97.998" viewBox="0 0 98 97.998">
  <g id="Group_1228865" data-name="Group 1228865" transform="translate(-803.781 -1972.016)">
    <g id="Group_1204143" data-name="Group 1204143" transform="translate(-67.331 1694.852)">
      <g id="Group_1188789" data-name="Group 1188789" transform="translate(871.113 277.164)">
        <path id="Path_1243039" data-name="Path 1243039" d="M41.05,0h0a41.05,41.05,0,0,1,0,82.1h0a41.05,41.05,0,0,1,0-82.1Z" transform="translate(7.951 7.949)" fill="#fdcae3"/>
        <rect id="Rectangle_400907" data-name="Rectangle 400907" width="88.438" height="88.437" rx="44.218" transform="translate(4.782 4.781)" fill="none"/>
        <g id="Group_1098742" data-name="Group 1098742" transform="translate(0)">
          <g id="Rectangle_400898" data-name="Rectangle 400898" transform="translate(0)" fill="none" stroke="#fff" stroke-width="2" opacity="0.859">
            <rect width="98" height="97.999" rx="48.999" stroke="none"/>
            <rect x="1" y="1" width="96" height="95.999" rx="47.999" fill="none"/>
          </g>
          <g id="Rectangle_400907-2" data-name="Rectangle 400907" transform="translate(0)" fill="none" stroke="#0f1f33" stroke-linecap="round" stroke-width="2">
            <rect width="98" height="97.999" rx="48.999" stroke="none"/>
            <rect x="1" y="1" width="96" height="95.999" rx="47.999" fill="none"/>
          </g>
        </g>
      </g>
    </g>
    <g id="Group_1228883" data-name="Group 1228883" transform="translate(9934.871 10726.568)">
      <path id="Path_1491283" data-name="Path 1491283" d="M137.25,55.108v5.046H101.923V9.687h5.047V55.108Z" transform="translate(-9207 -8737.346)" fill="#dddcdb" stroke="#000" stroke-linecap="round" stroke-linejoin="round" stroke-width="2" stroke-dasharray="80 5"/>
      <path id="Path_1491284" data-name="Path 1491284" d="M137.149,3.429H106.868V55.208h37.85V11c-2.422-2.321-5.248-5.147-7.569-7.569" transform="translate(-9207 -8737.346)" fill="#f2f2f2" stroke="#000" stroke-linecap="round" stroke-linejoin="round" stroke-width="2" stroke-dasharray="80 5"/>
      <rect id="Rectangle_425529" data-name="Rectangle 425529" width="2.523" height="10.699" transform="translate(-9081.257 -8728.164)" fill="#ff7058"/>
      <rect id="Rectangle_425530" data-name="Rectangle 425530" width="2.524" height="8.176" transform="translate(-9086.304 -8725.641)" fill="#ff7058"/>
      <rect id="Rectangle_425531" data-name="Rectangle 425531" width="2.523" height="12.012" transform="translate(-9091.35 -8729.477)" fill="#ff7058"/>
      <rect id="Rectangle_425532" data-name="Rectangle 425532" width="2.524" height="7.57" transform="translate(-9096.397 -8725.035)" fill="#ff7058"/>
      <path id="Path_1491285" data-name="Path 1491285" d="M147.041,47.84l-2.423-2.423-2.624-2.624.1-.1a.861.861,0,0,0,0-1.313.916.916,0,0,0-.706-.3,1.091,1.091,0,0,0-.707.3l-.706.706-1.414-1.413a10.338,10.338,0,1,0-15.645,1.212l.5.5a10.318,10.318,0,0,0,12.617.707l1.514,1.514-.707.707a.86.86,0,0,0,0,1.312.92.92,0,0,0,.707.3,1.092,1.092,0,0,0,.706-.3l.1-.1,5.047,5.046a2.4,2.4,0,0,0,1.111.606,1.286,1.286,0,0,0,.6.1,2.214,2.214,0,0,0,1.716-.706,2.521,2.521,0,0,0,.2-3.734" transform="translate(-9207 -8737.346)" fill="#555a66" stroke="#000" stroke-linecap="round" stroke-linejoin="round" stroke-width="2" stroke-dasharray="80 5"/>
      <path id="Path_1491286" data-name="Path 1491286" d="M125.743,39.967a1.22,1.22,0,0,1-.5-.5,7.28,7.28,0,1,1,10.295,0,7.18,7.18,0,0,1-9.791.5" transform="translate(-9207 -8737.346)" fill="#87c7ff" stroke="#000" stroke-linecap="round" stroke-linejoin="round" stroke-width="2" stroke-dasharray="80 5"/>
      <path id="Path_1491287" data-name="Path 1491287" d="M140.176,41.986l.707-.706a.914.914,0,0,1,.706-.3,1.093,1.093,0,0,1,.707.3.86.86,0,0,1,0,1.311l-.1.1-3.533,3.532-.3.2a.916.916,0,0,1-.707.3,1.084,1.084,0,0,1-.706-.3.859.859,0,0,1,0-1.312l.706-.706Z" transform="translate(-9207 -8737.346)" fill="#22282d"/>
      <path id="Path_1491288" data-name="Path 1491288" d="M144.719,51.978a2.407,2.407,0,0,1-1.11-.6l-5.046-5.047,3.531-3.533,2.625,2.624,2.422,2.423a2.44,2.44,0,0,1,0,3.533,2.366,2.366,0,0,1-1.716.707c-.3,0-.5-.1-.706-.1" transform="translate(-9207 -8737.346)" fill="#555a66" stroke="#000" stroke-linecap="round" stroke-linejoin="round" stroke-width="2" stroke-dasharray="80 5"/>
      <path id="Path_1491289" data-name="Path 1491289" d="M137.149,3.429,144.718,11h-7.569Z" transform="translate(-9207 -8737.346)" fill="#dddcdb" stroke="#000" stroke-linecap="round" stroke-linejoin="round" stroke-width="2" stroke-dasharray="80 5"/>
      <path id="Path_1491290" data-name="Path 1491290" d="M140.278,52.08a.606.606,0,1,1-.6-.605c.3-.1.6.2.6.605" transform="translate(-9207 -8737.346)" fill="#dddcdb"/>
      <path id="Path_1491291" data-name="Path 1491291" d="M131.4,20.487H106.868a.606.606,0,1,1,0-1.211H131.5a.652.652,0,0,1,.605.606.675.675,0,0,1-.707.6" transform="translate(-9207 -8737.346)" fill="#dddcdb" stroke="#000" stroke-linecap="round" stroke-linejoin="round" stroke-width="2" stroke-dasharray="80 5"/>
      <path id="Path_1491292" data-name="Path 1491292" d="M118.779,47.638a.52.52,0,0,1-.4-.2L114.741,43.8l-3.634,3.633a.642.642,0,1,1-.908-.908l4.139-4.139a.755.755,0,0,1,.908,0l3.634,3.634,11.2-11.2a.642.642,0,1,1,.908.908L119.283,47.436c-.2.1-.3.2-.5.2" transform="translate(-9207 -8737.346)" fill="#f5ea0a" stroke="#000" stroke-linecap="round" stroke-linejoin="round" stroke-width="2" stroke-dasharray="80 5"/>
      <path id="Path_1491293" data-name="Path 1491293" d="M130.184,38.454h0a.6.6,0,0,1-.605-.707l.2-1.817h-1.817a.605.605,0,0,1,0-1.211h2.524c.2,0,.3.1.505.2a.774.774,0,0,1,.2.5l-.3,2.523a.758.758,0,0,1-.706.5" transform="translate(-9207 -8737.346)" fill="#efc203" stroke="#000" stroke-linecap="round" stroke-linejoin="round" stroke-width="2" stroke-dasharray="80 5"/>
      <path id="Path_1491294" data-name="Path 1491294" d="M117.567,38.151H110a.606.606,0,1,1,0-1.212h7.57a.606.606,0,0,1,0,1.212" transform="translate(-9207 -8737.346)" fill="#4a7aff"/>
      <path id="Path_1491295" data-name="Path 1491295" d="M117.567,35.627H110a.606.606,0,1,1,0-1.212h7.57a.606.606,0,0,1,0,1.212" transform="translate(-9207 -8737.346)" fill="#4a7aff"/>
      <path id="Path_1491296" data-name="Path 1491296" d="M117.567,33.1H110a.606.606,0,1,1,0-1.212h7.57a.606.606,0,0,1,0,1.212" transform="translate(-9207 -8737.346)" fill="#4a7aff"/>
      <path id="Path_1491297" data-name="Path 1491297" d="M118.173,30.581H110a.605.605,0,0,1,0-1.211h8.176a.605.605,0,1,1,0,1.211" transform="translate(-9207 -8737.346)" fill="#4a7aff"/>
      <path id="Path_1491298" data-name="Path 1491298" d="M119.485,28.057H110a.605.605,0,1,1,0-1.211h9.488a.605.605,0,0,1,0,1.211" transform="translate(-9207 -8737.346)" fill="#4a7aff"/>
      <path id="Path_1491299" data-name="Path 1491299" d="M121.3,25.534H110a.606.606,0,0,1,0-1.211H121.4a.652.652,0,0,1,.605.606.675.675,0,0,1-.707.6" transform="translate(-9207 -8737.346)" fill="#4a7aff"/>
      <path id="Path_1491300" data-name="Path 1491300" d="M137.755,52.685H106.868a.606.606,0,0,1,0-1.211h30.887a.606.606,0,0,1,0,1.211" transform="translate(-9207 -8737.346)" fill="#dddcdb"/>
    </g>
  </g>
</svg>
