<svg xmlns="http://www.w3.org/2000/svg" width="98" height="97.999" viewBox="0 0 98 97.999">
  <g id="Group_1228862" data-name="Group 1228862" transform="translate(-803.781 -1972.016)">
    <g id="Group_1204143" data-name="Group 1204143" transform="translate(-67.331 1694.852)">
      <g id="Group_1188789" data-name="Group 1188789" transform="translate(871.113 277.164)">
        <path id="Path_1243039" data-name="Path 1243039" d="M41.05,0h0a41.05,41.05,0,0,1,0,82.1h0a41.05,41.05,0,0,1,0-82.1Z" transform="translate(7.951 7.949)" fill="#fdcae3"/>
        <rect id="Rectangle_400907" data-name="Rectangle 400907" width="88.438" height="88.437" rx="44.218" transform="translate(4.782 4.781)" fill="none"/>
        <g id="Group_1098742" data-name="Group 1098742" transform="translate(0)">
          <g id="Rectangle_400898" data-name="Rectangle 400898" transform="translate(0)" fill="none" stroke="#fff" stroke-width="2" opacity="0.859">
            <rect width="98" height="97.999" rx="48.999" stroke="none"/>
            <rect x="1" y="1" width="96" height="95.999" rx="47.999" fill="none"/>
          </g>
          <g id="Rectangle_400907-2" data-name="Rectangle 400907" transform="translate(0)" fill="none" stroke="#0f1f33" stroke-linecap="round" stroke-width="2">
            <rect width="98" height="97.999" rx="48.999" stroke="none"/>
            <rect x="1" y="1" width="96" height="95.999" rx="47.999" fill="none"/>
          </g>
        </g>
      </g>
    </g>
    <g id="Group_1228886" data-name="Group 1228886" transform="translate(9578.376 10731.865)">
      <rect id="Rectangle_425524" data-name="Rectangle 425524" width="35.327" height="49.458" transform="translate(-8749.314 -8733.813)" fill="#d0dce7" stroke="#000" stroke-linecap="round" stroke-linejoin="round" stroke-width="2" stroke-dasharray="80 5"/>
      <path id="Path_1491252" data-name="Path 1491252" d="M501.289,4.946a3.835,3.835,0,1,1-3.836,3.835,3.836,3.836,0,0,1,3.836-3.835" transform="translate(-9207 -8737.346)" fill="#fc6" stroke="#000" stroke-linecap="round" stroke-linejoin="round" stroke-width="2" stroke-dasharray="80 5"/>
      <path id="Path_1491253" data-name="Path 1491253" d="M499.371,30.785h0a9.424,9.424,0,0,0-13.323.6,9.736,9.736,0,0,0-2.422,5.25,9.479,9.479,0,1,0,15.745-5.855" transform="translate(-9207 -8737.346)" fill="#32438c" stroke="#000" stroke-linecap="round" stroke-linejoin="round" stroke-width="2" stroke-dasharray="80 5"/>
      <path id="Path_1491254" data-name="Path 1491254" d="M502.7,29.776a1.584,1.584,0,0,1,0,2.221l-1.312,1.311-6.056,6.057-2.221,2.22-2.221-2.22-1.513-1.515a1.472,1.472,0,0,1,0-2.22,1.584,1.584,0,0,1,2.221,0l1.513,1.514,6.36-6.359,1.008-1.009a1.474,1.474,0,0,1,2.221,0" transform="translate(-9207 -8737.346)" fill="#68ca44" stroke="#000" stroke-linecap="round" stroke-linejoin="round" stroke-width="2" stroke-dasharray="80 5"/>
      <rect id="Rectangle_425525" data-name="Rectangle 425525" width="5.047" height="5.047" transform="translate(-8743.563 -8710.9)" fill="#ff5987" stroke="#000" stroke-linecap="round" stroke-linejoin="round" stroke-width="2" stroke-dasharray="80 5"/>
      <rect id="Rectangle_425526" data-name="Rectangle 425526" width="5.047" height="5.047" transform="translate(-8743.563 -8719.076)" fill="#ff5987" stroke="#000" stroke-linecap="round" stroke-linejoin="round" stroke-width="2" stroke-dasharray="80 5"/>
      <rect id="Rectangle_425527" data-name="Rectangle 425527" width="5.047" height="5.047" transform="translate(-8743.563 -8727.252)" fill="#59d9a4" stroke="#000" stroke-linecap="round" stroke-linejoin="round" stroke-width="2" stroke-dasharray="80 5"/>
      <rect id="Rectangle_425528" data-name="Rectangle 425528" width="35.327" height="5.047" transform="translate(-8749.314 -8737.346)" fill="#57606f" stroke="#000" stroke-linecap="round" stroke-linejoin="round" stroke-width="2" stroke-dasharray="80 5"/>
      <path id="Path_1491255" data-name="Path 1491255" d="M471.614,11.91h12.012a.605.605,0,0,0,0-1.211H471.614a.651.651,0,0,0-.605.606.582.582,0,0,0,.605.6" transform="translate(-9207 -8737.346)" fill="#a0b5c5"/>
      <path id="Path_1491256" data-name="Path 1491256" d="M471.614,15.141h17.058a.605.605,0,1,0,0-1.211H471.614a.651.651,0,0,0-.605.606.582.582,0,0,0,.605.6" transform="translate(-9207 -8737.346)" fill="#a0b5c5"/>
      <path id="Path_1491257" data-name="Path 1491257" d="M471.614,20.188h12.012a.606.606,0,0,0,0-1.212H471.614a.652.652,0,0,0-.605.607.582.582,0,0,0,.605.6" transform="translate(-9207 -8737.346)" fill="#a0b5c5"/>
      <path id="Path_1491258" data-name="Path 1491258" d="M488.672,22H471.614a.606.606,0,0,0,0,1.211h17.058a.606.606,0,1,0,0-1.211" transform="translate(-9207 -8737.346)" fill="#a0b5c5"/>
      <path id="Path_1491259" data-name="Path 1491259" d="M471.614,28.363h6.359a.606.606,0,1,0,0-1.212h-6.359a.651.651,0,0,0-.605.605.582.582,0,0,0,.605.607" transform="translate(-9207 -8737.346)" fill="#a0b5c5"/>
      <path id="Path_1491260" data-name="Path 1491260" d="M482.313,30.28h-10.7a.606.606,0,1,0,0,1.212h10.7a.651.651,0,0,0,.605-.606.582.582,0,0,0-.605-.606" transform="translate(-9207 -8737.346)" fill="#a0b5c5"/>
    </g>
  </g>
</svg>
