<svg xmlns="http://www.w3.org/2000/svg" width="98" height="97.998" viewBox="0 0 98 97.998">
  <g id="Group_1228870" data-name="Group 1228870" transform="translate(-803.781 -1972.016)">
    <g id="Group_1204143" data-name="Group 1204143" transform="translate(-67.331 1694.852)">
      <g id="Group_1188789" data-name="Group 1188789" transform="translate(871.113 277.164)">
        <path id="Path_1243039" data-name="Path 1243039" d="M41.05,0h0a41.05,41.05,0,0,1,0,82.1h0a41.05,41.05,0,0,1,0-82.1Z" transform="translate(7.951 7.949)" fill="#fdcae3"/>
        <rect id="Rectangle_400907" data-name="Rectangle 400907" width="88.438" height="88.437" rx="44.218" transform="translate(4.782 4.781)" fill="none"/>
        <g id="Group_1098742" data-name="Group 1098742" transform="translate(0)">
          <g id="Rectangle_400898" data-name="Rectangle 400898" transform="translate(0)" fill="none" stroke="#fff" stroke-width="2" opacity="0.859">
            <rect width="98" height="97.999" rx="48.999" stroke="none"/>
            <rect x="1" y="1" width="96" height="95.999" rx="47.999" fill="none"/>
          </g>
          <g id="Rectangle_400907-2" data-name="Rectangle 400907" transform="translate(0)" fill="none" stroke="#0f1f33" stroke-linecap="round" stroke-width="2">
            <rect width="98" height="97.999" rx="48.999" stroke="none"/>
            <rect x="1" y="1" width="96" height="95.999" rx="47.999" fill="none"/>
          </g>
        </g>
      </g>
    </g>
    <g id="Group_1228882" data-name="Group 1228882" transform="translate(10031.463 10727.664)">
      <path id="Path_1491301" data-name="Path 1491301" d="M32.736,54.847a.648.648,0,0,1-.6-.6.563.563,0,0,1,.5-.6A23.344,23.344,0,0,0,51.113,34.964c.1-.3.4-.6.7-.5s.6.4.5.7A24.589,24.589,0,0,1,45.59,48.018a24.219,24.219,0,0,1-12.854,6.729Z" transform="translate(-9207 -8737.346)" fill="#f2f2f2" stroke="#000" stroke-linecap="round" stroke-linejoin="round" stroke-width="2" stroke-dasharray="80 5"/>
      <path id="Path_1491302" data-name="Path 1491302" d="M23.9,54.847h-.1a24.586,24.586,0,0,1-12.853-6.728A24.218,24.218,0,0,1,4.217,35.266a.611.611,0,1,1,1.2-.2A23.343,23.343,0,0,0,24.1,53.541c.3.1.6.4.5.7a.734.734,0,0,1-.7.6" transform="translate(-9207 -8737.346)" fill="#f2f2f2" stroke="#000" stroke-linecap="round" stroke-linejoin="round" stroke-width="2" stroke-dasharray="80 5"/>
      <path id="Path_1491303" data-name="Path 1491303" d="M4.921,27.031h-.1c-.3-.1-.6-.4-.5-.7a24.588,24.588,0,0,1,6.728-12.854A24.228,24.228,0,0,1,23.9,6.746a.611.611,0,1,1,.2,1.205A23.1,23.1,0,0,0,5.522,26.529a.739.739,0,0,1-.6.5" transform="translate(-9207 -8737.346)" fill="#f2f2f2" stroke="#000" stroke-linecap="round" stroke-linejoin="round" stroke-width="2" stroke-dasharray="80 5"/>
      <path id="Path_1491304" data-name="Path 1491304" d="M51.716,27.031a.561.561,0,0,1-.6-.5A23.106,23.106,0,0,0,32.636,7.951a.562.562,0,0,1-.5-.6.648.648,0,0,1,.6-.6h.1a24.6,24.6,0,0,1,12.854,6.728,24.22,24.22,0,0,1,6.727,12.854.589.589,0,0,1-.5.7Z" transform="translate(-9207 -8737.346)" fill="#f2f2f2" stroke="#000" stroke-linecap="round" stroke-linejoin="round" stroke-width="2" stroke-dasharray="80 5"/>
      <path id="Path_1491305" data-name="Path 1491305" d="M52.218,26.328a4.419,4.419,0,0,1,0,8.837h-.4A4.466,4.466,0,0,1,47.8,30.747a4.387,4.387,0,0,1,4.017-4.419Z" transform="translate(-9207 -8737.346)" fill="#07cc66" stroke="#000" stroke-linecap="round" stroke-linejoin="round" stroke-width="2" stroke-dasharray="80 5"/>
      <path id="Path_1491306" data-name="Path 1491306" d="M51.213,3.734A4.117,4.117,0,1,1,47.1,7.851a4.117,4.117,0,0,1,4.117-4.117" transform="translate(-9207 -8737.346)" fill="#87c7ff" stroke="#000" stroke-linecap="round" stroke-linejoin="round" stroke-width="2" stroke-dasharray="80 5"/>
      <path id="Path_1491307" data-name="Path 1491307" d="M26.009,35.165H24a4.859,4.859,0,0,1-.3-1.808,4.72,4.72,0,0,1,9.44,0,5.68,5.68,0,0,1-.3,1.808H26.009Z" transform="translate(-9207 -8737.346)" fill="#4a7aff" stroke="#000" stroke-linecap="round" stroke-linejoin="round" stroke-width="2" stroke-dasharray="80 5"/>
      <path id="Path_1491308" data-name="Path 1491308" d="M32.736,7.248a4.464,4.464,0,0,1-4.418,4.017A4.387,4.387,0,0,1,23.9,7.248v-.4a4.418,4.418,0,1,1,8.837,0Z" transform="translate(-9207 -8737.346)" fill="#f5ea0a" stroke="#000" stroke-linecap="round" stroke-linejoin="round" stroke-width="2" stroke-dasharray="80 5"/>
      <path id="Path_1491309" data-name="Path 1491309" d="M32.736,54.144v.4a4.418,4.418,0,0,1-8.837,0v-.4a4.439,4.439,0,0,1,8.837,0" transform="translate(-9207 -8737.346)" fill="#f5ea0a" stroke="#000" stroke-linecap="round" stroke-linejoin="round" stroke-width="2" stroke-dasharray="80 5"/>
      <path id="Path_1491310" data-name="Path 1491310" d="M28.318,24.018a2.309,2.309,0,1,1-2.31,2.31,2.273,2.273,0,0,1,2.31-2.31" transform="translate(-9207 -8737.346)" fill="#ffd5ab" stroke="#000" stroke-linecap="round" stroke-linejoin="round" stroke-width="2" stroke-dasharray="80 5"/>
      <path id="Path_1491311" data-name="Path 1491311" d="M28.318,16.989A13.808,13.808,0,1,0,42.175,30.746,13.885,13.885,0,0,0,28.318,16.989m0,23.8A10.042,10.042,0,1,1,38.359,30.746,10.072,10.072,0,0,1,28.318,40.788" transform="translate(-9207 -8737.346)" fill="#ff7058" stroke="#000" stroke-linecap="round" stroke-linejoin="round" stroke-width="2" stroke-dasharray="80 5"/>
      <path id="Path_1491312" data-name="Path 1491312" d="M6.326,50.83a3.113,3.113,0,1,1-3.113,3.113A3.129,3.129,0,0,1,6.326,50.83" transform="translate(-9207 -8737.346)" fill="#87c7ff" stroke="#000" stroke-linecap="round" stroke-linejoin="round" stroke-width="2" stroke-dasharray="80 5"/>
      <path id="Path_1491313" data-name="Path 1491313" d="M4.82,26.328a4.466,4.466,0,0,1,4.017,4.419A4.387,4.387,0,0,1,4.82,35.165h-.4a4.419,4.419,0,0,1,0-8.837Z" transform="translate(-9207 -8737.346)" fill="#07cc66" stroke="#000" stroke-linecap="round" stroke-linejoin="round" stroke-width="2" stroke-dasharray="80 5"/>
      <path id="Path_1491314" data-name="Path 1491314" d="M28.318,21.307a.648.648,0,0,1-.6-.6V14.378a.6.6,0,0,1,1.206,0V20.7a.648.648,0,0,1-.6.6" transform="translate(-9207 -8737.346)" fill="#333940" stroke="#000" stroke-linecap="round" stroke-linejoin="round" stroke-width="2" stroke-dasharray="80 5"/>
      <path id="Path_1491315" data-name="Path 1491315" d="M28.318,47.717a.648.648,0,0,1-.6-.6V40.788a.6.6,0,0,1,1.206,0v6.326a.648.648,0,0,1-.6.6" transform="translate(-9207 -8737.346)" fill="#333940" stroke="#000" stroke-linecap="round" stroke-linejoin="round" stroke-width="2" stroke-dasharray="80 5"/>
      <path id="Path_1491316" data-name="Path 1491316" d="M44.687,31.349H38.359a.6.6,0,0,1,0-1.205h6.328a.6.6,0,0,1,0,1.205" transform="translate(-9207 -8737.346)" fill="#333940" stroke="#000" stroke-linecap="round" stroke-linejoin="round" stroke-width="2" stroke-dasharray="80 5"/>
      <path id="Path_1491317" data-name="Path 1491317" d="M18.276,31.349H11.95a.6.6,0,1,1,0-1.205h6.326a.6.6,0,1,1,0,1.205" transform="translate(-9207 -8737.346)" fill="#333940" stroke="#000" stroke-linecap="round" stroke-linejoin="round" stroke-width="2" stroke-dasharray="80 5"/>
      <path id="Path_1491318" data-name="Path 1491318" d="M26.61,33.357a.647.647,0,0,0-.6-.6c-.3,0-.7.3-.7.6v1.808H26.61Z" transform="translate(-9207 -8737.346)" fill="#2c62c4" stroke="#000" stroke-linecap="round" stroke-linejoin="round" stroke-width="2" stroke-dasharray="80 5"/>
      <path id="Path_1491319" data-name="Path 1491319" d="M31.33,33.357a.6.6,0,0,0-1.2,0v1.808h1.2Z" transform="translate(-9207 -8737.346)" fill="#2c62c4" stroke="#000" stroke-linecap="round" stroke-linejoin="round" stroke-width="2" stroke-dasharray="80 5"/>
    </g>
  </g>
</svg>
