<svg xmlns="http://www.w3.org/2000/svg" width="98" height="97.999" viewBox="0 0 98 97.999">
  <g id="Group_1229056" data-name="Group 1229056" transform="translate(-803.781 -1972.016)">
    <g id="Group_1204143" data-name="Group 1204143" transform="translate(-67.331 1694.852)">
      <g id="Group_1188789" data-name="Group 1188789" transform="translate(871.113 277.164)">
        <path id="Path_1243039" data-name="Path 1243039" d="M41.05,0h0a41.05,41.05,0,0,1,0,82.1h0a41.05,41.05,0,0,1,0-82.1Z" transform="translate(7.951 7.949)" fill="#fdcae3"/>
        <rect id="Rectangle_400907" data-name="Rectangle 400907" width="88.438" height="88.437" rx="44.218" transform="translate(4.782 4.781)" fill="none"/>
        <g id="Group_1098742" data-name="Group 1098742" transform="translate(0)">
          <g id="Rectangle_400898" data-name="Rectangle 400898" transform="translate(0)" fill="none" stroke="#fff" stroke-width="2" opacity="0.859">
            <rect width="98" height="97.999" rx="48.999" stroke="none"/>
            <rect x="1" y="1" width="96" height="95.999" rx="47.999" fill="none"/>
          </g>
          <g id="Rectangle_400907-2" data-name="Rectangle 400907" transform="translate(0)" fill="none" stroke="#0f1f33" stroke-linecap="round" stroke-width="2">
            <rect width="98" height="97.999" rx="48.999" stroke="none"/>
            <rect x="1" y="1" width="96" height="95.999" rx="47.999" fill="none"/>
          </g>
        </g>
      </g>
    </g>
    <g id="Group_1229059" data-name="Group 1229059" transform="translate(-9040.329 7799.762)">
      <path id="Path_1492017" data-name="Path 1492017" d="M25.94,38.4a2.524,2.524,0,1,1-2.523,2.523A2.5,2.5,0,0,1,25.94,38.4" transform="translate(9865 -5811.5)" fill="#59d9a4" stroke="#000" stroke-linecap="round" stroke-linejoin="round" stroke-width="2" stroke-dasharray="80 5"/>
      <path id="Path_1492018" data-name="Path 1492018" d="M10.8,48.5a3.835,3.835,0,1,1-3.836,3.836A3.835,3.835,0,0,1,10.8,48.5" transform="translate(9865 -5811.5)" fill="#59d9a4" stroke="#000" stroke-linecap="round" stroke-linejoin="round" stroke-width="2" stroke-dasharray="80 5"/>
      <path id="Path_1492019" data-name="Path 1492019" d="M56.221,57.987l-5.552-3.129H35.429A2.5,2.5,0,0,1,32.9,52.335V43.553a2.5,2.5,0,0,1,2.524-2.523H53.6a2.5,2.5,0,0,1,2.523,2.523c.1,1.514.1,13.021.1,14.434" transform="translate(9865 -5811.5)" fill="#ff5987" stroke="#000" stroke-linecap="round" stroke-linejoin="round" stroke-width="2" stroke-dasharray="80 5"/>
      <path id="Path_1492020" data-name="Path 1492020" d="M51.779,11.556V31.844a4.049,4.049,0,0,1-4.037,4.037H11.3L0,42.846V11.556A4.05,4.05,0,0,1,4.038,7.519h43.7a4.049,4.049,0,0,1,4.037,4.037" transform="translate(9865 -5811.5)" fill="#68ca44" stroke="#000" stroke-linecap="round" stroke-linejoin="round" stroke-width="2" stroke-dasharray="80 5"/>
      <path id="Path_1492021" data-name="Path 1492021" d="M7.671,14.484H26.648a.606.606,0,0,0,0-1.211H7.671a.65.65,0,0,0-.605.606.582.582,0,0,0,.605.605" transform="translate(9865 -5811.5)" fill="#4aa525"/>
      <path id="Path_1492022" data-name="Path 1492022" d="M7.671,17.613h36.64a.606.606,0,0,0,0-1.211H7.671a.651.651,0,0,0-.605.606.582.582,0,0,0,.605.605" transform="translate(9865 -5811.5)" fill="#4aa525"/>
      <path id="Path_1492023" data-name="Path 1492023" d="M44.21,19.53H7.671a.605.605,0,1,0,0,1.211h36.64a.651.651,0,0,0,.6-.6c0-.4-.3-.606-.706-.606" transform="translate(9865 -5811.5)" fill="#4aa525"/>
      <path id="Path_1492024" data-name="Path 1492024" d="M44.21,22.66H7.671a.606.606,0,1,0,0,1.211h36.64a.652.652,0,0,0,.6-.606.675.675,0,0,0-.706-.6" transform="translate(9865 -5811.5)" fill="#4aa525"/>
      <path id="Path_1492025" data-name="Path 1492025" d="M44.21,25.788H7.671a.606.606,0,1,0,0,1.211h36.64a.652.652,0,0,0,.6-.606.675.675,0,0,0-.706-.6" transform="translate(9865 -5811.5)" fill="#4aa525"/>
      <path id="Path_1492026" data-name="Path 1492026" d="M44.21,28.917H7.671a.606.606,0,1,0,0,1.211h36.64a.652.652,0,0,0,.6-.606.675.675,0,0,0-.706-.6" transform="translate(9865 -5811.5)" fill="#4aa525"/>
    </g>
  </g>
</svg>
