<svg xmlns="http://www.w3.org/2000/svg" width="98" height="97.998" viewBox="0 0 98 97.998">
  <g id="Group_1228864" data-name="Group 1228864" transform="translate(-803.781 -1972.016)">
    <g id="Group_1204143" data-name="Group 1204143" transform="translate(-67.331 1694.852)">
      <g id="Group_1188789" data-name="Group 1188789" transform="translate(871.113 277.164)">
        <path id="Path_1243039" data-name="Path 1243039" d="M41.05,0h0a41.05,41.05,0,0,1,0,82.1h0a41.05,41.05,0,0,1,0-82.1Z" transform="translate(7.951 7.949)" fill="#fdcae3"/>
        <rect id="Rectangle_400907" data-name="Rectangle 400907" width="88.438" height="88.437" rx="44.218" transform="translate(4.782 4.781)" fill="none"/>
        <g id="Group_1098742" data-name="Group 1098742" transform="translate(0)">
          <g id="Rectangle_400898" data-name="Rectangle 400898" transform="translate(0)" fill="none" stroke="#fff" stroke-width="2" opacity="0.859">
            <rect width="98" height="97.999" rx="48.999" stroke="none"/>
            <rect x="1" y="1" width="96" height="95.999" rx="47.999" fill="none"/>
          </g>
          <g id="Rectangle_400907-2" data-name="Rectangle 400907" transform="translate(0)" fill="none" stroke="#0f1f33" stroke-linecap="round" stroke-width="2">
            <rect width="98" height="97.999" rx="48.999" stroke="none"/>
            <rect x="1" y="1" width="96" height="95.999" rx="47.999" fill="none"/>
          </g>
        </g>
      </g>
    </g>
    <g id="Group_1228884" data-name="Group 1228884" transform="translate(9825.58 10718.518)">
      <path id="Path_1491261" data-name="Path 1491261" d="M244.149,16.746c-7.272-7.5-17.876-3.4-22.117,5.5l-3.434-1h-.3a.971.971,0,0,0-.908.6.744.744,0,0,0,0,.9l4.544,9.5a1.383,1.383,0,0,0,.3.4,2.19,2.19,0,0,0,.505.3,2.091,2.091,0,0,0,1.11,0l9.6-4.5c.1-.1.3-.2.4-.3a.755.755,0,0,0,.2-.4,1.137,1.137,0,0,0-.606-1.2l-3.333-1.4c2.323-5,7.776-11.5,13.937-7.9.3.2.4-.1.1-.5" transform="translate(-9207 -8737.346)" fill="#8da6b4" stroke="#000" stroke-linecap="round" stroke-linejoin="round" stroke-width="2" stroke-dasharray="80 5"/>
      <path id="Path_1491262" data-name="Path 1491262" d="M256.975,26.446v35.3h-9.19v-29.1a95.319,95.319,0,0,0,9.19-6.2" transform="translate(-9207 -8737.346)" fill="#00dd80" stroke="#000" stroke-linecap="round" stroke-linejoin="round" stroke-width="2" stroke-dasharray="80 5"/>
      <path id="Path_1491263" data-name="Path 1491263" d="M238.493,37.546v24.2H229.3v-20.4a76.5,76.5,0,0,0,9.19-3.8" transform="translate(-9207 -8737.346)" fill="#ff9f22" stroke="#000" stroke-linecap="round" stroke-linejoin="round" stroke-width="2" stroke-dasharray="80 5"/>
      <path id="Path_1491264" data-name="Path 1491264" d="M229.3,41.345v20.4h-9.19v-17.8a88.854,88.854,0,0,0,9.19-2.6" transform="translate(-9207 -8737.346)" fill="#ff3939" stroke="#000" stroke-linecap="round" stroke-linejoin="round" stroke-width="2" stroke-dasharray="80 5"/>
      <path id="Path_1491265" data-name="Path 1491265" d="M247.784,32.646v29.1h-9.19v-24.2c3.434-1.6,6.463-3.3,9.19-4.9" transform="translate(-9207 -8737.346)" fill="#6aa9ff" stroke="#000" stroke-linecap="round" stroke-linejoin="round" stroke-width="2" stroke-dasharray="80 5"/>
      <path id="Path_1491266" data-name="Path 1491266" d="M220.112,43.946v17.8h-9.19v-16.8a56.29,56.29,0,0,0,9.19-1" transform="translate(-9207 -8737.346)" fill="#0b799d" stroke="#000" stroke-linecap="round" stroke-linejoin="round" stroke-width="2" stroke-dasharray="80 5"/>
      <path id="Path_1491267" data-name="Path 1491267" d="M259.5,64.246a1.3,1.3,0,1,1-1.313,1.3,1.306,1.306,0,0,1,1.313-1.3" transform="translate(-9207 -8737.346)" fill="#07475d"/>
      <path id="Path_1491268" data-name="Path 1491268" d="M255.662,64.246a1.3,1.3,0,1,1-1.313,1.3,1.306,1.306,0,0,1,1.313-1.3" transform="translate(-9207 -8737.346)" fill="#07475d"/>
      <path id="Path_1491269" data-name="Path 1491269" d="M251.925,64.246a1.3,1.3,0,1,1-1.312,1.3,1.306,1.306,0,0,1,1.312-1.3" transform="translate(-9207 -8737.346)" fill="#07475d"/>
      <path id="Path_1491270" data-name="Path 1491270" d="M248.088,64.246a1.3,1.3,0,1,1-1.313,1.3,1.306,1.306,0,0,1,1.313-1.3" transform="translate(-9207 -8737.346)" fill="#07475d"/>
      <path id="Path_1491271" data-name="Path 1491271" d="M244.351,64.246a1.3,1.3,0,1,1-1.312,1.3,1.305,1.305,0,0,1,1.312-1.3" transform="translate(-9207 -8737.346)" fill="#07475d"/>
      <path id="Path_1491272" data-name="Path 1491272" d="M240.513,64.246a1.3,1.3,0,1,1-1.312,1.3,1.307,1.307,0,0,1,1.312-1.3" transform="translate(-9207 -8737.346)" fill="#07475d"/>
      <path id="Path_1491273" data-name="Path 1491273" d="M236.777,64.246a1.3,1.3,0,1,1-1.313,1.3,1.306,1.306,0,0,1,1.313-1.3" transform="translate(-9207 -8737.346)" fill="#07475d"/>
      <path id="Path_1491274" data-name="Path 1491274" d="M232.939,64.246a1.3,1.3,0,1,1-1.312,1.3,1.306,1.306,0,0,1,1.312-1.3" transform="translate(-9207 -8737.346)" fill="#07475d"/>
      <path id="Path_1491275" data-name="Path 1491275" d="M229.2,64.246a1.3,1.3,0,1,1-1.312,1.3,1.306,1.306,0,0,1,1.312-1.3" transform="translate(-9207 -8737.346)" fill="#07475d"/>
      <path id="Path_1491276" data-name="Path 1491276" d="M225.364,64.246a1.3,1.3,0,1,1-1.314,1.3,1.306,1.306,0,0,1,1.314-1.3" transform="translate(-9207 -8737.346)" fill="#07475d"/>
      <path id="Path_1491277" data-name="Path 1491277" d="M221.627,64.246a1.3,1.3,0,1,1-1.312,1.3,1.307,1.307,0,0,1,1.312-1.3" transform="translate(-9207 -8737.346)" fill="#07475d"/>
      <path id="Path_1491278" data-name="Path 1491278" d="M217.789,64.246a1.3,1.3,0,1,1-1.312,1.3,1.306,1.306,0,0,1,1.312-1.3" transform="translate(-9207 -8737.346)" fill="#07475d"/>
      <path id="Path_1491279" data-name="Path 1491279" d="M214.053,64.246a1.3,1.3,0,1,1-1.312,1.3,1.306,1.306,0,0,1,1.312-1.3" transform="translate(-9207 -8737.346)" fill="#07475d"/>
      <path id="Path_1491280" data-name="Path 1491280" d="M210.215,64.246a1.3,1.3,0,1,1-1.312,1.3,1.306,1.306,0,0,1,1.312-1.3" transform="translate(-9207 -8737.346)" fill="#07475d"/>
      <path id="Path_1491281" data-name="Path 1491281" d="M211.529,41.546a1.162,1.162,0,0,1-1.213-1.2,1.247,1.247,0,0,1,1.213-1.3,54.649,54.649,0,0,0,7.775-.9,60.166,60.166,0,0,0,7.777-2.1c2.524-.9,5.15-2,7.877-3.2,2.627-1.2,5.252-2.7,7.879-4.2a91.126,91.126,0,0,0,7.877-5.3,1.411,1.411,0,0,1,1.817.2,1.376,1.376,0,0,1-.2,1.8,70.009,70.009,0,0,1-8.078,5.4,69.952,69.952,0,0,1-8.08,4.3,76.585,76.585,0,0,1-8.081,3.3,52.386,52.386,0,0,1-8.18,2.2,52.8,52.8,0,0,1-8.381,1" transform="translate(-9207 -8737.346)" fill="#414440" stroke="#000" stroke-linecap="round" stroke-linejoin="round" stroke-width="2" stroke-dasharray="80 5"/>
      <path id="Path_1491282" data-name="Path 1491282" d="M260.712,63.046H207.691a1.3,1.3,0,1,1,0-2.6h53.021a1.3,1.3,0,1,1,0,2.6" transform="translate(-9207 -8737.346)" fill="#414440" stroke="#000" stroke-linecap="round" stroke-linejoin="round" stroke-width="2" stroke-dasharray="80 5"/>
    </g>
  </g>
</svg>
