<svg xmlns="http://www.w3.org/2000/svg" width="98" height="97.998" viewBox="0 0 98 97.998">
  <g id="Group_1228904" data-name="Group 1228904" transform="translate(-803.781 -1972.016)">
    <g id="Group_1204143" data-name="Group 1204143" transform="translate(-67.331 1694.852)">
      <g id="Group_1188789" data-name="Group 1188789" transform="translate(871.113 277.164)">
        <path id="Path_1243039" data-name="Path 1243039" d="M41.05,0h0a41.05,41.05,0,0,1,0,82.1h0a41.05,41.05,0,0,1,0-82.1Z" transform="translate(7.951 7.949)" fill="#ffa724"/>
        <rect id="Rectangle_400907" data-name="Rectangle 400907" width="88.438" height="88.437" rx="44.218" transform="translate(4.782 4.781)" fill="none"/>
        <g id="Group_1098742" data-name="Group 1098742" transform="translate(0)">
          <g id="Rectangle_400898" data-name="Rectangle 400898" transform="translate(0)" fill="none" stroke="#fff" stroke-width="2" opacity="0.859">
            <rect width="98" height="97.999" rx="48.999" stroke="none"/>
            <rect x="1" y="1" width="96" height="95.999" rx="47.999" fill="none"/>
          </g>
          <g id="Rectangle_400907-2" data-name="Rectangle 400907" transform="translate(0)" fill="none" stroke="#0f1f33" stroke-linecap="round" stroke-width="2">
            <rect width="98" height="97.999" rx="48.999" stroke="none"/>
            <rect x="1" y="1" width="96" height="95.999" rx="47.999" fill="none"/>
          </g>
        </g>
      </g>
    </g>
    <g id="Group_1228975" data-name="Group 1228975" transform="translate(-2350.166 10372.432)">
      <path id="Path_1491579" data-name="Path 1491579" d="M218.085,6.981h-30.3l-5.05,2.5,5.05,2.5h35.348v-5Z" transform="translate(2998.748 -8387.698)" fill="#ff9f22" stroke="#000" stroke-linecap="round" stroke-linejoin="round" stroke-width="2" stroke-dasharray="80 5"/>
      <path id="Path_1491580" data-name="Path 1491580" d="M224.347,65.581h-40.4a1.33,1.33,0,0,1-1.313-1.3v-43.7a1.33,1.33,0,0,1,1.313-1.3h40.4a1.33,1.33,0,0,1,1.313,1.3v43.8a1.247,1.247,0,0,1-1.313,1.2m-39.085-2.5h37.873v-41.2H185.262Z" transform="translate(2998.748 -8387.698)" fill="#2b2d2a" stroke="#000" stroke-linecap="round" stroke-linejoin="round" stroke-width="2" stroke-dasharray="80 5"/>
      <path id="Path_1491581" data-name="Path 1491581" d="M191.524,6.981v5h-3.736l-5.05-2.5,5.05-2.5Z" transform="translate(2998.748 -8387.698)" fill="#d38220" stroke="#000" stroke-linecap="round" stroke-linejoin="round" stroke-width="2" stroke-dasharray="80 5"/>
      <rect id="Rectangle_425617" data-name="Rectangle 425617" width="5.05" height="5" transform="translate(3190.272 -8380.717)" fill="#414440" stroke="#000" stroke-linecap="round" stroke-linejoin="round" stroke-width="2" stroke-dasharray="80 5"/>
      <rect id="Rectangle_425618" data-name="Rectangle 425618" width="21.512" height="5" transform="translate(3195.322 -8380.717)" fill="#5a5a5a" stroke="#000" stroke-linecap="round" stroke-linejoin="round" stroke-width="2" stroke-dasharray="80 5"/>
      <rect id="Rectangle_425619" data-name="Rectangle 425619" width="5.05" height="5" transform="translate(3216.833 -8380.717)" fill="#ff9f22" stroke="#000" stroke-linecap="round" stroke-linejoin="round" stroke-width="2" stroke-dasharray="80 5"/>
      <path id="Path_1491582" data-name="Path 1491582" d="M224.347,48.181H180.213v12.5h47.972v-12.5Z" transform="translate(2998.748 -8387.698)" fill="#5a5a5a" stroke="#000" stroke-linecap="round" stroke-linejoin="round" stroke-width="2" stroke-dasharray="80 5"/>
      <path id="Path_1491583" data-name="Path 1491583" d="M224.347,31.981H180.213v12.5h47.972v-12.5Z" transform="translate(2998.748 -8387.698)" fill="#5a5a5a" stroke="#000" stroke-linecap="round" stroke-linejoin="round" stroke-width="2" stroke-dasharray="80 5"/>
      <path id="Path_1491584" data-name="Path 1491584" d="M180.213,15.681v12.5h47.972v-12.5Z" transform="translate(2998.748 -8387.698)" fill="#5a5a5a" stroke="#000" stroke-linecap="round" stroke-linejoin="round" stroke-width="2" stroke-dasharray="80 5"/>
      <rect id="Rectangle_425620" data-name="Rectangle 425620" width="26.561" height="2.5" transform="translate(3196.635 -8334.518)" fill="#ecf0f1" stroke="#000" stroke-linecap="round" stroke-linejoin="round" stroke-width="2" stroke-dasharray="80 5"/>
      <rect id="Rectangle_425621" data-name="Rectangle 425621" width="26.561" height="2.5" transform="translate(3196.635 -8350.717)" fill="#ecf0f1" stroke="#000" stroke-linecap="round" stroke-linejoin="round" stroke-width="2" stroke-dasharray="80 5"/>
      <rect id="Rectangle_425622" data-name="Rectangle 425622" width="26.561" height="2.5" transform="translate(3196.635 -8367.018)" fill="#ecf0f1" stroke="#000" stroke-linecap="round" stroke-linejoin="round" stroke-width="2" stroke-dasharray="80 5"/>
      <rect id="Rectangle_425623" data-name="Rectangle 425623" width="2.525" height="2.5" transform="translate(3190.272 -8334.518)" fill="#ecf0f1"/>
      <rect id="Rectangle_425624" data-name="Rectangle 425624" width="2.525" height="2.5" transform="translate(3190.272 -8350.717)" fill="#ecf0f1"/>
      <rect id="Rectangle_425625" data-name="Rectangle 425625" width="2.525" height="2.5" transform="translate(3190.272 -8367.018)" fill="#ecf0f1"/>
      <rect id="Rectangle_425626" data-name="Rectangle 425626" width="2.524" height="2.5" transform="translate(3186.536 -8334.518)" fill="#ecf0f1"/>
      <rect id="Rectangle_425627" data-name="Rectangle 425627" width="2.524" height="2.5" transform="translate(3186.536 -8350.717)" fill="#ecf0f1"/>
      <rect id="Rectangle_425628" data-name="Rectangle 425628" width="2.524" height="2.5" transform="translate(3186.536 -8367.018)" fill="#ecf0f1"/>
      <rect id="Rectangle_425629" data-name="Rectangle 425629" width="2.525" height="2.5" transform="translate(3182.698 -8334.518)" fill="#ecf0f1"/>
      <rect id="Rectangle_425630" data-name="Rectangle 425630" width="2.525" height="2.5" transform="translate(3182.698 -8350.717)" fill="#ecf0f1"/>
      <rect id="Rectangle_425631" data-name="Rectangle 425631" width="2.525" height="2.5" transform="translate(3182.698 -8367.018)" fill="#ecf0f1"/>
    </g>
  </g>
</svg>
