<svg xmlns="http://www.w3.org/2000/svg" width="98" height="97.998" viewBox="0 0 98 97.998">
  <g id="Group_1229099" data-name="Group 1229099" transform="translate(-803.781 -1972.016)">
    <g id="Group_1204143" data-name="Group 1204143" transform="translate(-67.331 1694.852)">
      <g id="Group_1188789" data-name="Group 1188789" transform="translate(871.113 277.164)">
        <path id="Path_1243039" data-name="Path 1243039" d="M41.05,0h0a41.05,41.05,0,0,1,0,82.1h0a41.05,41.05,0,0,1,0-82.1Z" transform="translate(7.951 7.949)" fill="#ffa724"/>
        <rect id="Rectangle_400907" data-name="Rectangle 400907" width="88.438" height="88.437" rx="44.218" transform="translate(4.782 4.781)" fill="none"/>
        <g id="Group_1098742" data-name="Group 1098742" transform="translate(0)">
          <g id="Rectangle_400898" data-name="Rectangle 400898" transform="translate(0)" fill="none" stroke="#fff" stroke-width="2" opacity="0.859">
            <rect width="98" height="97.999" rx="48.999" stroke="none"/>
            <rect x="1" y="1" width="96" height="95.999" rx="47.999" fill="none"/>
          </g>
          <g id="Rectangle_400907-2" data-name="Rectangle 400907" transform="translate(0)" fill="none" stroke="#0f1f33" stroke-linecap="round" stroke-width="2">
            <rect width="98" height="97.999" rx="48.999" stroke="none"/>
            <rect x="1" y="1" width="96" height="95.999" rx="47.999" fill="none"/>
          </g>
        </g>
      </g>
    </g>
    <g id="Group_1229116" data-name="Group 1229116" transform="translate(-9381.07 4981.104)">
      <path id="Path_1532057" data-name="Path 1532057" d="M159.919,416.235a1.287,1.287,0,0,1-.608-.1,1.334,1.334,0,0,1-.607-1.719l5.058-10.117a1.29,1.29,0,0,1,2.327,1.114l-5.058,10.115a1.369,1.369,0,0,1-1.112.708" transform="translate(10065.74 -3348)" fill="#2d2c2e" stroke="#000" stroke-linecap="round" stroke-linejoin="round" stroke-width="1" stroke-dasharray="80 5"/>
      <path id="Path_1532058" data-name="Path 1532058" d="M176.307,416.235a1.243,1.243,0,0,1-1.113-.708l-5.058-10.115a1.29,1.29,0,0,1,2.326-1.114l5.059,10.117a1.249,1.249,0,0,1-.608,1.719c-.2,0-.4.1-.606.1" transform="translate(10065.74 -3348)" fill="#2d2c2e" stroke="#000" stroke-linecap="round" stroke-linejoin="round" stroke-width="1" stroke-dasharray="80 5"/>
      <path id="Path_1532059" data-name="Path 1532059" d="M168.112,413.707a1.339,1.339,0,0,1-1.315-1.316V404.8a1.315,1.315,0,1,1,2.63,0v7.586a1.339,1.339,0,0,1-1.315,1.316" transform="translate(10065.74 -3348)" fill="#2d2c2e" stroke="#000" stroke-linecap="round" stroke-linejoin="round" stroke-width="1" stroke-dasharray="80 5"/>
      <path id="Path_1532060" data-name="Path 1532060" d="M183.286,372.332a1.276,1.276,0,0,1-.607-.1l-14.567-7.384-14.567,7.284a1.29,1.29,0,0,1-1.113-2.327l15.174-7.587a1.094,1.094,0,0,1,1.113,0l15.174,7.587a1.334,1.334,0,0,1,.607,1.719,1.428,1.428,0,0,1-1.214.81" transform="translate(10065.74 -3348)" fill="#2d2c2e" stroke="#000" stroke-linecap="round" stroke-linejoin="round" stroke-width="2" stroke-dasharray="80 5"/>
      <path id="Path_1532061" data-name="Path 1532061" d="M168.112,372.332a1.339,1.339,0,0,1-1.315-1.315V360.9a1.315,1.315,0,0,1,2.63,0v10.117a1.339,1.339,0,0,1-1.315,1.315" transform="translate(10065.74 -3348)" fill="#3c3b3d" stroke="#000" stroke-linecap="round" stroke-linejoin="round" stroke-width="2" stroke-dasharray="80 5"/>
      <path id="Path_1532062" data-name="Path 1532062" d="M144.138,374.861v25.694a4.641,4.641,0,0,0,4.653,4.654h38.744a4.642,4.642,0,0,0,4.654-4.654V374.861Z" transform="translate(10065.74 -3348)" fill="#ecf0f1" stroke="#000" stroke-linecap="round" stroke-linejoin="round" stroke-width="2" stroke-dasharray="80 5"/>
      <path id="Path_1532063" data-name="Path 1532063" d="M159.413,382.043a9.054,9.054,0,1,1-9,9,10.7,10.7,0,0,1,.506-3.136l8.194,3.136-3.035-8.295a8.972,8.972,0,0,1,1.517-.506,5.922,5.922,0,0,1,1.821-.2" transform="translate(10065.74 -3348)" fill="#b53532" stroke="#000" stroke-linecap="round" stroke-linejoin="round" stroke-width="2" stroke-dasharray="80 5"/>
      <path id="Path_1532064" data-name="Path 1532064" d="M156.175,382.651l3.035,8.3-8.3-3.035-1.821-.708a10.994,10.994,0,0,1,6.373-6.373Z" transform="translate(10065.74 -3348)" fill="#f14742" stroke="#000" stroke-linecap="round" stroke-linejoin="round" stroke-width="2" stroke-dasharray="80 5"/>
      <path id="Path_1532065" data-name="Path 1532065" d="M192.189,374.861H142.822a2.5,2.5,0,0,1-2.528-2.528,2.92,2.92,0,0,1,.707-1.822,2.445,2.445,0,0,1,1.821-.708H193.4a2.5,2.5,0,0,1,2.528,2.53,2.9,2.9,0,0,1-.707,1.82,2.293,2.293,0,0,1-1.821.708Z" transform="translate(10065.74 -3348)" fill="#5b5a57" stroke="#000" stroke-linecap="round" stroke-linejoin="round" stroke-width="2" stroke-dasharray="80 5"/>
      <rect id="Rectangle_434925" data-name="Rectangle 434925" width="15.174" height="2.528" transform="translate(10238.91 -2968.081)" fill="#65b2fe"/>
      <rect id="Rectangle_434926" data-name="Rectangle 434926" width="12.645" height="2.529" transform="translate(10238.91 -2964.338)" fill="#65b2fe"/>
      <rect id="Rectangle_434927" data-name="Rectangle 434927" width="10.116" height="2.528" transform="translate(10238.91 -2960.494)" fill="#65b2fe"/>
      <rect id="Rectangle_434928" data-name="Rectangle 434928" width="7.587" height="2.529" transform="translate(10238.91 -2956.751)" fill="#65b2fe"/>
      <rect id="Rectangle_434929" data-name="Rectangle 434929" width="5.059" height="2.528" transform="translate(10238.91 -2952.907)" fill="#65b2fe"/>
    </g>
  </g>
</svg>
