<svg xmlns="http://www.w3.org/2000/svg" width="98" height="97.999" viewBox="0 0 98 97.999">
  <g id="Group_1228900" data-name="Group 1228900" transform="translate(-803.781 -1972.016)">
    <g id="Group_1204143" data-name="Group 1204143" transform="translate(-67.331 1694.852)">
      <g id="Group_1188789" data-name="Group 1188789" transform="translate(871.113 277.164)">
        <path id="Path_1243039" data-name="Path 1243039" d="M41.05,0h0a41.05,41.05,0,0,1,0,82.1h0a41.05,41.05,0,0,1,0-82.1Z" transform="translate(7.951 7.949)" fill="#ffa724"/>
        <rect id="Rectangle_400907" data-name="Rectangle 400907" width="88.438" height="88.437" rx="44.218" transform="translate(4.782 4.781)" fill="none"/>
        <g id="Group_1098742" data-name="Group 1098742" transform="translate(0)">
          <g id="Rectangle_400898" data-name="Rectangle 400898" transform="translate(0)" fill="none" stroke="#fff" stroke-width="2" opacity="0.859">
            <rect width="98" height="97.999" rx="48.999" stroke="none"/>
            <rect x="1" y="1" width="96" height="95.999" rx="47.999" fill="none"/>
          </g>
          <g id="Rectangle_400907-2" data-name="Rectangle 400907" transform="translate(0)" fill="none" stroke="#0f1f33" stroke-linecap="round" stroke-width="2">
            <rect width="98" height="97.999" rx="48.999" stroke="none"/>
            <rect x="1" y="1" width="96" height="95.999" rx="47.999" fill="none"/>
          </g>
        </g>
      </g>
    </g>
    <g id="Group_1228928" data-name="Group 1228928" transform="translate(1404.243 10410.229)">
      <rect id="Rectangle_425590" data-name="Rectangle 425590" width="3.129" height="8.176" transform="translate(-548.232 -8373.469)" fill="#333940" stroke="#000" stroke-linecap="round" stroke-linejoin="round" stroke-width="2" stroke-dasharray="80 5"/>
      <rect id="Rectangle_425591" data-name="Rectangle 425591" width="3.129" height="8.176" transform="translate(-557.719 -8373.469)" fill="#333940" stroke="#000" stroke-linecap="round" stroke-linejoin="round" stroke-width="2" stroke-dasharray="80 5"/>
      <path id="Path_1491491" data-name="Path 1491491" d="M388.565,56.564H371.2a.605.605,0,1,1,0-1.211h17.461a.652.652,0,0,1,.606.606.756.756,0,0,1-.707.6" transform="translate(-931.245 -8421.251)" fill="#22282d" stroke="#000" stroke-linecap="round" stroke-linejoin="round" stroke-width="2" stroke-dasharray="80 5"/>
      <path id="Path_1491492" data-name="Path 1491492" d="M407.541,11.143A3.863,3.863,0,0,0,403.7,7.51H355.862a3.834,3.834,0,0,0-3.835,3.835v32.9a3.863,3.863,0,0,0,3.835,3.634H403.7a3.834,3.834,0,0,0,3.836-3.835Z" transform="translate(-931.245 -8421.251)" fill="#555a66" stroke="#000" stroke-linecap="round" stroke-linejoin="round" stroke-width="2" stroke-dasharray="80 5"/>
      <path id="Path_1491493" data-name="Path 1491493" d="M400.778,20.732h0a2.952,2.952,0,0,1-3.028-2.927,2.929,2.929,0,0,1-2.927,2.927h-.1a2.929,2.929,0,0,1-2.927-2.927,2.929,2.929,0,0,1-2.927,2.927h-.1a2.929,2.929,0,0,1-2.927-2.927,2.929,2.929,0,0,1-2.928,2.927h-.1a2.929,2.929,0,0,1-2.928-2.927,2.929,2.929,0,0,1-2.927,2.927h-.1a2.929,2.929,0,0,1-2.928-2.927A2.929,2.929,0,0,1,371,20.732h-.1a2.929,2.929,0,0,1-2.928-2.927,2.929,2.929,0,0,1-2.927,2.927h-.1a2.929,2.929,0,0,1-2.927-2.927,2.929,2.929,0,0,1-2.927,2.927h-.1a2.929,2.929,0,0,1-2.927-2.927V40.314h47.944V17.805a3.437,3.437,0,0,1-3.23,2.927" transform="translate(-931.245 -8421.251)" fill="#f2f2f2" stroke="#000" stroke-linecap="round" stroke-linejoin="round" stroke-width="2" stroke-dasharray="80 5"/>
      <path id="Path_1491494" data-name="Path 1491494" d="M403.7,28.4a2.694,2.694,0,0,0-2.725-2.625h-9.791a2.714,2.714,0,0,0-2.725,2.726V45.159a2.714,2.714,0,0,0,2.725,2.725h9.791a2.714,2.714,0,0,0,2.725-2.725V28.4h0" transform="translate(-931.245 -8421.251)" fill="#333940" stroke="#000" stroke-linecap="round" stroke-linejoin="round" stroke-width="2" stroke-dasharray="80 5"/>
      <path id="Path_1491495" data-name="Path 1491495" d="M396.135,42.838a1.312,1.312,0,1,1-1.312,1.311,1.335,1.335,0,0,1,1.312-1.311" transform="translate(-931.245 -8421.251)" fill="#87c7ff"/>
      <path id="Path_1491496" data-name="Path 1491496" d="M401.182,29.01v3.129a1.313,1.313,0,0,1-2.625,0V29.01Z" transform="translate(-931.245 -8421.251)" fill="#e04434"/>
      <path id="Path_1491497" data-name="Path 1491497" d="M398.658,29.01v3.129a1.313,1.313,0,0,1-2.625,0V29.01Z" transform="translate(-931.245 -8421.251)" fill="#ff7058"/>
      <path id="Path_1491498" data-name="Path 1491498" d="M396.135,29.01v3.129a1.312,1.312,0,0,1-2.624,0V29.01Z" transform="translate(-931.245 -8421.251)" fill="#e04434"/>
      <path id="Path_1491499" data-name="Path 1491499" d="M393.612,29.01v3.129a1.313,1.313,0,0,1-2.625,0V29.01Z" transform="translate(-931.245 -8421.251)" fill="#ff7058"/>
      <path id="Path_1491500" data-name="Path 1491500" d="M380.793,43.342a1.28,1.28,0,0,1,.4.909,1.1,1.1,0,0,1-.4.908,1.278,1.278,0,0,1-.908.4,1.336,1.336,0,0,1-1.312-1.312,1.093,1.093,0,0,1,.4-.909,1.5,1.5,0,0,1,.908-.4,1.281,1.281,0,0,1,.908.4" transform="translate(-931.245 -8421.251)" fill="#404651"/>
      <path id="Path_1491501" data-name="Path 1491501" d="M370.9,37.185H360.2a.606.606,0,0,1,0-1.212h10.7a.651.651,0,0,1,.605.606.582.582,0,0,1-.605.606" transform="translate(-931.245 -8421.251)" fill="#4a7aff"/>
      <path id="Path_1491502" data-name="Path 1491502" d="M370.9,34.662H360.2a.606.606,0,0,1,0-1.212h10.7a.651.651,0,0,1,.605.607.582.582,0,0,1-.605.6" transform="translate(-931.245 -8421.251)" fill="#4a7aff"/>
      <path id="Path_1491503" data-name="Path 1491503" d="M370.9,32.139H360.2a.606.606,0,0,1,0-1.212h10.7a.652.652,0,0,1,.605.607.582.582,0,0,1-.605.6" transform="translate(-931.245 -8421.251)" fill="#4a7aff"/>
      <path id="Path_1491504" data-name="Path 1491504" d="M370.9,29.615H360.2a.606.606,0,1,1,0-1.211h10.7a.651.651,0,0,1,.605.606.582.582,0,0,1-.605.6" transform="translate(-931.245 -8421.251)" fill="#4a7aff"/>
      <path id="Path_1491505" data-name="Path 1491505" d="M397.75,11.447H356.064v6.561a2.929,2.929,0,0,0,2.927,2.926h.1a2.93,2.93,0,0,0,2.928-2.926,2.928,2.928,0,0,0,2.926,2.926h.1a2.93,2.93,0,0,0,2.928-2.926,2.929,2.929,0,0,0,2.927,2.926h.1a2.929,2.929,0,0,0,2.928-2.926,2.929,2.929,0,0,0,2.927,2.926h.1a2.929,2.929,0,0,0,2.928-2.926,2.929,2.929,0,0,0,2.927,2.926h.1a2.929,2.929,0,0,0,2.927-2.926,2.929,2.929,0,0,0,2.927,2.926h.1a2.929,2.929,0,0,0,2.927-2.926,2.929,2.929,0,0,0,2.927,2.926h.1a2.929,2.929,0,0,0,2.927-2.926,2.929,2.929,0,0,0,2.927,2.926h.1a2.929,2.929,0,0,0,2.927-2.926V11.447Z" transform="translate(-931.245 -8421.251)" fill="#ff7058" stroke="#000" stroke-linecap="round" stroke-linejoin="round" stroke-width="2" stroke-dasharray="80 5"/>
      <path id="Path_1491506" data-name="Path 1491506" d="M403.7,11.447v6.561a2.929,2.929,0,0,1-2.927,2.926h-.1a2.929,2.929,0,0,1-2.927-2.926V11.447Z" transform="translate(-931.245 -8421.251)" fill="#e04434" stroke="#000" stroke-linecap="round" stroke-linejoin="round" stroke-width="2" stroke-dasharray="80 5"/>
      <path id="Path_1491507" data-name="Path 1491507" d="M397.75,11.447v6.561a2.929,2.929,0,0,1-2.927,2.926h-.1a2.929,2.929,0,0,1-2.927-2.926V11.447Z" transform="translate(-931.245 -8421.251)" fill="#ff7058" stroke="#000" stroke-linecap="round" stroke-linejoin="round" stroke-width="2" stroke-dasharray="80 5"/>
      <path id="Path_1491508" data-name="Path 1491508" d="M391.694,11.447v6.561a2.929,2.929,0,0,1-2.927,2.926h-.1a2.93,2.93,0,0,1-2.928-2.926V11.447Z" transform="translate(-931.245 -8421.251)" fill="#e04434" stroke="#000" stroke-linecap="round" stroke-linejoin="round" stroke-width="2" stroke-dasharray="80 5"/>
      <path id="Path_1491509" data-name="Path 1491509" d="M385.738,11.447v6.561a2.929,2.929,0,0,1-2.927,2.926h-.1a2.929,2.929,0,0,1-2.927-2.926V11.447Z" transform="translate(-931.245 -8421.251)" fill="#ff7058" stroke="#000" stroke-linecap="round" stroke-linejoin="round" stroke-width="2" stroke-dasharray="80 5"/>
      <path id="Path_1491510" data-name="Path 1491510" d="M379.783,11.447v6.561a2.929,2.929,0,0,1-2.927,2.926h-.1a2.929,2.929,0,0,1-2.927-2.926V11.447Z" transform="translate(-931.245 -8421.251)" fill="#e04434" stroke="#000" stroke-linecap="round" stroke-linejoin="round" stroke-width="2" stroke-dasharray="80 5"/>
      <path id="Path_1491511" data-name="Path 1491511" d="M373.728,11.447v6.561a2.929,2.929,0,0,1-2.927,2.926h-.1a2.93,2.93,0,0,1-2.928-2.926V11.447Z" transform="translate(-931.245 -8421.251)" fill="#ff7058" stroke="#000" stroke-linecap="round" stroke-linejoin="round" stroke-width="2" stroke-dasharray="80 5"/>
      <path id="Path_1491512" data-name="Path 1491512" d="M367.772,11.447v6.561a2.929,2.929,0,0,1-2.927,2.926h-.1a2.929,2.929,0,0,1-2.927-2.926V11.447Z" transform="translate(-931.245 -8421.251)" fill="#e04434" stroke="#000" stroke-linecap="round" stroke-linejoin="round" stroke-width="2" stroke-dasharray="80 5"/>
      <path id="Path_1491513" data-name="Path 1491513" d="M361.817,11.447v6.561a2.929,2.929,0,0,1-2.927,2.926h-.1a2.929,2.929,0,0,1-2.927-2.926V11.447Z" transform="translate(-931.245 -8421.251)" fill="#ff7058" stroke="#000" stroke-linecap="round" stroke-linejoin="round" stroke-width="2" stroke-dasharray="80 5"/>
    </g>
  </g>
</svg>
