<svg xmlns="http://www.w3.org/2000/svg" width="98" height="97.999" viewBox="0 0 98 97.999">
  <g id="Group_1229006" data-name="Group 1229006" transform="translate(-803.781 -1972.016)">
    <g id="Group_1204143" data-name="Group 1204143" transform="translate(-67.331 1694.852)">
      <g id="Group_1188789" data-name="Group 1188789" transform="translate(871.113 277.164)">
        <path id="Path_1243039" data-name="Path 1243039" d="M41.05,0h0a41.05,41.05,0,0,1,0,82.1h0a41.05,41.05,0,0,1,0-82.1Z" transform="translate(7.951 7.949)" fill="#ffa724"/>
        <rect id="Rectangle_400907" data-name="Rectangle 400907" width="88.438" height="88.437" rx="44.218" transform="translate(4.782 4.781)" fill="none"/>
        <g id="Group_1098742" data-name="Group 1098742" transform="translate(0)">
          <g id="Rectangle_400898" data-name="Rectangle 400898" transform="translate(0)" fill="none" stroke="#fff" stroke-width="2" opacity="0.859">
            <rect width="98" height="97.999" rx="48.999" stroke="none"/>
            <rect x="1" y="1" width="96" height="95.999" rx="47.999" fill="none"/>
          </g>
          <g id="Rectangle_400907-2" data-name="Rectangle 400907" transform="translate(0)" fill="none" stroke="#0f1f33" stroke-linecap="round" stroke-width="2">
            <rect width="98" height="97.999" rx="48.999" stroke="none"/>
            <rect x="1" y="1" width="96" height="95.999" rx="47.999" fill="none"/>
          </g>
        </g>
      </g>
    </g>
    <g id="Group_1229019" data-name="Group 1229019" transform="translate(-13361.408 7298.623)">
      <path id="Path_1491900" data-name="Path 1491900" d="M162.493,31.5a1.92,1.92,0,0,1,1.922,1.922,1.836,1.836,0,0,1-1.922,1.821H151.669V19.467a1.921,1.921,0,0,1,1.922-1.922,1.86,1.86,0,0,1,1.921,1.922V31.5Z" transform="translate(14063 -5312)" fill="#313a52" stroke="#000" stroke-linecap="round" stroke-linejoin="round" stroke-width="2" stroke-dasharray="80 5"/>
      <path id="Path_1491901" data-name="Path 1491901" d="M180.2,29.583a26.554,26.554,0,1,0-53.108,0A26.237,26.237,0,0,0,136.9,50.118a1.3,1.3,0,1,0,1.619-2.022,23.991,23.991,0,0,1-8.8-17.4h3.135a1.315,1.315,0,0,0,0-2.631h-3.135A23.937,23.937,0,0,1,152.377,5.608V8.744a1.315,1.315,0,1,0,2.63,0V5.608a24.142,24.142,0,0,1,22.66,22.761H174.53a1.315,1.315,0,0,0,0,2.63h3.137a23.978,23.978,0,0,1-22.155,22.66l1.518-1.517a1.288,1.288,0,0,0-1.821-1.822l-3.844,3.845a1.281,1.281,0,0,0,0,1.82l3.844,3.845a1.51,1.51,0,0,0,.911.4,1.237,1.237,0,0,0,.91-.4,1.282,1.282,0,0,0,0-1.821l-1.618-1.922a26.629,26.629,0,0,0,24.783-26.5" transform="translate(14063 -5312)" fill="#3c3b3d" stroke="#000" stroke-linecap="round" stroke-linejoin="round" stroke-width="2" stroke-dasharray="80 5"/>
      <path id="Path_1491939" data-name="Path 1491939" d="M148.486,56.723h-.365V47.7A13.264,13.264,0,0,0,148,46.137c-.182,0-.425.06-.668.06a4.533,4.533,0,0,1-3.584-7.338,11.178,11.178,0,0,0-3.341-1.805,2.016,2.016,0,0,0,.061-.6,3.827,3.827,0,0,0-7.654,0,1.853,1.853,0,0,0,.06.6,11.414,11.414,0,0,0-7.654,10.707V56.9h-.364a2.681,2.681,0,0,0-1.883.782,2.631,2.631,0,0,0-.789,1.865,2.683,2.683,0,0,0,2.672,2.646h23.631a2.674,2.674,0,0,0,1.882-.782,2.624,2.624,0,0,0,.79-1.864,2.725,2.725,0,0,0-2.672-2.827" transform="translate(14063 -5312)" fill="#d38220" stroke="#000" stroke-linecap="round" stroke-linejoin="round" stroke-width="2" stroke-dasharray="80 5"/>
      <path id="Path_1491940" data-name="Path 1491940" d="M148,46.138c-.182,0-.426.06-.668.06a4.534,4.534,0,0,1-3.584-7.339,4.636,4.636,0,0,1,3.584-1.684,4.568,4.568,0,0,1,4.556,4.511A4.5,4.5,0,0,1,148,46.138m1.154-2.166V42.83h-1.033V39.4h-1.336c0,.06-.122.12-.182.18-.122.06-.243.181-.365.241a2.636,2.636,0,0,1-.425.24.768.768,0,0,1-.365.061v1.2a.768.768,0,0,0,.365-.061c.121-.06.243-.06.364-.12l.365-.18a.849.849,0,0,0,.243-.181V42.83h-1.154v1.142Z" transform="translate(14063 -5312)" fill="#00dd80" stroke="#000" stroke-linecap="round" stroke-linejoin="round" stroke-width="1" stroke-dasharray="80 5"/>
      <path id="Path_1491941" data-name="Path 1491941" d="M139.738,62.016v1.143a2.673,2.673,0,0,1-5.346,0V62.016Z" transform="translate(14063 -5312)" fill="#414440" stroke="#000" stroke-linecap="round" stroke-linejoin="round" stroke-width="2" stroke-dasharray="80 5"/>
      <path id="Path_1491942" data-name="Path 1491942" d="M140.528,36.453a1.824,1.824,0,0,1-.061.6,10.986,10.986,0,0,0-3.766-.6,13.023,13.023,0,0,0-3.767.6,2.047,2.047,0,0,1-.06-.6,3.827,3.827,0,0,1,7.654,0" transform="translate(14063 -5312)" fill="#d38220" stroke="#000" stroke-linecap="round" stroke-linejoin="round" stroke-width="2" stroke-dasharray="80 5"/>
      <path id="Path_1491943" data-name="Path 1491943" d="M148.486,56.723a2.683,2.683,0,0,1,2.672,2.647,2.626,2.626,0,0,1-.79,1.864,2.678,2.678,0,0,1-1.882.782h-23.57a2.683,2.683,0,0,1-2.673-2.646,2.626,2.626,0,0,1,.79-1.865,2.679,2.679,0,0,1,1.883-.782h23.57Z" transform="translate(14063 -5312)" fill="#d38220" stroke="#000" stroke-linecap="round" stroke-linejoin="round" stroke-width="2" stroke-dasharray="80 5"/>
      <path id="Path_1491944" data-name="Path 1491944" d="M148,46.137c-.182,0-.425.06-.668.06a4.533,4.533,0,0,1-3.584-7.338,11.178,11.178,0,0,0-3.341-1.805,10.988,10.988,0,0,0-3.767-.6,13.011,13.011,0,0,0-3.766.6,11.411,11.411,0,0,0-7.654,10.707v9.022H148V47.761a4.834,4.834,0,0,0,0-1.624" transform="translate(14063 -5312)" fill="#ff9f22"/>
      <path id="Path_1491945" data-name="Path 1491945" d="M149.154,42.829v1.142h-3.523V42.829h1.154V40.784a.848.848,0,0,1-.243.18c-.121.061-.243.12-.365.18a.857.857,0,0,1-.364.121.779.779,0,0,1-.365.06v-1.2a1.082,1.082,0,0,0,.365-.06,1.552,1.552,0,0,0,.425-.24c.122-.061.243-.181.365-.241a.452.452,0,0,0,.182-.181h1.336v3.429Z" transform="translate(14063 -5312)" fill="#07475d"/>
      <path id="Path_1491946" data-name="Path 1491946" d="M145.813,52.934a.782.782,0,1,1-.79.782.786.786,0,0,1,.79-.782" transform="translate(14063 -5312)" fill="#d38220"/>
      <path id="Path_1491947" data-name="Path 1491947" d="M143.565,52.934a.782.782,0,1,1-.79.782.786.786,0,0,1,.79-.782" transform="translate(14063 -5312)" fill="#d38220"/>
      <path id="Path_1491948" data-name="Path 1491948" d="M141.257,52.994H125.341v1.5h15.976a.755.755,0,1,0-.06-1.5" transform="translate(14063 -5312)" fill="#d38220"/>
    </g>
  </g>
</svg>
