<svg xmlns="http://www.w3.org/2000/svg" width="98" height="97.999" viewBox="0 0 98 97.999">
  <g id="Group_1228898" data-name="Group 1228898" transform="translate(-803.781 -1972.016)">
    <g id="Group_1204143" data-name="Group 1204143" transform="translate(-67.331 1694.852)">
      <g id="Group_1188789" data-name="Group 1188789" transform="translate(871.113 277.164)">
        <path id="Path_1243039" data-name="Path 1243039" d="M41.05,0h0a41.05,41.05,0,0,1,0,82.1h0a41.05,41.05,0,0,1,0-82.1Z" transform="translate(7.951 7.949)" fill="#ffa724"/>
        <rect id="Rectangle_400907" data-name="Rectangle 400907" width="88.438" height="88.437" rx="44.218" transform="translate(4.782 4.781)" fill="none"/>
        <g id="Group_1098742" data-name="Group 1098742" transform="translate(0)">
          <g id="Rectangle_400898" data-name="Rectangle 400898" transform="translate(0)" fill="none" stroke="#fff" stroke-width="2" opacity="0.859">
            <rect width="98" height="97.999" rx="48.999" stroke="none"/>
            <rect x="1" y="1" width="96" height="95.999" rx="47.999" fill="none"/>
          </g>
          <g id="Rectangle_400907-2" data-name="Rectangle 400907" transform="translate(0)" fill="none" stroke="#0f1f33" stroke-linecap="round" stroke-width="2">
            <rect width="98" height="97.999" rx="48.999" stroke="none"/>
            <rect x="1" y="1" width="96" height="95.999" rx="47.999" fill="none"/>
          </g>
        </g>
      </g>
    </g>
    <path id="Path_1491573" data-name="Path 1491573" d="M141.227,58.221V45.576H133.64V37.99h29.438l.808.708.1-.2V58.221H141.227Z" transform="translate(704.187 1991.905)" fill="#eabd8c" stroke="#000" stroke-linecap="round" stroke-linejoin="round" stroke-width="2" stroke-dasharray="80 5"/>
    <path id="Path_1491574" data-name="Path 1491574" d="M136.573,20.893a8.2,8.2,0,0,1-5.665,7.79V32.83H125.85V28.683a8.192,8.192,0,1,1,10.723-7.79" transform="translate(704.187 1991.905)" fill="#fcd884" stroke="#000" stroke-linecap="round" stroke-linejoin="round" stroke-width="2" stroke-dasharray="80 5"/>
    <path id="Path_1491575" data-name="Path 1491575" d="M171.27,4.4a17.723,17.723,0,0,1,1.113,24.986l-8.4,9.206v-.607h-1.012L141.53,18.162l2.528-2.732L139.1,10.17l9-4.754A16.171,16.171,0,0,1,171.27,4.4" transform="translate(704.187 1991.905)" fill="#ffd8a8" stroke="#000" stroke-linecap="round" stroke-linejoin="round" stroke-width="2" stroke-dasharray="80 5"/>
    <rect id="Rectangle_425607" data-name="Rectangle 425607" width="2.529" height="12.645" transform="translate(877.481 2026.049)" fill="#ef727a"/>
    <rect id="Rectangle_425608" data-name="Rectangle 425608" width="2.528" height="2.529" transform="translate(873.637 2042.538)" fill="#ef727a"/>
    <rect id="Rectangle_425609" data-name="Rectangle 425609" width="2.528" height="10.116" transform="translate(873.637 2031.108)" fill="#ef727a"/>
    <rect id="Rectangle_425610" data-name="Rectangle 425610" width="2.529" height="2.529" transform="translate(844.604 1991.959)" fill="#ef727a"/>
    <rect id="Rectangle_425611" data-name="Rectangle 425611" width="2.529" height="2.529" transform="translate(840.76 1991.959)" fill="#ef727a"/>
    <rect id="Rectangle_425612" data-name="Rectangle 425612" width="2.529" height="2.529" transform="translate(837.017 1991.959)" fill="#ef727a"/>
    <rect id="Rectangle_425613" data-name="Rectangle 425613" width="2.529" height="2.529" transform="translate(833.173 1991.959)" fill="#ef727a"/>
    <rect id="Rectangle_425614" data-name="Rectangle 425614" width="2.529" height="2.529" transform="translate(829.43 1999.546)" fill="#ef727a"/>
    <rect id="Rectangle_425615" data-name="Rectangle 425615" width="2.529" height="2.529" transform="translate(829.43 1995.702)" fill="#ef727a"/>
    <rect id="Rectangle_425616" data-name="Rectangle 425616" width="2.529" height="2.529" transform="translate(829.43 1991.959)" fill="#ef727a"/>
    <path id="Path_1491576" data-name="Path 1491576" d="M160.042,46.082a1.291,1.291,0,0,0-1.72-.4L141.227,56.7v1.517h2.427L159.738,47.9a1.4,1.4,0,0,0,.3-1.821" transform="translate(704.187 1991.905)" fill="#e8a664" stroke="#000" stroke-linecap="round" stroke-linejoin="round" stroke-width="2" stroke-dasharray="80 5"/>
    <path id="Path_1491577" data-name="Path 1491577" d="M130.3,37.989h-3.845a1.315,1.315,0,0,1,0-2.63H130.3a1.315,1.315,0,0,1,0,2.63" transform="translate(704.187 1991.905)" fill="#5b5a57" stroke="#000" stroke-linecap="round" stroke-linejoin="round" stroke-width="2" stroke-dasharray="80 5"/>
    <path id="Path_1491578" data-name="Path 1491578" d="M131.516,22.108a1.338,1.338,0,0,1-1.315-1.315,1.922,1.922,0,0,0-3.844,0,1.316,1.316,0,0,1-2.631,0,4.451,4.451,0,0,1,8.9,0,1.04,1.04,0,0,1-1.112,1.315" transform="translate(704.187 1991.905)" fill="#eabf6a" stroke="#000" stroke-linecap="round" stroke-linejoin="round" stroke-width="2" stroke-dasharray="80 5"/>
  </g>
</svg>
