<svg xmlns="http://www.w3.org/2000/svg" width="98" height="97.999" viewBox="0 0 98 97.999">
  <g id="Group_1228947" data-name="Group 1228947" transform="translate(-803.781 -1972.016)">
    <g id="Group_1204143" data-name="Group 1204143" transform="translate(-67.331 1694.852)">
      <g id="Group_1188789" data-name="Group 1188789" transform="translate(871.113 277.164)">
        <path id="Path_1243039" data-name="Path 1243039" d="M41.05,0h0a41.05,41.05,0,0,1,0,82.1h0a41.05,41.05,0,0,1,0-82.1Z" transform="translate(7.951 7.949)" fill="#fdcae3"/>
        <rect id="Rectangle_400907" data-name="Rectangle 400907" width="88.438" height="88.437" rx="44.218" transform="translate(4.782 4.781)" fill="none"/>
        <g id="Group_1098742" data-name="Group 1098742" transform="translate(0)">
          <g id="Rectangle_400898" data-name="Rectangle 400898" transform="translate(0)" fill="none" stroke="#fff" stroke-width="2" opacity="0.859">
            <rect width="98" height="97.999" rx="48.999" stroke="none"/>
            <rect x="1" y="1" width="96" height="95.999" rx="47.999" fill="none"/>
          </g>
          <g id="Rectangle_400907-2" data-name="Rectangle 400907" transform="translate(0)" fill="none" stroke="#0f1f33" stroke-linecap="round" stroke-width="2">
            <rect width="98" height="97.999" rx="48.999" stroke="none"/>
            <rect x="1" y="1" width="96" height="95.999" rx="47.999" fill="none"/>
          </g>
        </g>
      </g>
    </g>
    <g id="Group_1228982" data-name="Group 1228982" transform="translate(-2543.595 10279.687)">
      <path id="Path_1491714" data-name="Path 1491714" d="M415.342,121.1a8.142,8.142,0,0,0-8.176,8.176,8.272,8.272,0,0,0,2.927,6.359l-1.211,3.633,4.643-2.019a11.024,11.024,0,0,0,1.817.2,8.176,8.176,0,0,0,0-16.352" transform="translate(2998.748 -8387.698)" fill="#07cc66" stroke="#000" stroke-linecap="round" stroke-linejoin="round" stroke-width="2" stroke-dasharray="80 5"/>
      <path id="Path_1491715" data-name="Path 1491715" d="M390.108,154.11a1.7,1.7,0,0,1-.808,2.221,1.727,1.727,0,0,1-.706.1,1.764,1.764,0,0,1-1.514-1.009l-3.432-7.671,3.028-1.414,1.312,2.928Z" transform="translate(2998.748 -8387.698)" fill="#333940" stroke="#000" stroke-linecap="round" stroke-linejoin="round" stroke-width="2" stroke-dasharray="80 5"/>
      <path id="Path_1491716" data-name="Path 1491716" d="M388.291,145.732a1.584,1.584,0,0,1,2.12.808,1.279,1.279,0,0,1,.1.605,1.429,1.429,0,0,1-.909,1.413l-1.615.707-1.312-2.928Z" transform="translate(2998.748 -8387.698)" fill="#f0582f" stroke="#000" stroke-linecap="round" stroke-linejoin="round" stroke-width="2" stroke-dasharray="80 5"/>
      <path id="Path_1491717" data-name="Path 1491717" d="M387.181,143.41l1.009,2.321-1.513.707-3.13,1.413-.908.4-1.009-2.322Z" transform="translate(2998.748 -8387.698)" fill="#ffd15c" stroke="#000" stroke-linecap="round" stroke-linejoin="round" stroke-width="2" stroke-dasharray="80 5"/>
      <path id="Path_1491718" data-name="Path 1491718" d="M405.248,140.786,396.265,120.9a1.768,1.768,0,0,0-1.514-1.008,1.735,1.735,0,0,0-.707.1,1.7,1.7,0,0,0-.807,2.221l-9.387,9.791-8.378,3.734.909,1.918-.505.2a3.63,3.63,0,0,0-2.12,3.231,4.039,4.039,0,0,0,.3,1.513,3.587,3.587,0,0,0,4.744,1.818l.505-.2,1.009,2.22,1.312-.605,5.552-2.524,1.514-.707,13.424-.807.1.3a1.7,1.7,0,0,0,2.22.807,1.523,1.523,0,0,0,.808-2.119" transform="translate(2998.748 -8387.698)" fill="#efc203" stroke="#000" stroke-linecap="round" stroke-linejoin="round" stroke-width="2" stroke-dasharray="80 5"/>
      <path id="Path_1491719" data-name="Path 1491719" d="M405.248,140.786a1.671,1.671,0,1,1-3.028,1.413l-.1-.3-8.882-19.582a1.572,1.572,0,0,1,1.514-2.321,1.768,1.768,0,0,1,1.514,1.01Z" transform="translate(2998.748 -8387.698)" fill="#efc203" stroke="#000" stroke-linecap="round" stroke-linejoin="round" stroke-width="2" stroke-dasharray="80 5"/>
      <path id="Path_1491720" data-name="Path 1491720" d="M383.85,132.106l4.845,10.7-1.514.606-5.551,2.523-1.313.606-1.009-2.221-3.028-6.561-.808-1.918Z" transform="translate(2998.748 -8387.698)" fill="#efc203" stroke="#000" stroke-linecap="round" stroke-linejoin="round" stroke-width="2" stroke-dasharray="80 5"/>
      <path id="Path_1491721" data-name="Path 1491721" d="M393.237,122.315l8.882,19.582L388.7,142.8l-4.845-10.7Z" transform="translate(2998.748 -8387.698)" fill="#f5ea0a" stroke="#000" stroke-linecap="round" stroke-linejoin="round" stroke-width="2" stroke-dasharray="80 5"/>
      <path id="Path_1491722" data-name="Path 1491722" d="M376.28,137.758l2.927,6.561-.505.2a3.587,3.587,0,0,1-4.744-1.817,4.067,4.067,0,0,1-.3-1.514,3.52,3.52,0,0,1,2.12-3.23Z" transform="translate(2998.748 -8387.698)" fill="#f5ea0a" stroke="#000" stroke-linecap="round" stroke-linejoin="round" stroke-width="2" stroke-dasharray="80 5"/>
      <path id="Path_1491723" data-name="Path 1491723" d="M419.379,128.169a1.228,1.228,0,0,1,1.211,1.211,1.166,1.166,0,0,1-1.211,1.212,1.211,1.211,0,0,1,0-2.423" transform="translate(2998.748 -8387.698)" fill="#22282d"/>
      <path id="Path_1491724" data-name="Path 1491724" d="M415.342,128.169a1.227,1.227,0,0,1,1.211,1.211,1.167,1.167,0,0,1-1.211,1.212,1.228,1.228,0,0,1-1.211-1.212,1.166,1.166,0,0,1,1.211-1.211" transform="translate(2998.748 -8387.698)" fill="#22282d"/>
      <path id="Path_1491725" data-name="Path 1491725" d="M411.2,128.169a1.228,1.228,0,0,1,1.211,1.211,1.166,1.166,0,0,1-1.211,1.212,1.228,1.228,0,0,1-1.211-1.212,1.166,1.166,0,0,1,1.211-1.211" transform="translate(2998.748 -8387.698)" fill="#22282d"/>
      <path id="Path_1491726" data-name="Path 1491726" d="M401.413,104.046v8.882a2.456,2.456,0,0,1-2.422,2.423H380.418l-1.715,3.835-1.918-3.835H374.16a2.457,2.457,0,0,1-2.422-2.423v-8.882a2.457,2.457,0,0,1,2.422-2.423h24.73a2.479,2.479,0,0,1,2.523,2.423" transform="translate(2998.748 -8387.698)" fill="#fe6a16" stroke="#000" stroke-linecap="round" stroke-linejoin="round" stroke-width="2" stroke-dasharray="80 5"/>
      <path id="Path_1491727" data-name="Path 1491727" d="M397.678,105.358h-22.1a.605.605,0,1,1,0-1.211h22.1a.605.605,0,0,1,0,1.211" transform="translate(2998.748 -8387.698)" fill="#fff"/>
      <path id="Path_1491728" data-name="Path 1491728" d="M397.678,107.881h-22.1a.605.605,0,1,1,0-1.211h22.1a.605.605,0,0,1,0,1.211" transform="translate(2998.748 -8387.698)" fill="#fff"/>
      <path id="Path_1491729" data-name="Path 1491729" d="M397.678,110.4h-22.1a.605.605,0,1,1,0-1.211h22.1a.605.605,0,0,1,0,1.211" transform="translate(2998.748 -8387.698)" fill="#fff"/>
      <path id="Path_1491730" data-name="Path 1491730" d="M397.678,112.928H388.19a.605.605,0,0,1,0-1.211h9.488a.605.605,0,0,1,0,1.211" transform="translate(2998.748 -8387.698)" fill="#fff"/>
      <path id="Path_1491731" data-name="Path 1491731" d="M379.106,138.566a.626.626,0,0,1-.6-.4.635.635,0,0,1,.3-.807l3.937-1.817a.61.61,0,1,1,.5,1.11l-3.936,1.817a.353.353,0,0,0-.2.1" transform="translate(2998.748 -8387.698)" fill="#f5ea0a"/>
      <path id="Path_1491732" data-name="Path 1491732" d="M380.116,140.786a.629.629,0,0,1-.606-.4.637.637,0,0,1,.3-.808l3.936-1.816a.61.61,0,1,1,.5,1.11l-3.935,1.816c0,.1-.1.1-.2.1" transform="translate(2998.748 -8387.698)" fill="#f5ea0a"/>
      <path id="Path_1491733" data-name="Path 1491733" d="M381.125,143.108a.627.627,0,0,1-.605-.4.635.635,0,0,1,.3-.808l3.937-1.817a.61.61,0,1,1,.5,1.11l-3.936,1.817c0,.1-.1.1-.2.1" transform="translate(2998.748 -8387.698)" fill="#f5ea0a"/>
      <path id="Path_1491734" data-name="Path 1491734" d="M397.476,139.574a.626.626,0,0,1-.605-.4l-4.745-11.1a.61.61,0,1,1,1.111-.5l4.743,11.1a.635.635,0,0,1-.3.807c-.1.1-.1.1-.2.1" transform="translate(2998.748 -8387.698)" fill="#efc203"/>
      <path id="Path_1491735" data-name="Path 1491735" d="M394.347,137.758a.629.629,0,0,1-.606-.4l-2.22-5.249a.61.61,0,1,1,1.11-.505l2.22,5.249a.635.635,0,0,1-.3.807c0,.1-.1.1-.2.1" transform="translate(2998.748 -8387.698)" fill="#efc203"/>
    </g>
  </g>
</svg>
