<svg xmlns="http://www.w3.org/2000/svg" width="98" height="97.999" viewBox="0 0 98 97.999">
  <g id="Group_1229011" data-name="Group 1229011" transform="translate(-803.781 -1972.016)">
    <g id="Group_1204143" data-name="Group 1204143" transform="translate(-67.331 1694.852)">
      <g id="Group_1188789" data-name="Group 1188789" transform="translate(871.113 277.164)">
        <path id="Path_1243039" data-name="Path 1243039" d="M41.05,0h0a41.05,41.05,0,0,1,0,82.1h0a41.05,41.05,0,0,1,0-82.1Z" transform="translate(7.951 7.949)" fill="#ffa724"/>
        <rect id="Rectangle_400907" data-name="Rectangle 400907" width="88.438" height="88.437" rx="44.218" transform="translate(4.782 4.781)" fill="none"/>
        <g id="Group_1098742" data-name="Group 1098742" transform="translate(0)">
          <g id="Rectangle_400898" data-name="Rectangle 400898" transform="translate(0)" fill="none" stroke="#fff" stroke-width="2" opacity="0.859">
            <rect width="98" height="97.999" rx="48.999" stroke="none"/>
            <rect x="1" y="1" width="96" height="95.999" rx="47.999" fill="none"/>
          </g>
          <g id="Rectangle_400907-2" data-name="Rectangle 400907" transform="translate(0)" fill="none" stroke="#0f1f33" stroke-linecap="round" stroke-width="2">
            <rect width="98" height="97.999" rx="48.999" stroke="none"/>
            <rect x="1" y="1" width="96" height="95.999" rx="47.999" fill="none"/>
          </g>
        </g>
      </g>
    </g>
    <g id="Group_1229021" data-name="Group 1229021" transform="translate(-13643.654 7304.286)">
      <path id="Path_1491883" data-name="Path 1491883" d="M455.589,9.509l-3.338,2.428,1.214,3.945-3.338-2.428-3.237,2.428,1.214-3.945-3.338-2.428h4.147l1.214-3.844,1.315,3.844Z" transform="translate(14063 -5312)" fill="#fcd884" stroke="#000" stroke-linecap="round" stroke-linejoin="round" stroke-width="1" stroke-dasharray="80 5"/>
      <path id="Path_1491884" data-name="Path 1491884" d="M437.18,0l-1.214,3.844h-4.148l3.338,2.427-1.315,3.946,3.339-2.428,3.337,2.428L439.3,6.271l3.237-2.427h-4.047Z" transform="translate(14063 -5312)" fill="#fcd884" stroke="#000" stroke-linecap="round" stroke-linejoin="round" stroke-width="1" stroke-dasharray="80 5"/>
      <path id="Path_1491885" data-name="Path 1491885" d="M429.592,9.509l-3.338,2.428,1.315,3.945-3.338-2.428-3.339,2.428,1.316-3.945-3.339-2.428h4.148l1.214-3.844,1.315,3.844Z" transform="translate(14063 -5312)" fill="#fcd884" stroke="#000" stroke-linecap="round" stroke-linejoin="round" stroke-width="1" stroke-dasharray="80 5"/>
      <path id="Path_1491886" data-name="Path 1491886" d="M429.389,37.732a1.088,1.088,0,0,0,.607-.1,3.63,3.63,0,0,1-.81-1.213,2.7,2.7,0,0,1-.3-1.214v-.3a3.672,3.672,0,0,1,3.743-3.742H438.8a6.266,6.266,0,0,1,1.618.4c2.125,1.012,4.755,3.44,5.159,5.564.911,5.665-.506,7.486-3.945,14.871a9.495,9.495,0,0,1-2.428,2.832l-2.124,1.517a6.135,6.135,0,0,1-3.54,1.113l-16.591-.1a6.045,6.045,0,0,1-5.968-6.07l.1-14.162a3.63,3.63,0,0,0,.81,1.213,3.673,3.673,0,0,0,2.629,1.114,3.819,3.819,0,0,0,3.845-3.743v-.1a3.28,3.28,0,0,0,1.011,1.821A4.038,4.038,0,0,0,422,38.44,3.7,3.7,0,0,0,425.849,35v-.4a3.852,3.852,0,0,0,1.011,2.023,3.285,3.285,0,0,0,2.529,1.113" transform="translate(14063 -5312)" fill="#eabd8c" stroke="#000" stroke-linecap="round" stroke-linejoin="round" stroke-width="2" stroke-dasharray="80 5"/>
      <path id="Path_1491887" data-name="Path 1491887" d="M418.262,35.607h0a3.842,3.842,0,0,1-3.844,3.845,3.507,3.507,0,0,1-2.63-1.114,5.048,5.048,0,0,1-.81-1.213,3.238,3.238,0,0,1-.3-1.416V31.157a3.822,3.822,0,0,1,3.844-3.743,3.889,3.889,0,0,1,3.642,3.135V35.1a1.1,1.1,0,0,0,.1.5" transform="translate(14063 -5312)" fill="#eabd8c" stroke="#000" stroke-linecap="round" stroke-linejoin="round" stroke-width="2" stroke-dasharray="80 5"/>
      <path id="Path_1491888" data-name="Path 1491888" d="M428.884,35.305A3.881,3.881,0,0,0,430,37.631a1.274,1.274,0,0,1-.607.1,3.7,3.7,0,0,1-3.642-3.136V27.819a3.744,3.744,0,1,1,7.486.1v3.338h-.607A3.673,3.673,0,0,0,428.884,35v.3Z" transform="translate(14063 -5312)" fill="#eabd8c" stroke="#000" stroke-linecap="round" stroke-linejoin="round" stroke-width="2" stroke-dasharray="80 5"/>
      <path id="Path_1491889" data-name="Path 1491889" d="M425.747,34.6V35a3.708,3.708,0,0,1-3.844,3.44,3.847,3.847,0,0,1-2.63-1.012,3.286,3.286,0,0,1-1.011-1.821v-4.45a1.721,1.721,0,0,0-.1-.708V29.336A3.573,3.573,0,0,1,422,25.9a3.73,3.73,0,0,1,3.743,3.237l-.1,4.856a1.285,1.285,0,0,0,.1.607" transform="translate(14063 -5312)" fill="#ffd8a8" stroke="#000" stroke-linecap="round" stroke-linejoin="round" stroke-width="2" stroke-dasharray="80 5"/>
      <path id="Path_1491890" data-name="Path 1491890" d="M433.233,31.258V27.92h.1V17.905a3.756,3.756,0,0,1,3.844-3.743,3.509,3.509,0,0,1,2.63,1.114,3.671,3.671,0,0,1,1.112,2.629V31.562l-.506.1a3.47,3.47,0,0,0-1.618-.405Z" transform="translate(14063 -5312)" fill="#ffd8a8" stroke="#000" stroke-linecap="round" stroke-linejoin="round" stroke-width="2" stroke-dasharray="80 5"/>
      <rect id="Rectangle_425699" data-name="Rectangle 425699" width="2.529" height="11.431" transform="translate(14516.667 -5267.187)" fill="#ef727a" stroke="#000" stroke-linecap="round" stroke-linejoin="round" stroke-width="1" stroke-dasharray="80 5"/>
      <rect id="Rectangle_425700" data-name="Rectangle 425700" width="2.529" height="29.032" transform="translate(14512.824 -5289.948)" fill="#ef727a" stroke="#000" stroke-linecap="round" stroke-linejoin="round" stroke-width="1" stroke-dasharray="80 5"/>
    </g>
  </g>
</svg>
