<svg xmlns="http://www.w3.org/2000/svg" width="98" height="97.999" viewBox="0 0 98 97.999">
  <g id="Group_1229007" data-name="Group 1229007" transform="translate(-803.781 -1972.016)">
    <g id="Group_1204143" data-name="Group 1204143" transform="translate(-67.331 1694.852)">
      <g id="Group_1188789" data-name="Group 1188789" transform="translate(871.113 277.164)">
        <path id="Path_1243039" data-name="Path 1243039" d="M41.05,0h0a41.05,41.05,0,0,1,0,82.1h0a41.05,41.05,0,0,1,0-82.1Z" transform="translate(7.951 7.949)" fill="#ffa724"/>
        <rect id="Rectangle_400907" data-name="Rectangle 400907" width="88.438" height="88.437" rx="44.218" transform="translate(4.782 4.781)" fill="none"/>
        <g id="Group_1098742" data-name="Group 1098742" transform="translate(0)">
          <g id="Rectangle_400898" data-name="Rectangle 400898" transform="translate(0)" fill="none" stroke="#fff" stroke-width="2" opacity="0.859">
            <rect width="98" height="97.999" rx="48.999" stroke="none"/>
            <rect x="1" y="1" width="96" height="95.999" rx="47.999" fill="none"/>
          </g>
          <g id="Rectangle_400907-2" data-name="Rectangle 400907" transform="translate(0)" fill="none" stroke="#0f1f33" stroke-linecap="round" stroke-width="2">
            <rect width="98" height="97.999" rx="48.999" stroke="none"/>
            <rect x="1" y="1" width="96" height="95.999" rx="47.999" fill="none"/>
          </g>
        </g>
      </g>
    </g>
    <g id="Group_1229018" data-name="Group 1229018" transform="translate(-13237.975 7292.561)">
      <rect id="Rectangle_425705" data-name="Rectangle 425705" width="3.129" height="8.176" transform="translate(14093.886 -5255.8)" fill="#333940" stroke="#000" stroke-linecap="round" stroke-linejoin="round" stroke-width="2" stroke-dasharray="80 5"/>
      <rect id="Rectangle_425706" data-name="Rectangle 425706" width="3.129" height="8.176" transform="translate(14084.398 -5255.8)" fill="#333940" stroke="#000" stroke-linecap="round" stroke-linejoin="round" stroke-width="2" stroke-dasharray="80 5"/>
      <path id="Path_1491907" data-name="Path 1491907" d="M36.538,64.981H19.177a.606.606,0,0,1,0-1.211H36.639a.651.651,0,0,1,.6.606.755.755,0,0,1-.706.605" transform="translate(14063 -5312)" fill="#22282d" stroke="#000" stroke-linecap="round" stroke-linejoin="round" stroke-width="2" stroke-dasharray="80 5"/>
      <path id="Path_1491908" data-name="Path 1491908" d="M51.678,15.928H3.835A3.834,3.834,0,0,0,0,19.763v32.7A3.834,3.834,0,0,0,3.835,56.3H51.678a3.833,3.833,0,0,0,3.835-3.835v-32.7a3.833,3.833,0,0,0-3.835-3.835" transform="translate(14063 -5312)" fill="#555a66" stroke="#000" stroke-linecap="round" stroke-linejoin="round" stroke-width="2" stroke-dasharray="80 5"/>
      <rect id="Rectangle_425707" data-name="Rectangle 425707" width="47.944" height="29.069" transform="translate(14066.734 -5292.238)" fill="#f2f2f2" stroke="#000" stroke-linecap="round" stroke-linejoin="round" stroke-width="2" stroke-dasharray="80 5"/>
      <path id="Path_1491909" data-name="Path 1491909" d="M53.091,33.591H35.125A2.285,2.285,0,0,0,32.8,35.912v10.4a2.284,2.284,0,0,0,2.322,2.321H53.091a2.284,2.284,0,0,0,2.322-2.321v-10.4a2.227,2.227,0,0,0-2.322-2.321" transform="translate(14063 -5312)" fill="#f0582f" stroke="#000" stroke-linecap="round" stroke-linejoin="round" stroke-width="2" stroke-dasharray="80 5"/>
      <path id="Path_1491910" data-name="Path 1491910" d="M45.723,40.454a.848.848,0,0,1,0,1.413L43.4,43.18a.826.826,0,0,1-1.212-.706V39.849a.827.827,0,0,1,1.212-.707Z" transform="translate(14063 -5312)" fill="#f2f2f2" stroke="#000" stroke-linecap="round" stroke-linejoin="round" stroke-width="2" stroke-dasharray="80 5"/>
      <path id="Path_1491911" data-name="Path 1491911" d="M20.691,19.763H6.359a2.606,2.606,0,0,0-2.625,2.624v7.47a2.792,2.792,0,0,0,.3,1.312L10.3,24.911l3.129,3.128,2.826-2.826,6.359,6.36a2.3,2.3,0,0,0,.605-1.616V22.489a2.442,2.442,0,0,0-2.523-2.726" transform="translate(14063 -5312)" fill="#87c7ff" stroke="#000" stroke-linecap="round" stroke-linejoin="round" stroke-width="2" stroke-dasharray="80 5"/>
      <path id="Path_1491912" data-name="Path 1491912" d="M13.222,21.58a1.312,1.312,0,1,1-1.312,1.312,1.41,1.41,0,0,1,1.312-1.312" transform="translate(14063 -5312)" fill="#f5ea0a"/>
      <path id="Path_1491913" data-name="Path 1491913" d="M6.359,32.38a2.509,2.509,0,0,1-2.221-1.312L10.4,24.81l3.129,3.129,2.826-2.827,6.359,6.36a2.542,2.542,0,0,1-2.019.908Z" transform="translate(14063 -5312)" fill="#07cc66" stroke="#000" stroke-linecap="round" stroke-linejoin="round" stroke-width="2" stroke-dasharray="80 5"/>
      <path id="Path_1491914" data-name="Path 1491914" d="M28.766,51.759a1.28,1.28,0,0,1,.4.909,1.1,1.1,0,0,1-.4.908,1.282,1.282,0,0,1-.908.4,1.337,1.337,0,0,1-1.313-1.312,1.1,1.1,0,0,1,.4-.909,1.509,1.509,0,0,1,.909-.4,1.281,1.281,0,0,1,.908.4" transform="translate(14063 -5312)" fill="#404651"/>
      <path id="Path_1491915" data-name="Path 1491915" d="M17.663,30.462a.525.525,0,0,1-.4-.2l-1.312-1.312a.754.754,0,0,1,0-.909c.2-.3.606-.2.908,0l1.312,1.313a.749.749,0,0,1,0,.908,1.693,1.693,0,0,1-.5.2" transform="translate(14063 -5312)" fill="#19ab5c"/>
      <path id="Path_1491916" data-name="Path 1491916" d="M23.316,36.72H6.964a.606.606,0,0,1,0-1.211H23.316a.606.606,0,0,1,0,1.211" transform="translate(14063 -5312)" fill="#4a7aff"/>
      <path id="Path_1491917" data-name="Path 1491917" d="M23.316,39.243H6.964a.605.605,0,0,1,0-1.211H23.316a.605.605,0,0,1,0,1.211" transform="translate(14063 -5312)" fill="#4a7aff"/>
      <path id="Path_1491918" data-name="Path 1491918" d="M23.316,41.766H6.964a.605.605,0,0,1,0-1.211H23.316a.605.605,0,0,1,0,1.211" transform="translate(14063 -5312)" fill="#4a7aff"/>
      <path id="Path_1491919" data-name="Path 1491919" d="M13.828,44.29H6.864a.606.606,0,1,1,0-1.211h6.964a.652.652,0,0,1,.606.606.582.582,0,0,1-.606.6" transform="translate(14063 -5312)" fill="#4a7aff"/>
      <path id="Path_1491920" data-name="Path 1491920" d="M32.8,41.766h1.917a.605.605,0,1,0,0-1.211H32.8Z" transform="translate(14063 -5312)" fill="#c6361a"/>
      <path id="Path_1491921" data-name="Path 1491921" d="M37.245,43.079H32.8V44.39h4.441a.65.65,0,0,0,.6-.6.674.674,0,0,0-.6-.706" transform="translate(14063 -5312)" fill="#c6361a"/>
    </g>
  </g>
</svg>
