<svg xmlns="http://www.w3.org/2000/svg" width="98" height="97.999" viewBox="0 0 98 97.999">
  <g id="Group_1229009" data-name="Group 1229009" transform="translate(-803.781 -1972.016)">
    <g id="Group_1204143" data-name="Group 1204143" transform="translate(-67.331 1694.852)">
      <g id="Group_1188789" data-name="Group 1188789" transform="translate(871.113 277.164)">
        <path id="Path_1243039" data-name="Path 1243039" d="M41.05,0h0a41.05,41.05,0,0,1,0,82.1h0a41.05,41.05,0,0,1,0-82.1Z" transform="translate(7.951 7.949)" fill="#ffa724"/>
        <rect id="Rectangle_400907" data-name="Rectangle 400907" width="88.438" height="88.437" rx="44.218" transform="translate(4.782 4.781)" fill="none"/>
        <g id="Group_1098742" data-name="Group 1098742" transform="translate(0)">
          <g id="Rectangle_400898" data-name="Rectangle 400898" transform="translate(0)" fill="none" stroke="#fff" stroke-width="2" opacity="0.859">
            <rect width="98" height="97.999" rx="48.999" stroke="none"/>
            <rect x="1" y="1" width="96" height="95.999" rx="47.999" fill="none"/>
          </g>
          <g id="Rectangle_400907-2" data-name="Rectangle 400907" transform="translate(0)" fill="none" stroke="#0f1f33" stroke-linecap="round" stroke-width="2">
            <rect width="98" height="97.999" rx="48.999" stroke="none"/>
            <rect x="1" y="1" width="96" height="95.999" rx="47.999" fill="none"/>
          </g>
        </g>
      </g>
    </g>
    <g id="Group_1229022" data-name="Group 1229022" transform="translate(-13776.725 7296.628)">
      <path id="Path_1491922" data-name="Path 1491922" d="M581.646,8.428H551.971l-1.817,16.251h33.41Z" transform="translate(14063 -5312)" fill="#ff5987" stroke="#000" stroke-linecap="round" stroke-linejoin="round" stroke-width="2" stroke-dasharray="80 5"/>
      <path id="Path_1491923" data-name="Path 1491923" d="M583.564,24.679l-8.075,8.074a16.808,16.808,0,0,0-17.259,0l-8.076-7.974c4.341-.1,29.675-.1,33.41-.1" transform="translate(14063 -5312)" fill="#414a56" stroke="#000" stroke-linecap="round" stroke-linejoin="round" stroke-width="2" stroke-dasharray="80 5"/>
      <path id="Path_1491924" data-name="Path 1491924" d="M575.489,8.428l1.11,16.251H557.018l1.11-16.251Z" transform="translate(14063 -5312)" fill="#e83a70" stroke="#000" stroke-linecap="round" stroke-linejoin="round" stroke-width="2" stroke-dasharray="80 5"/>
      <path id="Path_1491925" data-name="Path 1491925" d="M581.646,8.428l1.918,16.251H576.6l-1.11-16.251Z" transform="translate(14063 -5312)" fill="#ff5987" stroke="#000" stroke-linecap="round" stroke-linejoin="round" stroke-width="2" stroke-dasharray="80 5"/>
      <path id="Path_1491926" data-name="Path 1491926" d="M558.129,8.428l-1.11,16.251h-6.864l1.817-16.251Z" transform="translate(14063 -5312)" fill="#ff5987" stroke="#000" stroke-linecap="round" stroke-linejoin="round" stroke-width="2" stroke-dasharray="80 5"/>
      <path id="Path_1491927" data-name="Path 1491927" d="M543.19,32.248a4.441,4.441,0,1,1-4.441,4.441,4.441,4.441,0,0,1,4.441-4.441" transform="translate(14063 -5312)" fill="#68ca44" stroke="#000" stroke-linecap="round" stroke-linejoin="round" stroke-width="2" stroke-dasharray="80 5"/>
      <path id="Path_1491928" data-name="Path 1491928" d="M591.134,25.99a3.129,3.129,0,1,1-3.129,3.129,3.081,3.081,0,0,1,3.129-3.129" transform="translate(14063 -5312)" fill="#68ca44" stroke="#000" stroke-linecap="round" stroke-linejoin="round" stroke-width="2" stroke-dasharray="80 5"/>
      <path id="Path_1491929" data-name="Path 1491929" d="M578.719,47.288a11.91,11.91,0,1,1-11.91-11.911,11.932,11.932,0,0,1,11.91,11.911" transform="translate(14063 -5312)" fill="#32438c" stroke="#000" stroke-linecap="round" stroke-linejoin="round" stroke-width="2" stroke-dasharray="80 5"/>
      <path id="Path_1491930" data-name="Path 1491930" d="M575.388,32.652a16.607,16.607,0,0,1,3.331,2.624l-4.038,4.139a11.142,11.142,0,0,0-7.873-3.231V30.331a15.638,15.638,0,0,1,8.58,2.321" transform="translate(14063 -5312)" fill="#f90" stroke="#000" stroke-linecap="round" stroke-linejoin="round" stroke-width="2" stroke-dasharray="80 5"/>
      <path id="Path_1491931" data-name="Path 1491931" d="M577.912,47.288h5.854A16.928,16.928,0,0,1,578.82,59.3l-4.138-4.139a10.794,10.794,0,0,0,3.23-7.872" transform="translate(14063 -5312)" fill="#f90" stroke="#000" stroke-linecap="round" stroke-linejoin="round" stroke-width="2" stroke-dasharray="80 5"/>
      <path id="Path_1491932" data-name="Path 1491932" d="M566.809,58.491v5.854A16.925,16.925,0,0,1,554.8,59.4l4.138-4.138a10.8,10.8,0,0,0,7.873,3.23" transform="translate(14063 -5312)" fill="#f90" stroke="#000" stroke-linecap="round" stroke-linejoin="round" stroke-width="2" stroke-dasharray="80 5"/>
      <path id="Path_1491933" data-name="Path 1491933" d="M554.7,35.276l4.139,4.139a11.14,11.14,0,0,0-3.23,7.873H549.75A17.105,17.105,0,0,1,554.7,35.276" transform="translate(14063 -5312)" fill="#f90" stroke="#000" stroke-linecap="round" stroke-linejoin="round" stroke-width="2" stroke-dasharray="80 5"/>
      <path id="Path_1491934" data-name="Path 1491934" d="M583.766,47.288h-5.854a10.655,10.655,0,0,0-3.331-7.873l4.138-4.139a16.776,16.776,0,0,1,5.047,12.012" transform="translate(14063 -5312)" fill="#fc6" stroke="#000" stroke-linecap="round" stroke-linejoin="round" stroke-width="2" stroke-dasharray="80 5"/>
      <path id="Path_1491935" data-name="Path 1491935" d="M574.682,55.262,578.82,59.4a16.858,16.858,0,0,1-12.011,4.946V58.492a11.144,11.144,0,0,0,7.873-3.23" transform="translate(14063 -5312)" fill="#fc6" stroke="#000" stroke-linecap="round" stroke-linejoin="round" stroke-width="2" stroke-dasharray="80 5"/>
      <path id="Path_1491936" data-name="Path 1491936" d="M558.835,55.262,554.7,59.4a16.857,16.857,0,0,1-4.945-12.011H555.6a11.144,11.144,0,0,0,3.23,7.873" transform="translate(14063 -5312)" fill="#fc6" stroke="#000" stroke-linecap="round" stroke-linejoin="round" stroke-width="2" stroke-dasharray="80 5"/>
      <path id="Path_1491937" data-name="Path 1491937" d="M573.269,45.875,569.231,48.8l1.515,4.642-3.937-2.926-4.037,2.926,1.514-4.642-4.038-2.927h4.946l1.615-4.744,1.514,4.744Z" transform="translate(14063 -5312)" fill="#fc6" stroke="#000" stroke-linecap="round" stroke-linejoin="round" stroke-width="2" stroke-dasharray="80 5"/>
      <path id="Path_1491938" data-name="Path 1491938" d="M558.129,32.551a16.555,16.555,0,0,1,8.579-2.321v5.854a10.969,10.969,0,0,0-7.873,3.23L554.7,35.176a30.9,30.9,0,0,1,3.432-2.625" transform="translate(14063 -5312)" fill="#fc6" stroke="#000" stroke-linecap="round" stroke-linejoin="round" stroke-width="2" stroke-dasharray="80 5"/>
    </g>
  </g>
</svg>
