<svg xmlns="http://www.w3.org/2000/svg" width="98" height="97.999" viewBox="0 0 98 97.999">
  <g id="Group_1228945" data-name="Group 1228945" transform="translate(-803.781 -1972.016)">
    <g id="Group_1204143" data-name="Group 1204143" transform="translate(-67.331 1694.852)">
      <g id="Group_1188789" data-name="Group 1188789" transform="translate(871.113 277.164)">
        <path id="Path_1243039" data-name="Path 1243039" d="M41.05,0h0a41.05,41.05,0,0,1,0,82.1h0a41.05,41.05,0,0,1,0-82.1Z" transform="translate(7.951 7.949)" fill="#fdcae3"/>
        <rect id="Rectangle_400907" data-name="Rectangle 400907" width="88.438" height="88.437" rx="44.218" transform="translate(4.782 4.781)" fill="none"/>
        <g id="Group_1098742" data-name="Group 1098742" transform="translate(0)">
          <g id="Rectangle_400898" data-name="Rectangle 400898" transform="translate(0)" fill="none" stroke="#fff" stroke-width="2" opacity="0.859">
            <rect width="98" height="97.999" rx="48.999" stroke="none"/>
            <rect x="1" y="1" width="96" height="95.999" rx="47.999" fill="none"/>
          </g>
          <g id="Rectangle_400907-2" data-name="Rectangle 400907" transform="translate(0)" fill="none" stroke="#0f1f33" stroke-linecap="round" stroke-width="2">
            <rect width="98" height="97.999" rx="48.999" stroke="none"/>
            <rect x="1" y="1" width="96" height="95.999" rx="47.999" fill="none"/>
          </g>
        </g>
      </g>
    </g>
    <g id="Group_1228980" data-name="Group 1228980" transform="translate(-2343.753 10277.75)">
      <path id="Path_1491668" data-name="Path 1491668" d="M198.8,145.246a6.093,6.093,0,0,1-.505,2.422,7.976,7.976,0,0,0-2.12-2.725,14.892,14.892,0,0,0,1.312-3.533,6.514,6.514,0,0,1,1.313,3.836" transform="translate(2998.748 -8387.698)" fill="#ff7058" stroke="#000" stroke-linecap="round" stroke-linejoin="round" stroke-width="1" stroke-dasharray="80 5"/>
      <path id="Path_1491669" data-name="Path 1491669" d="M184.261,141.41a14.935,14.935,0,0,0,1.312,3.533,6.922,6.922,0,0,0-2.12,2.725,6.957,6.957,0,0,1-.5-2.422,5.4,5.4,0,0,1,1.312-3.836" transform="translate(2998.748 -8387.698)" fill="#ff7058" stroke="#000" stroke-linecap="round" stroke-linejoin="round" stroke-width="1" stroke-dasharray="80 5"/>
      <path id="Path_1491670" data-name="Path 1491670" d="M193.85,145.549v.3a6.5,6.5,0,0,1-2.927,5.45,6.529,6.529,0,0,1-2.928-5.45v-.3a7.243,7.243,0,0,1,2.928-.6,5.868,5.868,0,0,1,2.927.6" transform="translate(2998.748 -8387.698)" fill="#f5ea0a" stroke="#000" stroke-linecap="round" stroke-linejoin="round" stroke-width="2" stroke-dasharray="80 5"/>
      <path id="Path_1491671" data-name="Path 1491671" d="M221.1,137.07a3.834,3.834,0,0,0,3.836-3.836v-22a3.834,3.834,0,0,0-3.836-3.835H174.47a3.834,3.834,0,0,0-3.835,3.835v22a3.834,3.834,0,0,0,3.835,3.836Z" transform="translate(2998.748 -8387.698)" fill="#40596b" stroke="#000" stroke-linecap="round" stroke-linejoin="round" stroke-width="2" stroke-dasharray="80 5"/>
      <path id="Path_1491672" data-name="Path 1491672" d="M197.989,137.07a15.9,15.9,0,0,0-7.167-12.617,15.9,15.9,0,0,0-7.166,12.617v.6a14.371,14.371,0,0,0,.4,3.634,14.931,14.931,0,0,0,1.313,3.532,8.671,8.671,0,0,0,1.01,1.616,5.949,5.949,0,0,1,1.513-.908,7.374,7.374,0,0,1,5.855,0l1.513.908a14.006,14.006,0,0,0,1.01-1.616,15.192,15.192,0,0,0,1.716-7.166Z" transform="translate(2998.748 -8387.698)" fill="#f2f2f2" stroke="#000" stroke-linecap="round" stroke-linejoin="round" stroke-width="2" stroke-dasharray="80 5"/>
      <rect id="Rectangle_425675" data-name="Rectangle 425675" width="2.523" height="10.699" transform="translate(3218.034 -8268.292)" fill="#ff7058" stroke="#000" stroke-linecap="round" stroke-linejoin="round" stroke-width="2" stroke-dasharray="80 5"/>
      <rect id="Rectangle_425676" data-name="Rectangle 425676" width="2.523" height="8.176" transform="translate(3212.987 -8265.77)" fill="#ff7058" stroke="#000" stroke-linecap="round" stroke-linejoin="round" stroke-width="2" stroke-dasharray="80 5"/>
      <rect id="Rectangle_425677" data-name="Rectangle 425677" width="2.523" height="12.012" transform="translate(3207.94 -8269.503)" fill="#ff7058" stroke="#000" stroke-linecap="round" stroke-linejoin="round" stroke-width="2" stroke-dasharray="80 5"/>
      <rect id="Rectangle_425678" data-name="Rectangle 425678" width="2.522" height="7.57" transform="translate(3202.894 -8265.063)" fill="#ff7058" stroke="#000" stroke-linecap="round" stroke-linejoin="round" stroke-width="2" stroke-dasharray="80 5"/>
      <path id="Path_1491673" data-name="Path 1491673" d="M190.822,130.408a2.119,2.119,0,1,1-2.119,2.12,2.132,2.132,0,0,1,2.119-2.12" transform="translate(2998.748 -8387.698)" fill="#87c7ff" stroke="#000" stroke-linecap="round" stroke-linejoin="round" stroke-width="2" stroke-dasharray="80 5"/>
      <path id="Path_1491674" data-name="Path 1491674" d="M194.253,141.309a.776.776,0,0,1-.5-.2,3.919,3.919,0,0,0-5.854,0,.647.647,0,0,1-1.01-.808,5.175,5.175,0,0,1,7.873,0,.638.638,0,0,1-.1.908c-.1.1-.2.1-.4.1" transform="translate(2998.748 -8387.698)" fill="#ff7058"/>
      <path id="Path_1491675" data-name="Path 1491675" d="M195.061,139.189a.775.775,0,0,1-.5-.2,4.372,4.372,0,0,0-3.735-1.818,4.561,4.561,0,0,0-3.735,1.716.646.646,0,1,1-1.008-.807,5.939,5.939,0,0,1,4.743-2.22,5.8,5.8,0,0,1,4.744,2.22.639.639,0,0,1-.1.909.527.527,0,0,1-.4.2" transform="translate(2998.748 -8387.698)" fill="#ff7058"/>
      <path id="Path_1491676" data-name="Path 1491676" d="M195.263,151.6a.652.652,0,0,1-.606-.605v-1.918a.605.605,0,1,1,1.211,0V151a.651.651,0,0,1-.6.605" transform="translate(2998.748 -8387.698)" fill="#c4c3c2"/>
      <path id="Path_1491677" data-name="Path 1491677" d="M187.087,154.532a.652.652,0,0,1-.606-.606v-4.24a.605.605,0,0,1,1.211,0v4.24a.581.581,0,0,1-.6.606" transform="translate(2998.748 -8387.698)" fill="#c4c3c2"/>
      <path id="Path_1491678" data-name="Path 1491678" d="M184.564,151a.651.651,0,0,1-.6-.6v-1.313a.605.605,0,0,1,1.21,0v1.313a.651.651,0,0,1-.605.6" transform="translate(2998.748 -8387.698)" fill="#c4c3c2"/>
      <path id="Path_1491679" data-name="Path 1491679" d="M197.786,152.815a.651.651,0,0,1-.6-.6v-2.524a.605.605,0,1,1,1.21,0v2.524a.651.651,0,0,1-.605.6" transform="translate(2998.748 -8387.698)" fill="#c4c3c2"/>
      <path id="Path_1491680" data-name="Path 1491680" d="M182.04,112.442h-6.964a.606.606,0,1,1,0-1.212h6.964a.606.606,0,0,1,0,1.212" transform="translate(2998.748 -8387.698)" fill="#87c7ff"/>
      <path id="Path_1491681" data-name="Path 1491681" d="M195.868,114.966H175.076a.606.606,0,0,1,0-1.212h20.792a.651.651,0,0,1,.605.606.581.581,0,0,1-.605.606" transform="translate(2998.748 -8387.698)" fill="#87c7ff"/>
      <path id="Path_1491682" data-name="Path 1491682" d="M184.564,120.011h-9.487a.606.606,0,1,1,0-1.211h9.487a.605.605,0,0,1,0,1.211" transform="translate(2998.748 -8387.698)" fill="#87c7ff"/>
      <path id="Path_1491683" data-name="Path 1491683" d="M188.3,122.535H175.076a.606.606,0,1,1,0-1.211H188.3a.652.652,0,0,1,.606.606c.1.3-.2.605-.606.605" transform="translate(2998.748 -8387.698)" fill="#87c7ff"/>
      <path id="Path_1491684" data-name="Path 1491684" d="M192.134,120.011h-5.652a.605.605,0,1,1,0-1.211h5.652a.605.605,0,0,1,0,1.211" transform="translate(2998.748 -8387.698)" fill="#87c7ff"/>
      <path id="Path_1491685" data-name="Path 1491685" d="M190.822,112.442h-6.964a.606.606,0,1,1,0-1.212h6.964a.651.651,0,0,1,.6.607.581.581,0,0,1-.6.605" transform="translate(2998.748 -8387.698)" fill="#87c7ff"/>
      <path id="Path_1491686" data-name="Path 1491686" d="M179.517,117.488h-4.44a.606.606,0,1,1,0-1.211h4.44a.605.605,0,1,1,0,1.211" transform="translate(2998.748 -8387.698)" fill="#87c7ff"/>
      <path id="Path_1491687" data-name="Path 1491687" d="M182.646,117.488h-1.312a.605.605,0,0,1,0-1.211h1.312a.605.605,0,0,1,0,1.211" transform="translate(2998.748 -8387.698)" fill="#87c7ff"/>
      <path id="Path_1491688" data-name="Path 1491688" d="M190.216,117.488h-5.652a.605.605,0,1,1,0-1.211h5.652a.605.605,0,0,1,0,1.211" transform="translate(2998.748 -8387.698)" fill="#87c7ff"/>
      <path id="Path_1491689" data-name="Path 1491689" d="M224.938,129.5H200.31a.605.605,0,0,0,0,1.211h24.628Z" transform="translate(2998.748 -8387.698)" fill="#2c4151" stroke="#000" stroke-linecap="round" stroke-linejoin="round" stroke-width="1" stroke-dasharray="80 5"/>
    </g>
  </g>
</svg>
