<svg xmlns="http://www.w3.org/2000/svg" width="98" height="97.999" viewBox="0 0 98 97.999">
  <g id="Group_1229011" data-name="Group 1229011" transform="translate(-803.781 -1972.016)">
    <g id="Group_1204143" data-name="Group 1204143" transform="translate(-67.331 1694.852)">
      <g id="Group_1188789" data-name="Group 1188789" transform="translate(871.113 277.164)">
        <path id="Path_1243039" data-name="Path 1243039" d="M41.05,0h0a41.05,41.05,0,0,1,0,82.1h0a41.05,41.05,0,0,1,0-82.1Z" transform="translate(7.951 7.949)" fill="#ffa724"/>
        <rect id="Rectangle_400907" data-name="Rectangle 400907" width="88.438" height="88.437" rx="44.218" transform="translate(4.782 4.781)" fill="none"/>
        <g id="Group_1098742" data-name="Group 1098742" transform="translate(0)">
          <g id="Rectangle_400898" data-name="Rectangle 400898" transform="translate(0)" fill="none" stroke="#fff" stroke-width="2" opacity="0.859">
            <rect width="98" height="97.999" rx="48.999" stroke="none"/>
            <rect x="1" y="1" width="96" height="95.999" rx="47.999" fill="none"/>
          </g>
          <g id="Rectangle_400907-2" data-name="Rectangle 400907" transform="translate(0)" fill="none" stroke="#0f1f33" stroke-linecap="round" stroke-width="2">
            <rect width="98" height="97.999" rx="48.999" stroke="none"/>
            <rect x="1" y="1" width="96" height="95.999" rx="47.999" fill="none"/>
          </g>
        </g>
      </g>
    </g>
    <g id="Group_1229118" data-name="Group 1229118" transform="translate(-9661.822 4973.201)">
      <path id="Path_1532249" data-name="Path 1532249" d="M459.55,375.045v-7.562H429.3V419.2h37.808v-44.16Z" transform="translate(10065.74 -3348)" fill="#e9efff" stroke="#000" stroke-linecap="round" stroke-linejoin="round" stroke-width="2" stroke-dasharray="80 5"/>
      <path id="Path_1532250" data-name="Path 1532250" d="M445.032,374.44H433.639v21.979h11.393v-6.251h10.082V374.44Z" transform="translate(10065.74 -3348)" fill="#8fe269" stroke="#000" stroke-linecap="round" stroke-linejoin="round" stroke-width="1" stroke-dasharray="80 5"/>
      <path id="Path_1532251" data-name="Path 1532251" d="M463.281,392.083a.65.65,0,0,1-.605-.605v-3.226a.6.6,0,1,1,1.21,0v3.125c0,.4-.2.706-.6.706" transform="translate(10065.74 -3348)" fill="#006c87" stroke="#000" stroke-linecap="round" stroke-linejoin="round" stroke-width="2" stroke-dasharray="80 5"/>
      <rect id="Rectangle_434962" data-name="Rectangle 434962" width="5.646" height="3.125" transform="translate(10505.126 -2954.707)" fill="#3cbaeb" stroke="#000" stroke-linecap="round" stroke-linejoin="round" stroke-width="1" stroke-dasharray="80 5"/>
      <rect id="Rectangle_434963" data-name="Rectangle 434963" width="5.646" height="3.125" transform="translate(10499.379 -2954.707)" fill="#87cef0" stroke="#000" stroke-linecap="round" stroke-linejoin="round" stroke-width="1" stroke-dasharray="80 5"/>
      <rect id="Rectangle_434964" data-name="Rectangle 434964" width="5.646" height="3.126" transform="translate(10505.126 -2957.832)" fill="#fd9c20" stroke="#000" stroke-linecap="round" stroke-linejoin="round" stroke-width="1" stroke-dasharray="80 5"/>
      <rect id="Rectangle_434965" data-name="Rectangle 434965" width="5.646" height="3.126" transform="translate(10499.379 -2957.832)" fill="#fed943" stroke="#000" stroke-linecap="round" stroke-linejoin="round" stroke-width="1" stroke-dasharray="80 5"/>
      <rect id="Rectangle_434966" data-name="Rectangle 434966" width="5.646" height="3.126" transform="translate(10505.126 -2960.958)" fill="#00cc76" stroke="#000" stroke-linecap="round" stroke-linejoin="round" stroke-width="1" stroke-dasharray="80 5"/>
      <rect id="Rectangle_434967" data-name="Rectangle 434967" width="10.082" height="3.126" transform="translate(10510.772 -2960.958)" fill="#8fe269" stroke="#000" stroke-linecap="round" stroke-linejoin="round" stroke-width="1" stroke-dasharray="80 5"/>
      <rect id="Rectangle_434968" data-name="Rectangle 434968" width="5.646" height="3.126" transform="translate(10499.379 -2960.958)" fill="#8fe269" stroke="#000" stroke-linecap="round" stroke-linejoin="round" stroke-width="1" stroke-dasharray="80 5"/>
      <rect id="Rectangle_434969" data-name="Rectangle 434969" width="10.082" height="3.126" transform="translate(10510.772 -2964.184)" fill="#87cef0" stroke="#000" stroke-linecap="round" stroke-linejoin="round" stroke-width="1" stroke-dasharray="80 5"/>
      <rect id="Rectangle_434970" data-name="Rectangle 434970" width="5.646" height="3.126" transform="translate(10505.126 -2964.184)" fill="#3cbaeb" stroke="#000" stroke-linecap="round" stroke-linejoin="round" stroke-width="1" stroke-dasharray="80 5"/>
      <rect id="Rectangle_434971" data-name="Rectangle 434971" width="5.646" height="3.126" transform="translate(10499.379 -2964.184)" fill="#87cef0" stroke="#000" stroke-linecap="round" stroke-linejoin="round" stroke-width="1" stroke-dasharray="80 5"/>
      <rect id="Rectangle_434972" data-name="Rectangle 434972" width="5.646" height="3.126" transform="translate(10505.126 -2967.309)" fill="#fd9c20" stroke="#000" stroke-linecap="round" stroke-linejoin="round" stroke-width="1" stroke-dasharray="80 5"/>
      <rect id="Rectangle_434973" data-name="Rectangle 434973" width="10.082" height="3.126" transform="translate(10510.772 -2967.309)" fill="#fed943" stroke="#000" stroke-linecap="round" stroke-linejoin="round" stroke-width="1" stroke-dasharray="80 5"/>
      <rect id="Rectangle_434974" data-name="Rectangle 434974" width="5.646" height="3.126" transform="translate(10499.379 -2967.309)" fill="#fed943" stroke="#000" stroke-linecap="round" stroke-linejoin="round" stroke-width="1" stroke-dasharray="80 5"/>
      <rect id="Rectangle_434975" data-name="Rectangle 434975" width="5.646" height="3.126" transform="translate(10505.126 -2970.435)" fill="#3cbaeb" stroke="#000" stroke-linecap="round" stroke-linejoin="round" stroke-width="1" stroke-dasharray="80 5"/>
      <rect id="Rectangle_434976" data-name="Rectangle 434976" width="10.082" height="3.126" transform="translate(10510.772 -2970.435)" fill="#87cef0" stroke="#000" stroke-linecap="round" stroke-linejoin="round" stroke-width="1" stroke-dasharray="80 5"/>
      <rect id="Rectangle_434977" data-name="Rectangle 434977" width="5.646" height="3.126" transform="translate(10499.379 -2970.435)" fill="#87cef0" stroke="#000" stroke-linecap="round" stroke-linejoin="round" stroke-width="1" stroke-dasharray="80 5"/>
      <rect id="Rectangle_434978" data-name="Rectangle 434978" width="5.646" height="3.126" transform="translate(10505.126 -2973.56)" fill="#00cc76" stroke="#000" stroke-linecap="round" stroke-linejoin="round" stroke-width="1" stroke-dasharray="80 5"/>
      <rect id="Rectangle_434979" data-name="Rectangle 434979" width="10.082" height="3.126" transform="translate(10510.772 -2973.56)" fill="#8fe269" stroke="#000" stroke-linecap="round" stroke-linejoin="round" stroke-width="1" stroke-dasharray="80 5"/>
      <rect id="Rectangle_434980" data-name="Rectangle 434980" width="5.646" height="3.126" transform="translate(10499.379 -2973.56)" fill="#8fe269" stroke="#000" stroke-linecap="round" stroke-linejoin="round" stroke-width="1" stroke-dasharray="80 5"/>
      <path id="Path_1532252" data-name="Path 1532252" d="M446.948,407.812v6.15l-5.042-4.436,5.042-4.336Z" transform="translate(10065.74 -3348)" fill="#0097e0" stroke="#000" stroke-linecap="round" stroke-linejoin="round" stroke-width="2" stroke-dasharray="80 5"/>
      <path id="Path_1532253" data-name="Path 1532253" d="M467.112,392.185a10.1,10.1,0,0,1,0,18.753,9.616,9.616,0,0,1-3.831.705H446.948v-3.831h8.469a9.926,9.926,0,0,1-2.218-6.352,9.981,9.981,0,0,1,13.913-9.275m-3.831,15.627a6.353,6.353,0,1,0-6.251-6.352,6.325,6.325,0,0,0,6.251,6.352" transform="translate(10065.74 -3348)" fill="#3cbaeb" stroke="#000" stroke-linecap="round" stroke-linejoin="round" stroke-width="2" stroke-dasharray="80 5"/>
      <path id="Path_1532254" data-name="Path 1532254" d="M469.632,401.46H463.28v-6.352a6.457,6.457,0,0,1,6.352,6.352" transform="translate(10065.74 -3348)" fill="#e50058" stroke="#000" stroke-linecap="round" stroke-linejoin="round" stroke-width="2" stroke-dasharray="80 5"/>
      <path id="Path_1532255" data-name="Path 1532255" d="M463.281,401.46h6.352a6.325,6.325,0,0,1-6.352,6.352,6.241,6.241,0,0,1-6.251-6.352,6.325,6.325,0,0,1,6.352-6.352v6.352Z" transform="translate(10065.74 -3348)" fill="#fe5a5a" stroke="#000" stroke-linecap="round" stroke-linejoin="round" stroke-width="2" stroke-dasharray="80 5"/>
      <path id="Path_1532256" data-name="Path 1532256" d="M459.55,419.1v5.041H424.262V373.734H429.3V419.1Z" transform="translate(10065.74 -3348)" fill="#d3dcfb" stroke="#000" stroke-linecap="round" stroke-linejoin="round" stroke-width="2" stroke-dasharray="80 5"/>
      <path id="Path_1532257" data-name="Path 1532257" d="M459.55,367.483l7.562,7.562H459.55Z" transform="translate(10065.74 -3348)" fill="#d3dcfb" stroke="#000" stroke-linecap="round" stroke-linejoin="round" stroke-width="2" stroke-dasharray="80 5"/>
      <path id="Path_1532258" data-name="Path 1532258" d="M464.591,388.857h-2.52a.6.6,0,1,1,0-1.21h2.52a.6.6,0,1,1,0,1.21" transform="translate(10065.74 -3348)" fill="#005068" stroke="#000" stroke-linecap="round" stroke-linejoin="round" stroke-width="2" stroke-dasharray="80 5"/>
    </g>
  </g>
</svg>
