<svg xmlns="http://www.w3.org/2000/svg" width="98" height="97.999" viewBox="0 0 98 97.999">
  <g id="Group_1229009" data-name="Group 1229009" transform="translate(-803.781 -1972.016)">
    <g id="Group_1204143" data-name="Group 1204143" transform="translate(-67.331 1694.852)">
      <g id="Group_1188789" data-name="Group 1188789" transform="translate(871.113 277.164)">
        <path id="Path_1243039" data-name="Path 1243039" d="M41.05,0h0a41.05,41.05,0,0,1,0,82.1h0a41.05,41.05,0,0,1,0-82.1Z" transform="translate(7.951 7.949)" fill="#ffa724"/>
        <rect id="Rectangle_400907" data-name="Rectangle 400907" width="88.438" height="88.437" rx="44.218" transform="translate(4.782 4.781)" fill="none"/>
        <g id="Group_1098742" data-name="Group 1098742" transform="translate(0)">
          <g id="Rectangle_400898" data-name="Rectangle 400898" transform="translate(0)" fill="none" stroke="#fff" stroke-width="2" opacity="0.859">
            <rect width="98" height="97.999" rx="48.999" stroke="none"/>
            <rect x="1" y="1" width="96" height="95.999" rx="47.999" fill="none"/>
          </g>
          <g id="Rectangle_400907-2" data-name="Rectangle 400907" transform="translate(0)" fill="none" stroke="#0f1f33" stroke-linecap="round" stroke-width="2">
            <rect width="98" height="97.999" rx="48.999" stroke="none"/>
            <rect x="1" y="1" width="96" height="95.999" rx="47.999" fill="none"/>
          </g>
        </g>
      </g>
    </g>
    <g id="Group_1229119" data-name="Group 1229119" transform="translate(-9808.661 4983.085)">
      <path id="Path_1532106" data-name="Path 1532106" d="M566.62,372.83v31.562a4.748,4.748,0,0,0,4.754,4.754h48.557a4.748,4.748,0,0,0,4.754-4.754V372.83Z" transform="translate(10065.74 -3348)" fill="#ecf0f1" stroke="#000" stroke-linecap="round" stroke-linejoin="round" stroke-width="2" stroke-dasharray="80 5"/>
      <path id="Path_1532107" data-name="Path 1532107" d="M591.909,396.906l-7.587,3.743,7.587,3.844h11.33v-7.587Z" transform="translate(10065.74 -3348)" fill="#e3835a" stroke="#000" stroke-linecap="round" stroke-linejoin="round" stroke-width="2" stroke-dasharray="80 5"/>
      <path id="Path_1532108" data-name="Path 1532108" d="M591.909,389.319l-7.587,3.743,7.587,3.844h11.33v-7.587Z" transform="translate(10065.74 -3348)" fill="#64e1db" stroke="#000" stroke-linecap="round" stroke-linejoin="round" stroke-width="2" stroke-dasharray="80 5"/>
      <path id="Path_1532109" data-name="Path 1532109" d="M591.909,381.732l-7.587,3.743,7.587,3.844h11.33v-7.587Z" transform="translate(10065.74 -3348)" fill="#ffd24d" stroke="#000" stroke-linecap="round" stroke-linejoin="round" stroke-width="2" stroke-dasharray="80 5"/>
      <path id="Path_1532110" data-name="Path 1532110" d="M619.93,362.714H571.374a4.749,4.749,0,0,0-4.755,4.754v5.362h58.166v-5.362a4.835,4.835,0,0,0-4.855-4.754" transform="translate(10065.74 -3348)" fill="#74829c" stroke="#000" stroke-linecap="round" stroke-linejoin="round" stroke-width="2" stroke-dasharray="80 5"/>
      <rect id="Rectangle_434936" data-name="Rectangle 434936" width="2.529" height="23.975" transform="translate(10685.469 -2968.797)" fill="#bec3c7"/>
      <rect id="Rectangle_434937" data-name="Rectangle 434937" width="2.529" height="2.529" transform="translate(10685.469 -2972.641)" fill="#bec3c7"/>
      <path id="Path_1532111" data-name="Path 1532111" d="M619.323,366.862a1.284,1.284,0,0,1,.405.911.987.987,0,0,1-.405.91,1.284,1.284,0,0,1-.911.4,1.338,1.338,0,0,1-1.314-1.315,1.1,1.1,0,0,1,.4-.911,1.228,1.228,0,0,1,1.821,0" transform="translate(10065.74 -3348)" fill="#d8f2f1"/>
      <rect id="Rectangle_434938" data-name="Rectangle 434938" width="45.521" height="2.529" transform="translate(10638.631 -2972.641)" fill="#bec3c7"/>
      <rect id="Rectangle_434939" data-name="Rectangle 434939" width="2.529" height="2.529" transform="translate(10662.707 -2948.565)" fill="#c6613e"/>
      <rect id="Rectangle_434940" data-name="Rectangle 434940" width="2.529" height="2.529" transform="translate(10662.707 -2956.152)" fill="#4ec6bd"/>
      <rect id="Rectangle_434941" data-name="Rectangle 434941" width="2.529" height="2.529" transform="translate(10662.707 -2963.739)" fill="#e2b23b"/>
      <rect id="Rectangle_434942" data-name="Rectangle 434942" width="2.529" height="2.529" transform="translate(10658.863 -2948.565)" fill="#c6613e"/>
      <rect id="Rectangle_434943" data-name="Rectangle 434943" width="2.529" height="2.529" transform="translate(10658.863 -2956.152)" fill="#4ec6bd"/>
      <rect id="Rectangle_434944" data-name="Rectangle 434944" width="2.529" height="2.529" transform="translate(10658.863 -2963.739)" fill="#e2b23b"/>
      <rect id="Rectangle_434945" data-name="Rectangle 434945" width="2.529" height="2.529" transform="translate(10645.004 -2981.441)" fill="#e3835a"/>
      <path id="Path_1532112" data-name="Path 1532112" d="M581.389,384.564a1.286,1.286,0,0,1,.405.911.987.987,0,0,1-.405.91,1.511,1.511,0,0,1-.911.4,1.339,1.339,0,0,1-1.315-1.315,1.1,1.1,0,0,1,.4-.911,1.507,1.507,0,0,1,.91-.4,1.283,1.283,0,0,1,.911.4" transform="translate(10065.74 -3348)" fill="#65b2fe"/>
      <path id="Path_1532113" data-name="Path 1532113" d="M581.389,392.152a1.283,1.283,0,0,1,.405.91.989.989,0,0,1-.405.911,1.509,1.509,0,0,1-.911.4,1.339,1.339,0,0,1-1.315-1.315,1.1,1.1,0,0,1,.4-.91,1.5,1.5,0,0,1,.91-.4,1.28,1.28,0,0,1,.911.4" transform="translate(10065.74 -3348)" fill="#65b2fe"/>
      <path id="Path_1532114" data-name="Path 1532114" d="M581.389,399.739a1.281,1.281,0,0,1,.405.91,1.1,1.1,0,0,1-.405.911,1.509,1.509,0,0,1-.911.4,1.339,1.339,0,0,1-1.315-1.315,1.1,1.1,0,0,1,.4-.91,1.5,1.5,0,0,1,.91-.4,1.28,1.28,0,0,1,.911.4" transform="translate(10065.74 -3348)" fill="#65b2fe"/>
      <rect id="Rectangle_434946" data-name="Rectangle 434946" width="2.529" height="2.529" transform="translate(10641.16 -2981.441)" fill="#80af52"/>
      <path id="Path_1532115" data-name="Path 1532115" d="M577.544,384.564a1.282,1.282,0,0,1,.4.911.985.985,0,0,1-.4.91,1.508,1.508,0,0,1-.91.4,1.338,1.338,0,0,1-1.315-1.315,1.1,1.1,0,0,1,.4-.911,1.509,1.509,0,0,1,.911-.4,1.283,1.283,0,0,1,.91.4" transform="translate(10065.74 -3348)" fill="#65b2fe"/>
      <path id="Path_1532116" data-name="Path 1532116" d="M577.544,392.152a1.279,1.279,0,0,1,.4.91.986.986,0,0,1-.4.911,1.507,1.507,0,0,1-.91.4,1.338,1.338,0,0,1-1.315-1.315,1.1,1.1,0,0,1,.4-.91,1.5,1.5,0,0,1,.911-.4,1.279,1.279,0,0,1,.91.4" transform="translate(10065.74 -3348)" fill="#65b2fe"/>
      <path id="Path_1532117" data-name="Path 1532117" d="M577.544,399.739a1.277,1.277,0,0,1,.4.91,1.1,1.1,0,0,1-.4.911,1.507,1.507,0,0,1-.91.4,1.338,1.338,0,0,1-1.315-1.315,1.1,1.1,0,0,1,.4-.91,1.5,1.5,0,0,1,.911-.4,1.279,1.279,0,0,1,.91.4" transform="translate(10065.74 -3348)" fill="#65b2fe"/>
      <rect id="Rectangle_434947" data-name="Rectangle 434947" width="2.529" height="2.529" transform="translate(10637.417 -2981.441)" fill="#ffd24d"/>
      <rect id="Rectangle_434948" data-name="Rectangle 434948" width="2.529" height="23.975" transform="translate(10634.889 -2968.797)" fill="#bec3c7"/>
      <rect id="Rectangle_434949" data-name="Rectangle 434949" width="2.529" height="2.529" transform="translate(10634.889 -2972.641)" fill="#bec3c7"/>
      <path id="Path_1532118" data-name="Path 1532118" d="M614.67,369.087H589.381a1.315,1.315,0,1,1,0-2.63H614.67a1.339,1.339,0,0,1,1.315,1.315,1.5,1.5,0,0,1-1.315,1.315" transform="translate(10065.74 -3348)" fill="#d8f2f1"/>
      <path id="Path_1532119" data-name="Path 1532119" d="M609.612,388.207a1.233,1.233,0,0,1-.91-.4l-1.821-1.821a1.287,1.287,0,0,1,1.821-1.82l.91.91,4.148-4.249a1.288,1.288,0,1,1,1.821,1.821l-5.058,5.26a3.226,3.226,0,0,1-.911.3" transform="translate(10065.74 -3348)" fill="#80af52" stroke="#000" stroke-linecap="round" stroke-linejoin="round" stroke-width="2" stroke-dasharray="80 5"/>
      <path id="Path_1532120" data-name="Path 1532120" d="M609.612,397.007a1.233,1.233,0,0,1-.91-.4l-1.821-1.821a1.287,1.287,0,0,1,1.821-1.82l.91.91,4.148-4.249a1.288,1.288,0,1,1,1.821,1.821l-5.058,5.26a1.629,1.629,0,0,1-.911.3" transform="translate(10065.74 -3348)" fill="#80af52" stroke="#000" stroke-linecap="round" stroke-linejoin="round" stroke-width="2" stroke-dasharray="80 5"/>
      <path id="Path_1532121" data-name="Path 1532121" d="M609.612,405.909a1.233,1.233,0,0,1-.91-.4l-1.821-1.821a1.287,1.287,0,1,1,1.821-1.82l.91.91,4.148-4.248a1.288,1.288,0,0,1,1.821,1.821l-5.058,5.26a3.222,3.222,0,0,1-.911.3" transform="translate(10065.74 -3348)" fill="#80af52" stroke="#000" stroke-linecap="round" stroke-linejoin="round" stroke-width="2" stroke-dasharray="80 5"/>
    </g>
  </g>
</svg>
