<svg xmlns="http://www.w3.org/2000/svg" width="98" height="97.999" viewBox="0 0 98 97.999">
  <g id="Group_1228869" data-name="Group 1228869" transform="translate(-803.781 -1972.016)">
    <g id="Group_1204143" data-name="Group 1204143" transform="translate(-67.331 1694.852)">
      <g id="Group_1188789" data-name="Group 1188789" transform="translate(871.113 277.164)">
        <path id="Path_1243039" data-name="Path 1243039" d="M41.05,0h0a41.05,41.05,0,0,1,0,82.1h0a41.05,41.05,0,0,1,0-82.1Z" transform="translate(7.951 7.949)" fill="#fdcae3"/>
        <rect id="Rectangle_400907" data-name="Rectangle 400907" width="88.438" height="88.437" rx="44.218" transform="translate(4.782 4.781)" fill="none"/>
        <g id="Group_1098742" data-name="Group 1098742" transform="translate(0)">
          <g id="Rectangle_400898" data-name="Rectangle 400898" transform="translate(0)" fill="none" stroke="#fff" stroke-width="2" opacity="0.859">
            <rect width="98" height="97.999" rx="48.999" stroke="none"/>
            <rect x="1" y="1" width="96" height="95.999" rx="47.999" fill="none"/>
          </g>
          <g id="Rectangle_400907-2" data-name="Rectangle 400907" transform="translate(0)" fill="none" stroke="#0f1f33" stroke-linecap="round" stroke-width="2">
            <rect width="98" height="97.999" rx="48.999" stroke="none"/>
            <rect x="1" y="1" width="96" height="95.999" rx="47.999" fill="none"/>
          </g>
        </g>
      </g>
    </g>
    <g id="Group_1228887" data-name="Group 1228887" transform="translate(9638.955 10567.078)">
      <path id="Path_1491343" data-name="Path 1491343" d="M418.965,59.443h-3.642l-2.528-8.7a1.251,1.251,0,0,0-2.428.607l2.326,7.992h-11.43l2.326-7.992a1.251,1.251,0,0,0-2.428-.607l-2.528,8.7h-3.642a1.315,1.315,0,1,0,0,2.63h23.873a1.34,1.34,0,0,0,1.316-1.315,1.2,1.2,0,0,0-1.215-1.315" transform="translate(-9193 -8578.346)" fill="#3c3b3d" stroke="#000" stroke-linecap="round" stroke-linejoin="round" stroke-width="2" stroke-dasharray="80 5"/>
      <path id="Path_1491344" data-name="Path 1491344" d="M410.671,37.9v5.058h-7.587v-8.9a3.844,3.844,0,1,1,7.688,0V37.9Z" transform="translate(-9193 -8578.346)" fill="#5b5a57" stroke="#000" stroke-linecap="round" stroke-linejoin="round" stroke-width="2" stroke-dasharray="80 5"/>
      <rect id="Rectangle_425545" data-name="Rectangle 425545" width="21.547" height="5.058" transform="translate(-8811.463 -8540.449)" fill="#60534a" stroke="#000" stroke-linecap="round" stroke-linejoin="round" stroke-width="2" stroke-dasharray="80 5"/>
      <rect id="Rectangle_425546" data-name="Rectangle 425546" width="21.546" height="5.058" transform="translate(-8782.329 -8540.449)" fill="#60534a" stroke="#000" stroke-linecap="round" stroke-linejoin="round" stroke-width="2" stroke-dasharray="80 5"/>
      <path id="Path_1491345" data-name="Path 1491345" d="M410.671,42.955H381.537v5.159a3.044,3.044,0,0,0,3.035,3.035h44.611a3.043,3.043,0,0,0,3.034-3.035V42.955Z" transform="translate(-9193 -8578.346)" fill="#57606f" stroke="#000" stroke-linecap="round" stroke-linejoin="round" stroke-width="2" stroke-dasharray="80 5"/>
      <path id="Path_1491346" data-name="Path 1491346" d="M429.587,22.723a3.843,3.843,0,0,1-3.844-3.844,3.844,3.844,0,0,1-7.688,0,3.844,3.844,0,1,1-7.688,0,3.844,3.844,0,0,1-7.688,0,3.844,3.844,0,1,1-7.688,0,3.844,3.844,0,1,1-7.688,0,3.843,3.843,0,0,1-3.844,3.844,3.777,3.777,0,0,1-2.529-1.012V37.9h21.547V34.053a3.844,3.844,0,0,1,7.688,0V37.9h21.546V21.711a2.111,2.111,0,0,1-2.124,1.012" transform="translate(-9193 -8578.346)" fill="#73665c" stroke="#000" stroke-linecap="round" stroke-linejoin="round" stroke-width="2" stroke-dasharray="80 5"/>
      <path id="Path_1491347" data-name="Path 1491347" d="M433.431,8.864H380.323l13.859-6.373h25.289Z" transform="translate(-9193 -8578.346)" fill="#bc3f48" stroke="#000" stroke-linecap="round" stroke-linejoin="round" stroke-width="2" stroke-dasharray="80 5"/>
      <path id="Path_1491348" data-name="Path 1491348" d="M395.5,18.98a3.844,3.844,0,0,1-7.689,0V17.665h7.587V18.98Z" transform="translate(-9193 -8578.346)" fill="#da5359" stroke="#000" stroke-linecap="round" stroke-linejoin="round" stroke-width="2" stroke-dasharray="80 5"/>
      <rect id="Rectangle_425547" data-name="Rectangle 425547" width="7.587" height="8.801" transform="translate(-8805.09 -8569.482)" fill="#da5359" stroke="#000" stroke-linecap="round" stroke-linejoin="round" stroke-width="2" stroke-dasharray="80 5"/>
      <path id="Path_1491349" data-name="Path 1491349" d="M410.671,17.665V18.98a3.844,3.844,0,1,1-7.688,0V17.665Z" transform="translate(-9193 -8578.346)" fill="#da5359" stroke="#000" stroke-linecap="round" stroke-linejoin="round" stroke-width="2" stroke-dasharray="80 5"/>
      <rect id="Rectangle_425548" data-name="Rectangle 425548" width="7.587" height="8.801" transform="translate(-8789.916 -8569.482)" fill="#da5359" stroke="#000" stroke-linecap="round" stroke-linejoin="round" stroke-width="2" stroke-dasharray="80 5"/>
      <path id="Path_1491350" data-name="Path 1491350" d="M425.844,17.665V18.98a3.843,3.843,0,1,1-7.687,0V17.665Z" transform="translate(-9193 -8578.346)" fill="#da5359" stroke="#000" stroke-linecap="round" stroke-linejoin="round" stroke-width="2" stroke-dasharray="80 5"/>
      <rect id="Rectangle_425549" data-name="Rectangle 425549" width="7.587" height="8.801" transform="translate(-8774.743 -8569.482)" fill="#da5359" stroke="#000" stroke-linecap="round" stroke-linejoin="round" stroke-width="2" stroke-dasharray="80 5"/>
      <path id="Path_1491351" data-name="Path 1491351" d="M433.431,17.665V18.98a3.961,3.961,0,0,1-3.844,3.844,3.842,3.842,0,0,1-3.843-3.844V17.665Z" transform="translate(-9193 -8578.346)" fill="#ef727a" stroke="#000" stroke-linecap="round" stroke-linejoin="round" stroke-width="2" stroke-dasharray="80 5"/>
      <rect id="Rectangle_425550" data-name="Rectangle 425550" width="7.587" height="8.801" transform="translate(-8767.156 -8569.482)" fill="#ef727a" stroke="#000" stroke-linecap="round" stroke-linejoin="round" stroke-width="2" stroke-dasharray="80 5"/>
      <path id="Path_1491352" data-name="Path 1491352" d="M418.257,18.98a3.843,3.843,0,1,1-7.687,0V17.665h7.586V18.98Z" transform="translate(-9193 -8578.346)" fill="#ef727a" stroke="#000" stroke-linecap="round" stroke-linejoin="round" stroke-width="2" stroke-dasharray="80 5"/>
      <rect id="Rectangle_425551" data-name="Rectangle 425551" width="7.586" height="8.801" transform="translate(-8782.329 -8569.482)" fill="#ef727a" stroke="#000" stroke-linecap="round" stroke-linejoin="round" stroke-width="2" stroke-dasharray="80 5"/>
      <path id="Path_1491353" data-name="Path 1491353" d="M403.084,17.665V18.98a3.844,3.844,0,0,1-7.688,0V17.665Z" transform="translate(-9193 -8578.346)" fill="#ef727a" stroke="#000" stroke-linecap="round" stroke-linejoin="round" stroke-width="2" stroke-dasharray="80 5"/>
      <rect id="Rectangle_425552" data-name="Rectangle 425552" width="7.587" height="8.801" transform="translate(-8797.503 -8569.482)" fill="#ef727a" stroke="#000" stroke-linecap="round" stroke-linejoin="round" stroke-width="2" stroke-dasharray="80 5"/>
      <path id="Path_1491354" data-name="Path 1491354" d="M387.91,18.98a3.843,3.843,0,0,1-3.844,3.844,3.963,3.963,0,0,1-3.844-3.844V17.665h7.586V18.98Z" transform="translate(-9193 -8578.346)" fill="#ef727a" stroke="#000" stroke-linecap="round" stroke-linejoin="round" stroke-width="2" stroke-dasharray="80 5"/>
      <rect id="Rectangle_425553" data-name="Rectangle 425553" width="7.587" height="8.801" transform="translate(-8812.677 -8569.482)" fill="#ef727a" stroke="#000" stroke-linecap="round" stroke-linejoin="round" stroke-width="2" stroke-dasharray="80 5"/>
      <path id="Path_1491355" data-name="Path 1491355" d="M406.725,45.484A1.315,1.315,0,1,1,405.41,46.8a1.275,1.275,0,0,1,1.315-1.315" transform="translate(-9193 -8578.346)" fill="#fff"/>
      <path id="Path_1491356" data-name="Path 1491356" d="M420.584,30.512a1.007,1.007,0,0,0-.4-.506c-.2-.1-.4-.3-.607-.405a6.936,6.936,0,0,0-.81-.3l-.3-.1V27.983c.2,0,.3.1.505.1.2.1.3.1.406.2s.2.1.3.2.1.1.2.1l.607-1.214a4.009,4.009,0,0,0-.91-.4c-.3-.1-.708-.2-1.012-.3v-.911h-.606v.911a2.388,2.388,0,0,0-.81.2,1.864,1.864,0,0,0-1.012,1.012,1.908,1.908,0,0,0-.2.809,1.285,1.285,0,0,0,.1.607c.1.2.2.3.3.506a2.241,2.241,0,0,0,.506.3c.2.1.506.2.708.3l.406.1v1.112c-.2,0-.406-.1-.608-.1-.2-.1-.4-.1-.506-.2-.2-.1-.3-.1-.4-.2a.313.313,0,0,0-.2-.1l-.608,1.214a4.689,4.689,0,0,0,1.012.506,5.087,5.087,0,0,0,1.214.2v1.011h.607V32.94c.3,0,.505-.1.809-.1.2-.1.506-.2.708-.3s.3-.3.506-.607a1.907,1.907,0,0,0,.2-.809.667.667,0,0,0-.1-.607M418.157,29.2c-.2-.1-.406-.1-.506-.2a.369.369,0,0,1-.1-.3c0-.3.2-.506.608-.506Zm.4,2.63V30.815c.2.1.4.1.506.2s.2.2.2.3a.675.675,0,0,1-.708.506" transform="translate(-9193 -8578.346)" fill="#d8f2f1"/>
      <path id="Path_1491357" data-name="Path 1491357" d="M398.734,29.3c-.2-.1-.4-.3-.607-.405a6.983,6.983,0,0,0-.809-.3l-.3-.1V27.275c.2,0,.3.1.506.1.2.1.3.1.4.2s.2.1.3.2.1.1.2.1l.606-1.214a3.944,3.944,0,0,0-.91-.4c-.3-.1-.708-.2-1.012-.3v-.911h-.607v.911a2.388,2.388,0,0,0-.809.2,2.1,2.1,0,0,0-.607.4,2.129,2.129,0,0,0-.4.607,1.907,1.907,0,0,0-.2.809,1.285,1.285,0,0,0,.1.607c.1.2.2.3.3.506a2.207,2.207,0,0,0,.5.3c.2.1.506.2.709.3l.4.1v1.112c-.2,0-.4-.1-.607-.1a.777.777,0,0,1-.506-.2c-.2-.1-.3-.1-.4-.2a.311.311,0,0,0-.2-.1l-.607,1.214a4.684,4.684,0,0,0,1.011.506,5.094,5.094,0,0,0,1.214.2v1.012h.607V32.231c.3,0,.506-.1.81-.1.2-.1.505-.2.708-.3s.3-.3.5-.607a1.9,1.9,0,0,0,.2-.809,1.5,1.5,0,0,0-.1-.708c-.1-.1-.2-.3-.4-.4m-2.124-.809c-.2-.1-.4-.1-.506-.2s-.2-.2-.2-.3c0-.3.2-.506.607-.506v1.012Zm.4,2.63V30.107c.2.1.4.1.506.2s.2.2.2.3c0,.4-.2.506-.708.506" transform="translate(-9193 -8578.346)" fill="#d8f2f1"/>
      <path id="Path_1491358" data-name="Path 1491358" d="M390.136,31.018c-.2-.1-.4-.3-.608-.4a6.724,6.724,0,0,0-.809-.3l-.3-.1V29c.2,0,.3.1.505.1.2.1.3.1.4.2s.2.1.3.2.1.1.2.1l.607-1.214a4,4,0,0,0-.911-.405c-.3-.1-.708-.2-1.011-.3v-.91h-.607v.91a2.376,2.376,0,0,0-.809.2,1.864,1.864,0,0,0-1.012,1.012,1.908,1.908,0,0,0-.2.809,1.285,1.285,0,0,0,.1.607c.1.2.2.3.3.506a2.243,2.243,0,0,0,.505.3,4.992,4.992,0,0,0,.708.3l.4.1v1.113c-.2,0-.4-.1-.607-.1-.2-.1-.4-.1-.506-.2-.2-.1-.3-.1-.4-.2a.314.314,0,0,0-.2-.1l-.606,1.214a4.776,4.776,0,0,0,1.011.506,5.085,5.085,0,0,0,1.214.2v1.011h.607V33.952c.3,0,.505-.1.809-.1.2-.1.506-.2.708-.3s.3-.3.506-.607a1.9,1.9,0,0,0,.2-.809,1.5,1.5,0,0,0-.1-.708l-.4-.405m-2.125-.809c-.2-.1-.4-.1-.506-.2a.374.374,0,0,1-.1-.3c0-.3.2-.506.607-.506Zm.4,2.63V31.828c.2.1.4.1.505.2s.2.2.2.3c0,.3-.3.505-.708.505" transform="translate(-9193 -8578.346)" fill="#d8f2f1"/>
    </g>
  </g>
</svg>
