<svg xmlns="http://www.w3.org/2000/svg" width="98" height="97.999" viewBox="0 0 98 97.999">
  <g id="Group_1228905" data-name="Group 1228905" transform="translate(-803.781 -1972.016)">
    <g id="Group_1204143" data-name="Group 1204143" transform="translate(-67.331 1694.852)">
      <g id="Group_1188789" data-name="Group 1188789" transform="translate(871.113 277.164)">
        <path id="Path_1243039" data-name="Path 1243039" d="M41.05,0h0a41.05,41.05,0,0,1,0,82.1h0a41.05,41.05,0,0,1,0-82.1Z" transform="translate(7.951 7.949)" fill="#fdcae3"/>
        <rect id="Rectangle_400907" data-name="Rectangle 400907" width="88.438" height="88.437" rx="44.218" transform="translate(4.782 4.781)" fill="none"/>
        <g id="Group_1098742" data-name="Group 1098742" transform="translate(0)">
          <g id="Rectangle_400898" data-name="Rectangle 400898" transform="translate(0)" fill="none" stroke="#fff" stroke-width="2" opacity="0.859">
            <rect width="98" height="97.999" rx="48.999" stroke="none"/>
            <rect x="1" y="1" width="96" height="95.999" rx="47.999" fill="none"/>
          </g>
          <g id="Rectangle_400907-2" data-name="Rectangle 400907" transform="translate(0)" fill="none" stroke="#0f1f33" stroke-linecap="round" stroke-width="2">
            <rect width="98" height="97.999" rx="48.999" stroke="none"/>
            <rect x="1" y="1" width="96" height="95.999" rx="47.999" fill="none"/>
          </g>
        </g>
      </g>
    </g>
    <g id="Group_1228936" data-name="Group 1228936" transform="translate(1751.379 10262.6)">
      <path id="Path_1491543" data-name="Path 1491543" d="M122.961,12.609H102.774V50.258a3.4,3.4,0,0,0,3.432,3.432H148.6a3.4,3.4,0,0,0,3.431-3.432V12.609Z" transform="translate(-1026 -8271)" fill="#f2f2f2" stroke="#000" stroke-linecap="round" stroke-linejoin="round" stroke-width="2" stroke-dasharray="80 5"/>
      <rect id="Rectangle_425599" data-name="Rectangle 425599" width="39.163" height="27.757" transform="translate(-918.179 -8253.344)" fill="#87c7ff" stroke="#000" stroke-linecap="round" stroke-linejoin="round" stroke-width="2" stroke-dasharray="80 5"/>
      <path id="Path_1491544" data-name="Path 1491544" d="M111.657,26.539V21.492h31.592v7.57H111.657Zm10.7,0a.606.606,0,1,0-.605.6.651.651,0,0,0,.605-.6" transform="translate(-1026 -8271)" fill="#f2f2f2" stroke="#000" stroke-linecap="round" stroke-linejoin="round" stroke-width="2" stroke-dasharray="80 5"/>
      <path id="Path_1491545" data-name="Path 1491545" d="M140.12,38.449,138.2,39.963l.707,2.321-2.019-1.413-1.918,1.413.707-2.321-2.019-1.514h2.524l.706-2.321.808,2.321Z" transform="translate(-1026 -8271)" fill="#ffd15c" stroke="#000" stroke-linecap="round" stroke-linejoin="round" stroke-width="1" stroke-dasharray="80 5"/>
      <path id="Path_1491546" data-name="Path 1491546" d="M133.055,35.521l-3.432,2.423,1.312,3.936L127.6,39.458l-3.431,2.423,1.312-3.936-3.331-2.423h4.138l1.312-3.936,1.212,3.936Z" transform="translate(-1026 -8271)" fill="#ffd15c" stroke="#000" stroke-linecap="round" stroke-linejoin="round" stroke-width="1" stroke-dasharray="80 5"/>
      <path id="Path_1491547" data-name="Path 1491547" d="M121.75,25.933a.605.605,0,1,1-.606.6.605.605,0,0,1,.606-.6" transform="translate(-1026 -8271)" fill="#dddcdb"/>
      <path id="Path_1491548" data-name="Path 1491548" d="M121.044,38.449l-1.918,1.514.706,2.321-2.018-1.413L115.9,42.284l.707-2.321-2.019-1.514h2.524l.706-2.321.808,2.321Z" transform="translate(-1026 -8271)" fill="#ffd15c" stroke="#000" stroke-linecap="round" stroke-linejoin="round" stroke-width="1" stroke-dasharray="80 5"/>
      <path id="Path_1491549" data-name="Path 1491549" d="M119.832,25.933h-8.176v1.312h8.176a.652.652,0,0,0,.606-.605c0-.3-.3-.707-.606-.707" transform="translate(-1026 -8271)" fill="#dddcdb" stroke="#000" stroke-linecap="round" stroke-linejoin="round" stroke-width="1" stroke-dasharray="80 5"/>
      <rect id="Rectangle_425600" data-name="Rectangle 425600" width="39.163" height="3.129" transform="translate(-918.179 -8225.688)" fill="#65b1fc" stroke="#000" stroke-linecap="round" stroke-linejoin="round" stroke-width="2" stroke-dasharray="80 5"/>
      <path id="Path_1491550" data-name="Path 1491550" d="M148.6,5.241H106.206a3.4,3.4,0,0,0-3.431,3.432v4.138h49.256V8.572A3.383,3.383,0,0,0,148.6,5.241" transform="translate(-1026 -8271)" fill="#555a66" stroke="#000" stroke-linecap="round" stroke-linejoin="round" stroke-width="2" stroke-dasharray="80 5"/>
      <rect id="Rectangle_425601" data-name="Rectangle 425601" width="29.069" height="3.835" transform="translate(-903.039 -8262.023)" fill="#22282d" stroke="#000" stroke-linecap="round" stroke-linejoin="round" stroke-width="2" stroke-dasharray="80 5"/>
      <path id="Path_1491551" data-name="Path 1491551" d="M152.031,8.572v.4H122.962V5.14H148.6a3.537,3.537,0,0,1,3.432,3.432" transform="translate(-1026 -8271)" fill="#333940" stroke="#000" stroke-linecap="round" stroke-linejoin="round" stroke-width="2" stroke-dasharray="80 5"/>
      <path id="Path_1491552" data-name="Path 1491552" d="M106.206,5.241a3.4,3.4,0,0,0-3.432,3.432v4.138h20.187V5.14H106.206Z" transform="translate(-1026 -8271)" fill="#555a66" stroke="#000" stroke-linecap="round" stroke-linejoin="round" stroke-width="2" stroke-dasharray="80 5"/>
      <path id="Path_1491553" data-name="Path 1491553" d="M115.391,7.765a1.312,1.312,0,1,1-1.312,1.312,1.335,1.335,0,0,1,1.312-1.312" transform="translate(-1026 -8271)" fill="#f0582f"/>
      <path id="Path_1491554" data-name="Path 1491554" d="M111.657,7.765a1.312,1.312,0,1,1-1.312,1.312,1.272,1.272,0,0,1,1.312-1.312" transform="translate(-1026 -8271)" fill="#07cc66"/>
      <path id="Path_1491555" data-name="Path 1491555" d="M107.821,7.765a1.312,1.312,0,1,1-1.312,1.312,1.335,1.335,0,0,1,1.312-1.312" transform="translate(-1026 -8271)" fill="#f5ea0a"/>
    </g>
  </g>
</svg>
