<svg xmlns="http://www.w3.org/2000/svg" width="98" height="97.999" viewBox="0 0 98 97.999">
  <g id="Group_1228904" data-name="Group 1228904" transform="translate(-803.781 -1972.016)">
    <g id="Group_1204143" data-name="Group 1204143" transform="translate(-67.331 1694.852)">
      <g id="Group_1188789" data-name="Group 1188789" transform="translate(871.113 277.164)">
        <path id="Path_1243039" data-name="Path 1243039" d="M41.05,0h0a41.05,41.05,0,0,1,0,82.1h0a41.05,41.05,0,0,1,0-82.1Z" transform="translate(7.951 7.949)" fill="#fdcae3"/>
        <rect id="Rectangle_400907" data-name="Rectangle 400907" width="88.438" height="88.437" rx="44.218" transform="translate(4.782 4.781)" fill="none"/>
        <g id="Group_1098742" data-name="Group 1098742" transform="translate(0)">
          <g id="Rectangle_400898" data-name="Rectangle 400898" transform="translate(0)" fill="none" stroke="#fff" stroke-width="2" opacity="0.859">
            <rect width="98" height="97.999" rx="48.999" stroke="none"/>
            <rect x="1" y="1" width="96" height="95.999" rx="47.999" fill="none"/>
          </g>
          <g id="Rectangle_400907-2" data-name="Rectangle 400907" transform="translate(0)" fill="none" stroke="#0f1f33" stroke-linecap="round" stroke-width="2">
            <rect width="98" height="97.999" rx="48.999" stroke="none"/>
            <rect x="1" y="1" width="96" height="95.999" rx="47.999" fill="none"/>
          </g>
        </g>
      </g>
    </g>
    <g id="Group_1228937" data-name="Group 1228937" transform="translate(1647.268 10261.815)">
      <path id="Path_1491534" data-name="Path 1491534" d="M253.833,28.914l-5.049,5H215.961l-5.05-5Z" transform="translate(-1026 -8271)" fill="#bec3c7" stroke="#000" stroke-linecap="round" stroke-linejoin="round" stroke-width="2" stroke-dasharray="80 5"/>
      <path id="Path_1491535" data-name="Path 1491535" d="M246.36,5.714v19.4H240.8V9.514a58.764,58.764,0,0,0,5.555-3.8" transform="translate(-1026 -8271)" fill="#8da6b4" stroke="#000" stroke-linecap="round" stroke-linejoin="round" stroke-width="2" stroke-dasharray="80 5"/>
      <path id="Path_1491536" data-name="Path 1491536" d="M240.8,9.513v15.7h-5.656v-12.7c2.121-1,4.04-2.1,5.656-3" transform="translate(-1026 -8271)" fill="#00dd80" stroke="#000" stroke-linecap="round" stroke-linejoin="round" stroke-width="2" stroke-dasharray="80 5"/>
      <path id="Path_1491537" data-name="Path 1491537" d="M235.149,12.513v12.7h-5.555v-10.4c1.919-.7,3.838-1.5,5.555-2.3" transform="translate(-1026 -8271)" fill="#ff9f22" stroke="#000" stroke-linecap="round" stroke-linejoin="round" stroke-width="2" stroke-dasharray="80 5"/>
      <path id="Path_1491538" data-name="Path 1491538" d="M229.594,14.813v10.3h-5.555v-8.8a56.474,56.474,0,0,0,5.555-1.5" transform="translate(-1026 -8271)" fill="#ff3939" stroke="#000" stroke-linecap="round" stroke-linejoin="round" stroke-width="2" stroke-dasharray="80 5"/>
      <path id="Path_1491539" data-name="Path 1491539" d="M223.939,16.313v8.8h-5.555v-8.2a25.547,25.547,0,0,0,5.555-.6" transform="translate(-1026 -8271)" fill="#6aa9ff" stroke="#000" stroke-linecap="round" stroke-linejoin="round" stroke-width="2" stroke-dasharray="80 5"/>
      <path id="Path_1491540" data-name="Path 1491540" d="M220.708,54.513l-2.021,4.5-10-4.4,2.02-4.6.2.1,9.291,4.1Z" transform="translate(-1026 -8271)" fill="#738993" stroke="#000" stroke-linecap="round" stroke-linejoin="round" stroke-width="2" stroke-dasharray="80 5"/>
      <path id="Path_1491541" data-name="Path 1491541" d="M254.339,41.214a4,4,0,0,1-.3,1.5,3.526,3.526,0,0,1-1.818,1.8l-12.725,5.7a15.008,15.008,0,0,1-12.22,0,4.394,4.394,0,0,0-5.657,2.1l-.908,2-.506-.1-9.291-4.1-.2-.1,1.314-3a14.2,14.2,0,0,1,18.683-7.1l1.01.4a15.279,15.279,0,0,0,12.221,0l5.252-2.3a3.614,3.614,0,0,1,5.151,3.2" transform="translate(-1026 -8271)" fill="#d6c496" stroke="#000" stroke-linecap="round" stroke-linejoin="round" stroke-width="2" stroke-dasharray="80 5"/>
      <path id="Path_1491542" data-name="Path 1491542" d="M218.384,14.214a1.209,1.209,0,0,1-1.212-1.1,1.248,1.248,0,0,1,1.111-1.4,47.838,47.838,0,0,0,23.532-10,1.292,1.292,0,0,1,1.817.1,1.263,1.263,0,0,1-.1,1.8,47.38,47.38,0,0,1-6.868,4.6,51.2,51.2,0,0,1-17.976,6Z" transform="translate(-1026 -8271)" fill="#5a5a5a" stroke="#000" stroke-linecap="round" stroke-linejoin="round" stroke-width="2" stroke-dasharray="80 5"/>
    </g>
  </g>
</svg>
