<svg xmlns="http://www.w3.org/2000/svg" width="98" height="97.999" viewBox="0 0 98 97.999">
  <g id="Group_1228956" data-name="Group 1228956" transform="translate(-803.781 -1972.016)">
    <g id="Group_1204143" data-name="Group 1204143" transform="translate(-67.331 1694.852)">
      <g id="Group_1188789" data-name="Group 1188789" transform="translate(871.113 277.164)">
        <path id="Path_1243039" data-name="Path 1243039" d="M41.05,0h0a41.05,41.05,0,0,1,0,82.1h0a41.05,41.05,0,0,1,0-82.1Z" transform="translate(7.951 7.949)" fill="#ffa724"/>
        <rect id="Rectangle_400907" data-name="Rectangle 400907" width="88.438" height="88.437" rx="44.218" transform="translate(4.782 4.781)" fill="none"/>
        <g id="Group_1098742" data-name="Group 1098742" transform="translate(0)">
          <g id="Rectangle_400898" data-name="Rectangle 400898" transform="translate(0)" fill="none" stroke="#fff" stroke-width="2" opacity="0.859">
            <rect width="98" height="97.999" rx="48.999" stroke="none"/>
            <rect x="1" y="1" width="96" height="95.999" rx="47.999" fill="none"/>
          </g>
          <g id="Rectangle_400907-2" data-name="Rectangle 400907" transform="translate(0)" fill="none" stroke="#0f1f33" stroke-linecap="round" stroke-width="2">
            <rect width="98" height="97.999" rx="48.999" stroke="none"/>
            <rect x="1" y="1" width="96" height="95.999" rx="47.999" fill="none"/>
          </g>
        </g>
      </g>
    </g>
    <g id="Group_1229000" data-name="Group 1229000" transform="translate(-5287.457 -532.675)">
      <path id="Path_1491803" data-name="Path 1491803" d="M335.93,50.328v2.523h12.617V50.328h18.975a3.836,3.836,0,1,1,0,7.671H316.954a3.836,3.836,0,1,1,0-7.671Z" transform="translate(5798 2518.452)" fill="#414a56" stroke="#000" stroke-linecap="round" stroke-linejoin="round" stroke-width="2" stroke-dasharray="80 5"/>
      <path id="Path_1491804" data-name="Path 1491804" d="M368.733,45.786a4.523,4.523,0,0,1-4.542,4.542H348.547v2.523H335.93V50.328H320.285a4.523,4.523,0,0,1-4.542-4.542V17.121a4.523,4.523,0,0,1,4.542-4.543h43.8a4.523,4.523,0,0,1,4.542,4.543V45.786Z" transform="translate(5798 2518.452)" fill="#57606f" stroke="#000" stroke-linecap="round" stroke-linejoin="round" stroke-width="2" stroke-dasharray="80 5"/>
      <rect id="Rectangle_425683" data-name="Rectangle 425683" width="44.21" height="27.757" transform="translate(6118.083 2536.582)" fill="#fff" stroke="#000" stroke-linecap="round" stroke-linejoin="round" stroke-width="2" stroke-dasharray="80 5"/>
      <rect id="Rectangle_425684" data-name="Rectangle 425684" width="6.965" height="2.523" transform="translate(6154.722 2568.78)" fill="#7d89aa" stroke="#000" stroke-linecap="round" stroke-linejoin="round" stroke-width="2" stroke-dasharray="80 5"/>
      <rect id="Rectangle_425685" data-name="Rectangle 425685" width="6.964" height="2.523" transform="translate(6118.79 2568.78)" fill="#7d89aa" stroke="#000" stroke-linecap="round" stroke-linejoin="round" stroke-width="2" stroke-dasharray="80 5"/>
      <path id="Path_1491805" data-name="Path 1491805" d="M330.883,33.27a6.359,6.359,0,1,1-6.359,6.359,6.332,6.332,0,0,1,6.359-6.359" transform="translate(5798 2518.452)" fill="#fc6" stroke="#000" stroke-linecap="round" stroke-linejoin="round" stroke-width="2" stroke-dasharray="80 5"/>
      <path id="Path_1491806" data-name="Path 1491806" d="M353.594,21.359V25.8a3.835,3.835,0,1,1-7.671,0V21.359Z" transform="translate(5798 2518.452)" fill="#a0b5c5" stroke="#000" stroke-linecap="round" stroke-linejoin="round" stroke-width="2" stroke-dasharray="80 5"/>
      <path id="Path_1491807" data-name="Path 1491807" d="M338.453,21.359V25.8a3.835,3.835,0,1,1-7.671,0V21.359Z" transform="translate(5798 2518.452)" fill="#a0b5c5" stroke="#000" stroke-linecap="round" stroke-linejoin="round" stroke-width="2" stroke-dasharray="80 5"/>
      <path id="Path_1491808" data-name="Path 1491808" d="M347.84,12.477l5.754,8.882h-7.57l-1.918-8.882Z" transform="translate(5798 2518.452)" fill="#d0dce7" stroke="#000" stroke-linecap="round" stroke-linejoin="round" stroke-width="2" stroke-dasharray="80 5"/>
      <path id="Path_1491809" data-name="Path 1491809" d="M340.27,12.477l-1.817,8.882h-7.57l5.653-8.882Z" transform="translate(5798 2518.452)" fill="#d0dce7" stroke="#000" stroke-linecap="round" stroke-linejoin="round" stroke-width="2" stroke-dasharray="80 5"/>
      <path id="Path_1491810" data-name="Path 1491810" d="M361.164,21.359V25.8a3.836,3.836,0,1,1-7.672,0V21.359Z" transform="translate(5798 2518.452)" fill="#e83a70" stroke="#000" stroke-linecap="round" stroke-linejoin="round" stroke-width="2" stroke-dasharray="80 5"/>
      <path id="Path_1491811" data-name="Path 1491811" d="M346.023,21.359V25.8a3.836,3.836,0,1,1-7.671,0V21.359Z" transform="translate(5798 2518.452)" fill="#e83a70" stroke="#000" stroke-linecap="round" stroke-linejoin="round" stroke-width="2" stroke-dasharray="80 5"/>
      <path id="Path_1491812" data-name="Path 1491812" d="M330.883,21.359V25.8a3.835,3.835,0,1,1-7.671,0V21.359Z" transform="translate(5798 2518.452)" fill="#e83a70" stroke="#000" stroke-linecap="round" stroke-linejoin="round" stroke-width="2" stroke-dasharray="80 5"/>
      <path id="Path_1491813" data-name="Path 1491813" d="M361.164,21.359h-7.57l-5.754-8.882h4.441l5.653,5.652Z" transform="translate(5798 2518.452)" fill="#ff5987" stroke="#000" stroke-linecap="round" stroke-linejoin="round" stroke-width="2" stroke-dasharray="80 5"/>
      <path id="Path_1491814" data-name="Path 1491814" d="M344.105,12.477l1.918,8.882h-7.57l1.816-8.882Z" transform="translate(5798 2518.452)" fill="#ff5987" stroke="#000" stroke-linecap="round" stroke-linejoin="round" stroke-width="2" stroke-dasharray="80 5"/>
      <path id="Path_1491815" data-name="Path 1491815" d="M336.535,12.477l-5.652,8.882h-7.571l3.13-3.23,5.652-5.652Z" transform="translate(5798 2518.452)" fill="#ff5987" stroke="#000" stroke-linecap="round" stroke-linejoin="round" stroke-width="2" stroke-dasharray="80 5"/>
      <path id="Path_1491816" data-name="Path 1491816" d="M331.994,39.225a4.157,4.157,0,0,0-.909-.3v-1.01a3.555,3.555,0,0,1,1.211.505l.505-1.009a4.844,4.844,0,0,0-.706-.3,2.949,2.949,0,0,0-.909-.2V36.2h-.5V36.9a1.833,1.833,0,0,0-1.514,1.009,1.282,1.282,0,0,0,0,1.211,1.589,1.589,0,0,0,.706.707,2.677,2.677,0,0,0,1.009.3v1.009a3.808,3.808,0,0,1-1.413-.6l-.5,1.009a3.1,3.1,0,0,0,1.917.6v.808h.505v-.808A1.711,1.711,0,0,0,333,41.243a1.5,1.5,0,0,0,.1-.706,2.048,2.048,0,0,0-1.11-1.312m-1.312-.3c-.2-.1-.3-.1-.4-.2a.371.371,0,0,1-.1-.3c0-.3.2-.4.505-.4Zm.4,2.22v-.908c.2.1.3.1.4.2s.2.2.2.3a.58.58,0,0,1-.606.4" transform="translate(5798 2518.452)" fill="#fff"/>
      <path id="Path_1491817" data-name="Path 1491817" d="M342.188,35.187h7.57a.605.605,0,0,0,0-1.211h-7.57a.605.605,0,0,0,0,1.211" transform="translate(5798 2518.452)" fill="#a0b5c5"/>
      <path id="Path_1491818" data-name="Path 1491818" d="M342.188,37.711h17.664a.605.605,0,0,0,0-1.211H342.188a.605.605,0,0,0,0,1.211" transform="translate(5798 2518.452)" fill="#a0b5c5"/>
      <path id="Path_1491819" data-name="Path 1491819" d="M342.188,40.234h7.57a.606.606,0,0,0,0-1.211h-7.57a.606.606,0,0,0,0,1.211" transform="translate(5798 2518.452)" fill="#a0b5c5"/>
      <path id="Path_1491820" data-name="Path 1491820" d="M359.851,41.546H342.187a.605.605,0,0,0,0,1.211h17.664a.605.605,0,0,0,0-1.211" transform="translate(5798 2518.452)" fill="#a0b5c5"/>
    </g>
  </g>
</svg>
