<svg xmlns="http://www.w3.org/2000/svg" width="98" height="97.999" viewBox="0 0 98 97.999">
  <g id="Group_1228957" data-name="Group 1228957" transform="translate(-803.781 -1972.016)">
    <g id="Group_1204143" data-name="Group 1204143" transform="translate(-67.331 1694.852)">
      <g id="Group_1188789" data-name="Group 1188789" transform="translate(871.113 277.164)">
        <path id="Path_1243039" data-name="Path 1243039" d="M41.05,0h0a41.05,41.05,0,0,1,0,82.1h0a41.05,41.05,0,0,1,0-82.1Z" transform="translate(7.951 7.949)" fill="#ffa724"/>
        <rect id="Rectangle_400907" data-name="Rectangle 400907" width="88.438" height="88.437" rx="44.218" transform="translate(4.782 4.781)" fill="none"/>
        <g id="Group_1098742" data-name="Group 1098742" transform="translate(0)">
          <g id="Rectangle_400898" data-name="Rectangle 400898" transform="translate(0)" fill="none" stroke="#fff" stroke-width="2" opacity="0.859">
            <rect width="98" height="97.999" rx="48.999" stroke="none"/>
            <rect x="1" y="1" width="96" height="95.999" rx="47.999" fill="none"/>
          </g>
          <g id="Rectangle_400907-2" data-name="Rectangle 400907" transform="translate(0)" fill="none" stroke="#0f1f33" stroke-linecap="round" stroke-width="2">
            <rect width="98" height="97.999" rx="48.999" stroke="none"/>
            <rect x="1" y="1" width="96" height="95.999" rx="47.999" fill="none"/>
          </g>
        </g>
      </g>
    </g>
    <g id="Group_1229002" data-name="Group 1229002" transform="translate(-5541.263 -529.408)">
      <path id="Path_1491793" data-name="Path 1491793" d="M596.044,45.446A20.744,20.744,0,0,1,582.821,40.7V59.98l13.223-5.753,13.223,5.653V40.7a20.745,20.745,0,0,1-13.223,4.744" transform="translate(5798 2518.452)" fill="#ff7058" stroke="#000" stroke-linecap="round" stroke-linejoin="round" stroke-width="2" stroke-dasharray="80 5"/>
      <path id="Path_1491794" data-name="Path 1491794" d="M609.267,40.7V59.98l-13.223-5.753V45.345A20.113,20.113,0,0,0,609.267,40.7" transform="translate(5798 2518.452)" fill="#e04434" stroke="#000" stroke-linecap="round" stroke-linejoin="round" stroke-width="2" stroke-dasharray="80 5"/>
      <path id="Path_1491795" data-name="Path 1491795" d="M585.345,53.622a.652.652,0,0,1-.606-.606V46.052a.605.605,0,1,1,1.211,0v6.964a.651.651,0,0,1-.605.606" transform="translate(5798 2518.452)" fill="#e04434"/>
      <path id="Path_1491796" data-name="Path 1491796" d="M587.868,54.933a.652.652,0,0,1-.606-.6V49.281a.605.605,0,1,1,1.211,0v5.047a.651.651,0,0,1-.605.6" transform="translate(5798 2518.452)" fill="#e04434"/>
      <path id="Path_1491797" data-name="Path 1491797" d="M604.22,53.622a.652.652,0,0,1-.606-.606V47.363a.605.605,0,0,1,1.211,0v5.653c.1.3-.2.606-.605.606" transform="translate(5798 2518.452)" fill="#cc322b"/>
      <path id="Path_1491798" data-name="Path 1491798" d="M606.743,54.933a.652.652,0,0,1-.606-.6V50.493a.606.606,0,1,1,1.211,0v3.835c.1.3-.2.6-.605.6" transform="translate(5798 2518.452)" fill="#cc322b"/>
      <path id="Path_1491799" data-name="Path 1491799" d="M596.044,3.962a20.794,20.794,0,1,0,20.793,20.793A20.762,20.762,0,0,0,596.044,3.962" transform="translate(5798 2518.452)" fill="#ffd15c" stroke="#000" stroke-linecap="round" stroke-linejoin="round" stroke-width="2" stroke-dasharray="80 5"/>
      <path id="Path_1491800" data-name="Path 1491800" d="M596.044,9.614a15.14,15.14,0,1,0,15.141,15.141A15.121,15.121,0,0,0,596.044,9.614" transform="translate(5798 2518.452)" fill="#e29e3b" stroke="#000" stroke-linecap="round" stroke-linejoin="round" stroke-width="2" stroke-dasharray="80 5"/>
      <path id="Path_1491801" data-name="Path 1491801" d="M596.044,12.945a11.809,11.809,0,1,0,11.81,11.81,11.76,11.76,0,0,0-11.81-11.81" transform="translate(5798 2518.452)" fill="#f2f2f2" stroke="#000" stroke-linecap="round" stroke-linejoin="round" stroke-width="2" stroke-dasharray="80 5"/>
      <path id="Path_1491802" data-name="Path 1491802" d="M603.614,22.635l-4.643,3.432,1.716,5.551-4.643-3.431L591.4,31.618l1.716-5.551-4.644-3.432h5.754l1.817-5.45,1.817,5.45Z" transform="translate(5798 2518.452)" fill="#07cc66" stroke="#000" stroke-linecap="round" stroke-linejoin="round" stroke-width="2" stroke-dasharray="80 5"/>
    </g>
  </g>
</svg>
