<svg xmlns="http://www.w3.org/2000/svg" width="98" height="97.998" viewBox="0 0 98 97.998">
  <g id="Group_1228954" data-name="Group 1228954" transform="translate(-803.781 -1972.016)">
    <g id="Group_1204143" data-name="Group 1204143" transform="translate(-67.331 1694.852)">
      <g id="Group_1188789" data-name="Group 1188789" transform="translate(871.113 277.164)">
        <path id="Path_1243039" data-name="Path 1243039" d="M41.05,0h0a41.05,41.05,0,0,1,0,82.1h0a41.05,41.05,0,0,1,0-82.1Z" transform="translate(7.951 7.949)" fill="#ffa724"/>
        <rect id="Rectangle_400907" data-name="Rectangle 400907" width="88.438" height="88.437" rx="44.218" transform="translate(4.782 4.781)" fill="none"/>
        <g id="Group_1098742" data-name="Group 1098742" transform="translate(0)">
          <g id="Rectangle_400898" data-name="Rectangle 400898" transform="translate(0)" fill="none" stroke="#fff" stroke-width="2" opacity="0.859">
            <rect width="98" height="97.999" rx="48.999" stroke="none"/>
            <rect x="1" y="1" width="96" height="95.999" rx="47.999" fill="none"/>
          </g>
          <g id="Rectangle_400907-2" data-name="Rectangle 400907" transform="translate(0)" fill="none" stroke="#0f1f33" stroke-linecap="round" stroke-width="2">
            <rect width="98" height="97.999" rx="48.999" stroke="none"/>
            <rect x="1" y="1" width="96" height="95.999" rx="47.999" fill="none"/>
          </g>
        </g>
      </g>
    </g>
    <g id="Group_1228999" data-name="Group 1228999" transform="translate(-5132.698 -526.437)">
      <path id="Path_1491772" data-name="Path 1491772" d="M198.588,3.7a12.283,12.283,0,0,0-17.573,0,11.829,11.829,0,0,0-3.333,8.3,12.1,12.1,0,0,0,3.333,8.3,12.283,12.283,0,0,0,17.573,0,11.829,11.829,0,0,0,3.333-8.3,11.829,11.829,0,0,0-3.333-8.3" transform="translate(5798 2518.452)" fill="#558ec6" stroke="#000" stroke-linecap="round" stroke-linejoin="round" stroke-width="2" stroke-dasharray="80 5"/>
      <path id="Path_1491773" data-name="Path 1491773" d="M201.012,24.1v3.8H178.288V24.1h22.724Z" transform="translate(5798 2518.452)" fill="#a56a42" stroke="#000" stroke-linecap="round" stroke-linejoin="round" stroke-width="2" stroke-dasharray="80 5"/>
      <path id="Path_1491774" data-name="Path 1491774" d="M208.587,27.9l-4.545,5H175.158l-4.444-5h37.873Z" transform="translate(5798 2518.452)" fill="#c47e4e" stroke="#000" stroke-linecap="round" stroke-linejoin="round" stroke-width="2" stroke-dasharray="80 5"/>
      <path id="Path_1491775" data-name="Path 1491775" d="M195.356,6.1A11.651,11.651,0,0,1,189.8,7.4V0c2.424,0,4.443,2.5,5.554,6.1" transform="translate(5798 2518.452)" fill="#558ec6" stroke="#000" stroke-linecap="round" stroke-linejoin="round" stroke-width="2" stroke-dasharray="80 5"/>
      <path id="Path_1491776" data-name="Path 1491776" d="M202.022,12.1h-5.858a20.853,20.853,0,0,0-.808-5.9,10.86,10.86,0,0,0,3.232-2.4,11.567,11.567,0,0,1,3.434,8.3" transform="translate(5798 2518.452)" fill="#558ec6" stroke="#000" stroke-linecap="round" stroke-linejoin="round" stroke-width="2" stroke-dasharray="80 5"/>
      <path id="Path_1491777" data-name="Path 1491777" d="M198.588,20.4a12.179,12.179,0,0,1-8.786,3.7c2.424,0,4.443-2.5,5.554-6.1a10.86,10.86,0,0,1,3.232,2.4" transform="translate(5798 2518.452)" fill="#558ec6" stroke="#000" stroke-linecap="round" stroke-linejoin="round" stroke-width="2" stroke-dasharray="80 5"/>
      <path id="Path_1491778" data-name="Path 1491778" d="M189.8,12.1h6.362a20.817,20.817,0,0,1-.808,5.9,12.946,12.946,0,0,0-5.554-1.3Z" transform="translate(5798 2518.452)" fill="#558ec6" stroke="#000" stroke-linecap="round" stroke-linejoin="round" stroke-width="2" stroke-dasharray="80 5"/>
      <path id="Path_1491779" data-name="Path 1491779" d="M189.8,16.7v7.5c-2.424,0-4.444-2.5-5.555-6.1a10.676,10.676,0,0,1,5.555-1.4" transform="translate(5798 2518.452)" fill="#558ec6" stroke="#000" stroke-linecap="round" stroke-linejoin="round" stroke-width="2" stroke-dasharray="80 5"/>
      <path id="Path_1491780" data-name="Path 1491780" d="M183.439,12.1a20.853,20.853,0,0,0,.808,5.9,10.86,10.86,0,0,0-3.232,2.4,11.829,11.829,0,0,1-3.333-8.3Z" transform="translate(5798 2518.452)" fill="#558ec6" stroke="#000" stroke-linecap="round" stroke-linejoin="round" stroke-width="2" stroke-dasharray="80 5"/>
      <path id="Path_1491781" data-name="Path 1491781" d="M189.8,0c-2.424,0-4.444,2.5-5.555,6.1a10.86,10.86,0,0,1-3.232-2.4A12.181,12.181,0,0,1,189.8,0" transform="translate(5798 2518.452)" fill="#558ec6" stroke="#000" stroke-linecap="round" stroke-linejoin="round" stroke-width="2" stroke-dasharray="80 5"/>
      <path id="Path_1491782" data-name="Path 1491782" d="M189.8,7.5v4.6h-6.363a20.853,20.853,0,0,1,.808-5.9A12.95,12.95,0,0,0,189.8,7.5" transform="translate(5798 2518.452)" fill="#558ec6" stroke="#000" stroke-linecap="round" stroke-linejoin="round" stroke-width="2" stroke-dasharray="80 5"/>
      <path id="Path_1491783" data-name="Path 1491783" d="M184.247,18c1.111,3.7,3.13,6.1,5.555,6.1a12.181,12.181,0,0,1-8.787-3.7,10.86,10.86,0,0,1,3.232-2.4" transform="translate(5798 2518.452)" fill="#6aa9ff" stroke="#000" stroke-linecap="round" stroke-linejoin="round" stroke-width="2" stroke-dasharray="80 5"/>
      <path id="Path_1491784" data-name="Path 1491784" d="M184.247,6.1a21.933,21.933,0,0,0-.808,5.9h-5.757a12.1,12.1,0,0,1,3.333-8.3,10.86,10.86,0,0,0,3.232,2.4" transform="translate(5798 2518.452)" fill="#6aa9ff" stroke="#000" stroke-linecap="round" stroke-linejoin="round" stroke-width="2" stroke-dasharray="80 5"/>
      <path id="Path_1491785" data-name="Path 1491785" d="M210.3,40.2a3.978,3.978,0,0,1-.3,1.5,3.53,3.53,0,0,1-1.818,1.8l-12.624,5.7a15.008,15.008,0,0,1-12.22,0,4.393,4.393,0,0,0-5.656,2.1l-.909,2-.505-.2-9.392-4-.2-.1,1.313-3a14.2,14.2,0,0,1,18.684-7.1l1.009.4a15.279,15.279,0,0,0,12.221,0l5.251-2.3a3.614,3.614,0,0,1,5.151,3.2" transform="translate(5798 2518.452)" fill="#f2deb9" stroke="#000" stroke-linecap="round" stroke-linejoin="round" stroke-width="2" stroke-dasharray="80 5"/>
      <path id="Path_1491786" data-name="Path 1491786" d="M196.165,12.1h5.756a12.1,12.1,0,0,1-3.332,8.3,10.864,10.864,0,0,0-3.233-2.4,21.932,21.932,0,0,0,.809-5.9" transform="translate(5798 2518.452)" fill="#6aa9ff" stroke="#000" stroke-linecap="round" stroke-linejoin="round" stroke-width="2" stroke-dasharray="80 5"/>
      <path id="Path_1491787" data-name="Path 1491787" d="M198.588,3.7h0a10.86,10.86,0,0,1-3.232,2.4C194.245,2.4,192.226,0,189.8,0a12.008,12.008,0,0,1,8.786,3.7" transform="translate(5798 2518.452)" fill="#6aa9ff" stroke="#000" stroke-linecap="round" stroke-linejoin="round" stroke-width="2" stroke-dasharray="80 5"/>
      <path id="Path_1491788" data-name="Path 1491788" d="M196.165,12.1H189.8V7.5a12.606,12.606,0,0,0,5.554-1.3,20.851,20.851,0,0,1,.809,5.9" transform="translate(5798 2518.452)" fill="#6aa9ff" stroke="#000" stroke-linecap="round" stroke-linejoin="round" stroke-width="2" stroke-dasharray="80 5"/>
      <path id="Path_1491789" data-name="Path 1491789" d="M189.8,16.7a12.6,12.6,0,0,1,5.554,1.3c-1.111,3.7-3.13,6.1-5.554,6.1Z" transform="translate(5798 2518.452)" fill="#6aa9ff" stroke="#000" stroke-linecap="round" stroke-linejoin="round" stroke-width="2" stroke-dasharray="80 5"/>
      <path id="Path_1491790" data-name="Path 1491790" d="M189.8,12.1v4.6a12.61,12.61,0,0,0-5.555,1.3,21.933,21.933,0,0,1-.808-5.9Z" transform="translate(5798 2518.452)" fill="#6aa9ff" stroke="#000" stroke-linecap="round" stroke-linejoin="round" stroke-width="2" stroke-dasharray="80 5"/>
      <path id="Path_1491791" data-name="Path 1491791" d="M189.8,0V7.5a12.61,12.61,0,0,1-5.555-1.3C185.358,2.5,187.479,0,189.8,0" transform="translate(5798 2518.452)" fill="#6aa9ff" stroke="#000" stroke-linecap="round" stroke-linejoin="round" stroke-width="2" stroke-dasharray="80 5"/>
      <path id="Path_1491792" data-name="Path 1491792" d="M176.673,53.4l-2.02,4.6-10-4.4,2.019-4.6.2.1,9.291,4.1Z" transform="translate(5798 2518.452)" fill="#07475d" stroke="#000" stroke-linecap="round" stroke-linejoin="round" stroke-width="2" stroke-dasharray="80 5"/>
    </g>
  </g>
</svg>
