<svg xmlns="http://www.w3.org/2000/svg" width="98" height="97.999" viewBox="0 0 98 97.999">
  <g id="Group_1228955" data-name="Group 1228955" transform="translate(-803.781 -1972.016)">
    <g id="Group_1204143" data-name="Group 1204143" transform="translate(-67.331 1694.852)">
      <g id="Group_1188789" data-name="Group 1188789" transform="translate(871.113 277.164)">
        <path id="Path_1243039" data-name="Path 1243039" d="M41.05,0h0a41.05,41.05,0,0,1,0,82.1h0a41.05,41.05,0,0,1,0-82.1Z" transform="translate(7.951 7.949)" fill="#ffa724"/>
        <rect id="Rectangle_400907" data-name="Rectangle 400907" width="88.438" height="88.437" rx="44.218" transform="translate(4.782 4.781)" fill="none"/>
        <g id="Group_1098742" data-name="Group 1098742" transform="translate(0)">
          <g id="Rectangle_400898" data-name="Rectangle 400898" transform="translate(0)" fill="none" stroke="#fff" stroke-width="2" opacity="0.859">
            <rect width="98" height="97.999" rx="48.999" stroke="none"/>
            <rect x="1" y="1" width="96" height="95.999" rx="47.999" fill="none"/>
          </g>
          <g id="Rectangle_400907-2" data-name="Rectangle 400907" transform="translate(0)" fill="none" stroke="#0f1f33" stroke-linecap="round" stroke-width="2">
            <rect width="98" height="97.999" rx="48.999" stroke="none"/>
            <rect x="1" y="1" width="96" height="95.999" rx="47.999" fill="none"/>
          </g>
        </g>
      </g>
    </g>
    <g id="Group_1229001" data-name="Group 1229001" transform="translate(-5402.782 -528.926)">
      <path id="Path_1491750" data-name="Path 1491750" d="M441.712,10.093A1.234,1.234,0,1,0,440.3,8.071a29.324,29.324,0,0,0-8.5,10.115,28.8,28.8,0,0,0-3.237,13.252,1.315,1.315,0,1,0,2.63,0,26.124,26.124,0,0,1,10.52-21.345" transform="translate(5798 2518.452)" fill="#3c3b3d" stroke="#000" stroke-linecap="round" stroke-linejoin="round" stroke-width="2" stroke-dasharray="80 5"/>
      <path id="Path_1491751" data-name="Path 1491751" d="M446.973,7.159a25.661,25.661,0,0,1,10.621-2.225,26.766,26.766,0,0,1,18.613,7.586,1.512,1.512,0,0,0,.912.406,1.238,1.238,0,0,0,.91-.406,1.283,1.283,0,0,0,0-1.82A28.954,28.954,0,0,0,457.7,2.4a28.56,28.56,0,0,0-11.633,2.427,1.219,1.219,0,0,0-.608,1.619,1.125,1.125,0,0,0,1.518.708" transform="translate(5798 2518.452)" fill="#3c3b3d" stroke="#000" stroke-linecap="round" stroke-linejoin="round" stroke-width="2" stroke-dasharray="80 5"/>
      <path id="Path_1491752" data-name="Path 1491752" d="M485.413,30.224a1.338,1.338,0,0,0-1.315,1.315,26.277,26.277,0,0,1-8.7,19.624,1.39,1.39,0,0,0-.1,1.822,1.1,1.1,0,0,0,.91.4,1.152,1.152,0,0,0,.81-.3A30.86,30.86,0,0,0,484,43.577a28.423,28.423,0,0,0,2.528-11.937,1.083,1.083,0,0,0-1.112-1.416" transform="translate(5798 2518.452)" fill="#3c3b3d" stroke="#000" stroke-linecap="round" stroke-linejoin="round" stroke-width="2" stroke-dasharray="80 5"/>
      <path id="Path_1491753" data-name="Path 1491753" d="M470.542,54.6a26.564,26.564,0,0,1-33.989-7.081,1.3,1.3,0,1,0-2.023,1.619,29.578,29.578,0,0,0,10.015,8.3,28.889,28.889,0,0,0,27.312-.607,1.3,1.3,0,0,0,.506-1.72,1.453,1.453,0,0,0-1.821-.506" transform="translate(5798 2518.452)" fill="#3c3b3d" stroke="#000" stroke-linecap="round" stroke-linejoin="round" stroke-width="2" stroke-dasharray="80 5"/>
      <path id="Path_1491754" data-name="Path 1491754" d="M443.533,10.5A3.025,3.025,0,0,1,441,9.183a2.823,2.823,0,0,1-.607-1.821,3.151,3.151,0,0,1,3.136-3.136,3.009,3.009,0,0,1,2.832,1.821,2.8,2.8,0,0,1,.3,1.315,3.029,3.029,0,0,1-3.136,3.136" transform="translate(5798 2518.452)" fill="#313a52" stroke="#000" stroke-linecap="round" stroke-linejoin="round" stroke-width="2" stroke-dasharray="80 5"/>
      <path id="Path_1491755" data-name="Path 1491755" d="M476.309,51.973A2.915,2.915,0,0,1,477.017,54a3.151,3.151,0,0,1-3.136,3.136,3.316,3.316,0,0,1-2.731-1.517,2.966,2.966,0,0,1-.4-1.619,3.152,3.152,0,0,1,3.136-3.135,3.892,3.892,0,0,1,2.428,1.112" transform="translate(5798 2518.452)" fill="#313a52" stroke="#000" stroke-linecap="round" stroke-linejoin="round" stroke-width="2" stroke-dasharray="80 5"/>
      <path id="Path_1491756" data-name="Path 1491756" d="M442.42,42.768a37.48,37.48,0,0,1,6.98-2.125c1.619,5.767,4.552,9.712,8.093,9.812a19.022,19.022,0,0,1-15.073-7.687" transform="translate(5798 2518.452)" fill="#40b3e2" stroke="#000" stroke-linecap="round" stroke-linejoin="round" stroke-width="2" stroke-dasharray="80 5"/>
      <path id="Path_1491757" data-name="Path 1491757" d="M465.788,40.542c-1.619,5.766-4.553,9.711-8.093,9.813h-.1V39.834a43.317,43.317,0,0,1,8.194.708" transform="translate(5798 2518.452)" fill="#40b3e2" stroke="#000" stroke-linecap="round" stroke-linejoin="round" stroke-width="2" stroke-dasharray="80 5"/>
      <path id="Path_1491758" data-name="Path 1491758" d="M467,31.438h9.61a19.027,19.027,0,0,1-3.743,11.33,37.434,37.434,0,0,0-6.98-2.125A42.467,42.467,0,0,0,467,31.438" transform="translate(5798 2518.452)" fill="#40b3e2" stroke="#000" stroke-linecap="round" stroke-linejoin="round" stroke-width="2" stroke-dasharray="80 5"/>
      <path id="Path_1491759" data-name="Path 1491759" d="M457.594,31.438v8.4a43.33,43.33,0,0,0-8.193.809,36.785,36.785,0,0,1-1.114-9.1h9.307Z" transform="translate(5798 2518.452)" fill="#40b3e2" stroke="#000" stroke-linecap="round" stroke-linejoin="round" stroke-width="2" stroke-dasharray="80 5"/>
      <path id="Path_1491760" data-name="Path 1491760" d="M467,31.438h-9.408v-8.4a43.259,43.259,0,0,0,8.194-.809,36.857,36.857,0,0,1,1.214,9.2" transform="translate(5798 2518.452)" fill="#40b3e2" stroke="#000" stroke-linecap="round" stroke-linejoin="round" stroke-width="2" stroke-dasharray="80 5"/>
      <path id="Path_1491761" data-name="Path 1491761" d="M449.4,22.333a36.8,36.8,0,0,0-1.113,9.1h-9.61a19.021,19.021,0,0,1,3.743-11.33,35.183,35.183,0,0,0,6.98,2.226" transform="translate(5798 2518.452)" fill="#40b3e2" stroke="#000" stroke-linecap="round" stroke-linejoin="round" stroke-width="2" stroke-dasharray="80 5"/>
      <path id="Path_1491762" data-name="Path 1491762" d="M457.594,12.521V23.143a43.33,43.33,0,0,1-8.193-.809c1.618-5.766,4.551-9.711,8.092-9.813Z" transform="translate(5798 2518.452)" fill="#40b3e2" stroke="#000" stroke-linecap="round" stroke-linejoin="round" stroke-width="2" stroke-dasharray="80 5"/>
      <path id="Path_1491763" data-name="Path 1491763" d="M458.4,12.521a18.934,18.934,0,0,1,14.364,7.587,37.349,37.349,0,0,1-6.979,2.125c-1.619-5.767-4.553-9.712-8.093-9.813a5.719,5.719,0,0,0,.708.1" transform="translate(5798 2518.452)" fill="#40b3e2" stroke="#000" stroke-linecap="round" stroke-linejoin="round" stroke-width="2" stroke-dasharray="80 5"/>
      <path id="Path_1491764" data-name="Path 1491764" d="M457.7,50.355c3.439-.1,6.474-4.047,8.093-9.813a35.236,35.236,0,0,1,6.979,2.124A18.6,18.6,0,0,1,457.7,50.355" transform="translate(5798 2518.452)" fill="#3598db" stroke="#000" stroke-linecap="round" stroke-linejoin="round" stroke-width="2" stroke-dasharray="80 5"/>
      <path id="Path_1491765" data-name="Path 1491765" d="M457.594,39.834V50.455h-.1c-3.439-.1-6.474-4.046-8.092-9.812a36.317,36.317,0,0,1,8.193-.809" transform="translate(5798 2518.452)" fill="#3598db" stroke="#000" stroke-linecap="round" stroke-linejoin="round" stroke-width="2" stroke-dasharray="80 5"/>
      <path id="Path_1491766" data-name="Path 1491766" d="M457.594,31.438H467a35.576,35.576,0,0,1-1.113,9.1,43.256,43.256,0,0,0-8.193-.81v-8.3Z" transform="translate(5798 2518.452)" fill="#3598db" stroke="#000" stroke-linecap="round" stroke-linejoin="round" stroke-width="2" stroke-dasharray="80 5"/>
      <path id="Path_1491767" data-name="Path 1491767" d="M448.287,31.438a35.619,35.619,0,0,0,1.113,9.1,35.134,35.134,0,0,0-6.98,2.124,19.03,19.03,0,0,1-3.742-11.331h9.609Z" transform="translate(5798 2518.452)" fill="#3598db" stroke="#000" stroke-linecap="round" stroke-linejoin="round" stroke-width="2" stroke-dasharray="80 5"/>
      <path id="Path_1491768" data-name="Path 1491768" d="M476.612,31.438H467a35.56,35.56,0,0,0-1.114-9.1,35.169,35.169,0,0,0,6.981-2.125,18.5,18.5,0,0,1,3.743,11.229" transform="translate(5798 2518.452)" fill="#3598db" stroke="#000" stroke-linecap="round" stroke-linejoin="round" stroke-width="2" stroke-dasharray="80 5"/>
      <path id="Path_1491769" data-name="Path 1491769" d="M457.594,23.143v8.4h-9.407a35.613,35.613,0,0,1,1.112-9.1,56.268,56.268,0,0,0,8.295.708" transform="translate(5798 2518.452)" fill="#3598db" stroke="#000" stroke-linecap="round" stroke-linejoin="round" stroke-width="2" stroke-dasharray="80 5"/>
      <path id="Path_1491770" data-name="Path 1491770" d="M457.7,12.521c3.439.1,6.474,4.047,8.093,9.813a43.351,43.351,0,0,1-8.2.809V12.521Z" transform="translate(5798 2518.452)" fill="#3598db" stroke="#000" stroke-linecap="round" stroke-linejoin="round" stroke-width="2" stroke-dasharray="80 5"/>
      <path id="Path_1491771" data-name="Path 1491771" d="M457.493,12.521c-3.439.1-6.475,4.047-8.093,9.813a35.2,35.2,0,0,1-6.98-2.125,18.6,18.6,0,0,1,15.073-7.688" transform="translate(5798 2518.452)" fill="#3598db" stroke="#000" stroke-linecap="round" stroke-linejoin="round" stroke-width="2" stroke-dasharray="80 5"/>
    </g>
  </g>
</svg>
