<svg xmlns="http://www.w3.org/2000/svg" width="98" height="97.999" viewBox="0 0 98 97.999">
  <g id="Group_1228961" data-name="Group 1228961" transform="translate(-803.781 -1972.015)">
    <g id="Group_1204143" data-name="Group 1204143" transform="translate(-67.331 1694.852)">
      <g id="Group_1188789" data-name="Group 1188789" transform="translate(871.113 277.164)">
        <path id="Path_1243039" data-name="Path 1243039" d="M41.05,0h0a41.05,41.05,0,0,1,0,82.1h0a41.05,41.05,0,0,1,0-82.1Z" transform="translate(7.951 7.949)" fill="#fdcae3"/>
        <rect id="Rectangle_400907" data-name="Rectangle 400907" width="88.438" height="88.437" rx="44.218" transform="translate(4.782 4.781)" fill="none"/>
        <g id="Group_1098742" data-name="Group 1098742" transform="translate(0)">
          <g id="Rectangle_400898" data-name="Rectangle 400898" transform="translate(0)" fill="none" stroke="#fff" stroke-width="2" opacity="0.859">
            <rect width="98" height="97.999" rx="48.999" stroke="none"/>
            <rect x="1" y="1" width="96" height="95.999" rx="47.999" fill="none"/>
          </g>
          <g id="Rectangle_400907-2" data-name="Rectangle 400907" transform="translate(0)" fill="none" stroke="#0f1f33" stroke-linecap="round" stroke-width="2">
            <rect width="98" height="97.999" rx="48.999" stroke="none"/>
            <rect x="1" y="1" width="96" height="95.999" rx="47.999" fill="none"/>
          </g>
        </g>
      </g>
    </g>
    <g id="Group_1228996" data-name="Group 1228996" transform="translate(-5300.435 -5102.779)">
      <path id="Path_1491821" data-name="Path 1491821" d="M428.693,26.368H380.519a3.6,3.6,0,0,0-3.636,3.6v26.5a3.6,3.6,0,0,0,3.636,3.6h48.174a3.6,3.6,0,0,0,3.635-3.6v-26.5a3.6,3.6,0,0,0-3.635-3.6" transform="translate(5748.61 7090)" fill="#5a5a5a" stroke="#000" stroke-linecap="round" stroke-linejoin="round" stroke-width="2" stroke-dasharray="80 5"/>
      <path id="Path_1491822" data-name="Path 1491822" d="M384.357,55.068v-23.7h40.4v23.7" transform="translate(5748.61 7090)" fill="#ecf0f1" stroke="#000" stroke-linecap="round" stroke-linejoin="round" stroke-width="2" stroke-dasharray="80 5"/>
      <path id="Path_1491823" data-name="Path 1491823" d="M404.556,37.568a8.8,8.8,0,1,1-8.887,8.8,8.845,8.845,0,0,1,8.887-8.8" transform="translate(5748.61 7090)" fill="#ff9f22" stroke="#000" stroke-linecap="round" stroke-linejoin="round" stroke-width="2" stroke-dasharray="80 5"/>
      <path id="Path_1491824" data-name="Path 1491824" d="M407.383,46.368l-5.353,3v-6.1Z" transform="translate(5748.61 7090)" fill="#ff3939" stroke="#000" stroke-linecap="round" stroke-linejoin="round" stroke-width="2" stroke-dasharray="80 5"/>
      <path id="Path_1491825" data-name="Path 1491825" d="M380.62,46.368a1.33,1.33,0,0,1-1.313-1.3v-3.8a1.313,1.313,0,0,1,2.626,0v3.8a1.491,1.491,0,0,1-1.313,1.3" transform="translate(5748.61 7090)" fill="#414440"/>
      <path id="Path_1491826" data-name="Path 1491826" d="M428.592,46.368a1.33,1.33,0,0,1-1.313-1.3v-3.8a1.313,1.313,0,0,1,2.625,0v3.8a1.489,1.489,0,0,1-1.312,1.3" transform="translate(5748.61 7090)" fill="#414440"/>
      <path id="Path_1491827" data-name="Path 1491827" d="M410.817,23.868a1.153,1.153,0,0,1-.808-.3,1.354,1.354,0,0,1-.2-1.8l11.412-13.8a1.387,1.387,0,0,1,1.818-.2,1.354,1.354,0,0,1,.2,1.8l-11.412,13.8a1.247,1.247,0,0,1-1.01.5" transform="translate(5748.61 7090)" fill="#8da6b4"/>
      <path id="Path_1491828" data-name="Path 1491828" d="M404.455,23.868a1.153,1.153,0,0,1-.808-.3,1.354,1.354,0,0,1-.2-1.8l9.292-11.3a1.387,1.387,0,0,1,1.818-.2,1.355,1.355,0,0,1,.2,1.8l-9.291,11.3a1.614,1.614,0,0,1-1.01.5" transform="translate(5748.61 7090)" fill="#8da6b4"/>
      <path id="Path_1491829" data-name="Path 1491829" d="M398.6,23.868a1.153,1.153,0,0,1-.808-.3,1.354,1.354,0,0,1-.2-1.8l7.271-8.8a1.388,1.388,0,0,1,1.819-.2,1.353,1.353,0,0,1,.2,1.8l-7.271,8.8a1.408,1.408,0,0,1-1.01.5" transform="translate(5748.61 7090)" fill="#8da6b4"/>
      <path id="Path_1491830" data-name="Path 1491830" d="M392.84,23.868a1.153,1.153,0,0,1-.808-.3,1.354,1.354,0,0,1-.2-1.8l4.141-5a1.387,1.387,0,0,1,1.818-.2,1.354,1.354,0,0,1,.2,1.8l-4.141,5a1.408,1.408,0,0,1-1.01.5" transform="translate(5748.61 7090)" fill="#8da6b4"/>
      <path id="Path_1491831" data-name="Path 1491831" d="M394.457,35.068h-10.1v2.5h10.1a1.329,1.329,0,0,0,1.311-1.3,1.246,1.246,0,0,0-1.311-1.2" transform="translate(5748.61 7090)" fill="#bec3c7" stroke="#000" stroke-linecap="round" stroke-linejoin="round" stroke-width="2" stroke-dasharray="80 5"/>
      <path id="Path_1491832" data-name="Path 1491832" d="M414.655,35.068a1.3,1.3,0,1,0,0,2.6h10.1v-2.5h-10.1Z" transform="translate(5748.61 7090)" fill="#bec3c7" stroke="#000" stroke-linecap="round" stroke-linejoin="round" stroke-width="2" stroke-dasharray="80 5"/>
    </g>
  </g>
</svg>
