<svg xmlns="http://www.w3.org/2000/svg" width="98" height="97.998" viewBox="0 0 98 97.998">
  <g id="Group_1229103" data-name="Group 1229103" transform="translate(-803.781 -1972.016)">
    <g id="Group_1204143" data-name="Group 1204143" transform="translate(-67.331 1694.852)">
      <g id="Group_1188789" data-name="Group 1188789" transform="translate(871.113 277.164)">
        <path id="Path_1243039" data-name="Path 1243039" d="M41.05,0h0a41.05,41.05,0,0,1,0,82.1h0a41.05,41.05,0,0,1,0-82.1Z" transform="translate(7.951 7.949)" fill="#ffa724"/>
        <rect id="Rectangle_400907" data-name="Rectangle 400907" width="88.438" height="88.437" rx="44.218" transform="translate(4.782 4.781)" fill="none"/>
        <g id="Group_1098742" data-name="Group 1098742" transform="translate(0)">
          <g id="Rectangle_400898" data-name="Rectangle 400898" transform="translate(0)" fill="none" stroke="#fff" stroke-width="2" opacity="0.859">
            <rect width="98" height="97.999" rx="48.999" stroke="none"/>
            <rect x="1" y="1" width="96" height="95.999" rx="47.999" fill="none"/>
          </g>
          <g id="Rectangle_400907-2" data-name="Rectangle 400907" transform="translate(0)" fill="none" stroke="#0f1f33" stroke-linecap="round" stroke-width="2">
            <rect width="98" height="97.999" rx="48.999" stroke="none"/>
            <rect x="1" y="1" width="96" height="95.999" rx="47.999" fill="none"/>
          </g>
        </g>
      </g>
    </g>
    <g id="Group_1229108" data-name="Group 1229108" transform="translate(-6260.792 9026.762)">
      <path id="Path_1532045" data-name="Path 1532045" d="M295.075,221.217v12.24a4.145,4.145,0,0,1-4.147,4.148,4.1,4.1,0,0,1-4.148-4.148v-12.24Z" transform="translate(6810 -7217)" fill="#2d2c2e" stroke="#000" stroke-linecap="round" stroke-linejoin="round" stroke-width="2" stroke-dasharray="80 5"/>
      <path id="Path_1532046" data-name="Path 1532046" d="M296.693,215.754v5.564H285.364v-5.665a16.167,16.167,0,0,0,11.329.1" transform="translate(6810 -7217)" fill="#3c3b3d" stroke="#000" stroke-linecap="round" stroke-linejoin="round" stroke-width="2" stroke-dasharray="80 5"/>
      <path id="Path_1532047" data-name="Path 1532047" d="M291.13,183.485h0a16.966,16.966,0,0,1,11.532,4.855,16.729,16.729,0,0,1,0,23.571,16.39,16.39,0,0,1-4.349,3.135h34.5V183.384H291.13Z" transform="translate(6810 -7217)" fill="#d7deed" stroke="#000" stroke-linecap="round" stroke-linejoin="round" stroke-width="2" stroke-dasharray="80 5"/>
      <path id="Path_1532048" data-name="Path 1532048" d="M327.75,189.858v13.859h-3.743V189.858Z" transform="translate(6810 -7217)" fill="#c6613e" stroke="#000" stroke-linecap="round" stroke-linejoin="round" stroke-width="1" stroke-dasharray="80 5"/>
      <path id="Path_1532049" data-name="Path 1532049" d="M320.163,196.13v7.587H316.42v-11.33h3.743Z" transform="translate(6810 -7217)" fill="#c6613e" stroke="#000" stroke-linecap="round" stroke-linejoin="round" stroke-width="1" stroke-dasharray="80 5"/>
      <rect id="Rectangle_434923" data-name="Rectangle 434923" width="3.844" height="7.587" transform="translate(7130.163 -7020.87)" fill="#e3835a" stroke="#000" stroke-linecap="round" stroke-linejoin="round" stroke-width="1" stroke-dasharray="80 5"/>
      <rect id="Rectangle_434924" data-name="Rectangle 434924" width="3.845" height="8.901" transform="translate(7122.575 -7022.084)" fill="#e3835a" stroke="#000" stroke-linecap="round" stroke-linejoin="round" stroke-width="1" stroke-dasharray="80 5"/>
      <path id="Path_1532050" data-name="Path 1532050" d="M332.808,208.775H310.047a1.315,1.315,0,1,0,0,2.63h22.761v-2.63Z" transform="translate(6810 -7217)" fill="#afb9d2" stroke="#000" stroke-linecap="round" stroke-linejoin="round" stroke-width="2" stroke-dasharray="80 5"/>
      <path id="Path_1532051" data-name="Path 1532051" d="M302.764,188.34a16.726,16.726,0,0,0-23.57,0,16.618,16.618,0,0,0,6.069,27.414,16.455,16.455,0,0,0,11.431,0,14.417,14.417,0,0,0,1.821-.809,18.228,18.228,0,0,0,4.35-3.136,16.517,16.517,0,0,0-.1-23.469" transform="translate(6810 -7217)" fill="#afb9d2" stroke="#000" stroke-linecap="round" stroke-linejoin="round" stroke-width="2" stroke-dasharray="80 5"/>
      <path id="Path_1532052" data-name="Path 1532052" d="M298.413,192.791a10.489,10.489,0,0,1,.911,13.758c-.3-.3-.607-.708-.911-1.012a10.5,10.5,0,0,0-7.384-3.034,4.056,4.056,0,0,0,2.934-1.214,4.148,4.148,0,1,0-5.867,0,4.22,4.22,0,0,0,2.933,1.214,10.5,10.5,0,0,0-7.385,3.034c-.3.3-.607.708-.911,1.012a10.453,10.453,0,0,1,15.68-13.758" transform="translate(6810 -7217)" fill="#313a52" stroke="#000" stroke-linecap="round" stroke-linejoin="round" stroke-width="2" stroke-dasharray="80 5"/>
      <path id="Path_1532053" data-name="Path 1532053" d="M291.029,202.5a10.5,10.5,0,0,1,7.384,3.034c.3.3.607.708.911,1.012-.3.3-.608.708-.911,1.012a10.5,10.5,0,0,1-14.769,0c-.3-.3-.607-.708-.911-1.012.3-.3.607-.708.911-1.012a10.328,10.328,0,0,1,7.385-3.034" transform="translate(6810 -7217)" fill="#65b2fe" stroke="#000" stroke-linecap="round" stroke-linejoin="round" stroke-width="2" stroke-dasharray="80 5"/>
      <path id="Path_1532054" data-name="Path 1532054" d="M293.963,195.321a4.152,4.152,0,0,1,0,5.867,4.224,4.224,0,0,1-2.934,1.214,4.049,4.049,0,0,1-2.934-1.214,4.149,4.149,0,1,1,5.868-5.867" transform="translate(6810 -7217)" fill="#ffd8a8" stroke="#000" stroke-linecap="round" stroke-linejoin="round" stroke-width="2" stroke-dasharray="80 5"/>
      <path id="Path_1532055" data-name="Path 1532055" d="M316.521,239.123H279.9a1.315,1.315,0,1,1,0-2.63h36.721a1.339,1.339,0,0,1,1.316,1.315,1.514,1.514,0,0,1-1.417,1.315" transform="translate(6810 -7217)" fill="#d8f2f1" stroke="#000" stroke-linecap="round" stroke-linejoin="round" stroke-width="2" stroke-dasharray="80 5"/>
      <path id="Path_1532056" data-name="Path 1532056" d="M324.107,235.379H306.4a1.315,1.315,0,1,1,0-2.63h17.7a1.315,1.315,0,1,1,0,2.63" transform="translate(6810 -7217)" fill="#d8f2f1" stroke="#000" stroke-linecap="round" stroke-linejoin="round" stroke-width="2" stroke-dasharray="80 5"/>
    </g>
  </g>
</svg>
