<svg xmlns="http://www.w3.org/2000/svg" width="98" height="97.999" viewBox="0 0 98 97.999">
  <g id="Group_1228958" data-name="Group 1228958" transform="translate(-803.781 -1972.015)">
    <g id="Group_1204143" data-name="Group 1204143" transform="translate(-67.331 1694.852)">
      <g id="Group_1188789" data-name="Group 1188789" transform="translate(871.113 277.164)">
        <path id="Path_1243039" data-name="Path 1243039" d="M41.05,0h0a41.05,41.05,0,0,1,0,82.1h0a41.05,41.05,0,0,1,0-82.1Z" transform="translate(7.951 7.949)" fill="#fdcae3"/>
        <rect id="Rectangle_400907" data-name="Rectangle 400907" width="88.438" height="88.437" rx="44.218" transform="translate(4.782 4.781)" fill="none"/>
        <g id="Group_1098742" data-name="Group 1098742" transform="translate(0)">
          <g id="Rectangle_400898" data-name="Rectangle 400898" transform="translate(0)" fill="none" stroke="#fff" stroke-width="2" opacity="0.859">
            <rect width="98" height="97.999" rx="48.999" stroke="none"/>
            <rect x="1" y="1" width="96" height="95.999" rx="47.999" fill="none"/>
          </g>
          <g id="Rectangle_400907-2" data-name="Rectangle 400907" transform="translate(0)" fill="none" stroke="#0f1f33" stroke-linecap="round" stroke-width="2">
            <rect width="98" height="97.999" rx="48.999" stroke="none"/>
            <rect x="1" y="1" width="96" height="95.999" rx="47.999" fill="none"/>
          </g>
        </g>
      </g>
    </g>
    <g id="Group_1228995" data-name="Group 1228995" transform="translate(-5178.271 -5095.468)">
      <path id="Path_1491876" data-name="Path 1491876" d="M307.361,44.285,298.579,35.5l-3.633-3.634c-.909.908-6.562,6.561-7.167,7.167l3.633,3.633,8.782,8.781a5,5,0,0,0,7.167,0,5.183,5.183,0,0,0,0-7.166m-3.432,5.552a1.918,1.918,0,1,1,1.917-1.918,2.062,2.062,0,0,1-1.917,1.918" transform="translate(5748.61 7090)" fill="#57606f" stroke="#000" stroke-linecap="round" stroke-linejoin="round" stroke-width="2" stroke-dasharray="80 5"/>
      <path id="Path_1491877" data-name="Path 1491877" d="M289.9,30.356l3.229,3.23L289.6,37.119l-3.23-3.231a18.911,18.911,0,1,1,3.533-3.532" transform="translate(5748.61 7090)" fill="#bce4ff" stroke="#000" stroke-linecap="round" stroke-linejoin="round" stroke-width="2" stroke-dasharray="80 5"/>
      <path id="Path_1491878" data-name="Path 1491878" d="M283.741,9.968a12.632,12.632,0,1,1-17.865,0,12.609,12.609,0,0,1,17.865,0" transform="translate(5748.61 7090)" fill="#fff" stroke="#000" stroke-linecap="round" stroke-width="2" stroke-dasharray="80 5"/>
      <path id="Path_1491879" data-name="Path 1491879" d="M294.946,31.87,298.58,35.5s.4-.4-7.167,7.166l-3.634-3.633c.606-.606,6.259-6.359,7.167-7.167" transform="translate(5748.61 7090)" fill="#414a56" stroke="#000" stroke-linecap="round" stroke-linejoin="round" stroke-width="2" stroke-dasharray="80 5"/>
      <path id="Path_1491880" data-name="Path 1491880" d="M307.36,44.285a5.067,5.067,0,0,1-7.167,7.166l-8.679-8.781c7.468-7.569,7.065-7.166,7.065-7.166Zm-1.615,3.634a1.918,1.918,0,1,0-1.918,1.918,1.917,1.917,0,0,0,1.918-1.918" transform="translate(5748.61 7090)" fill="#57606f" stroke="#000" stroke-linecap="round" stroke-linejoin="round" stroke-width="2" stroke-dasharray="80 5"/>
      <rect id="Rectangle_425692" data-name="Rectangle 425692" width="2.826" height="2.523" transform="translate(6020.644 7113.896)" fill="#ff5987"/>
      <path id="Path_1491881" data-name="Path 1491881" d="M278.9,13.6a3.837,3.837,0,0,1,.4,1.917,3.971,3.971,0,0,1-.505,2.019,4.129,4.129,0,0,1-1.514,1.413,4.111,4.111,0,0,1-.908.5,5.64,5.64,0,0,0-.808.5,1.723,1.723,0,0,0-.606.606,1.091,1.091,0,0,0-.2.807h-2.826a2.82,2.82,0,0,1,.1-.908,2.95,2.95,0,0,1,.2-.908,3.019,3.019,0,0,1,1.413-1.514,5.932,5.932,0,0,0,.707-.4,4.778,4.778,0,0,0,.908-.6,4.666,4.666,0,0,0,.707-.707,1.628,1.628,0,0,0,.3-.909,1.446,1.446,0,0,0-.5-1.11,1.608,1.608,0,0,0-1.211-.4,1.46,1.46,0,0,0-.707.2,2.1,2.1,0,0,0-.605.4c-.2.1-.3.3-.505.5-.1.2-.2.3-.3.505L270.217,14a4.218,4.218,0,0,1,1.716-2.018,4.994,4.994,0,0,1,2.725-.707,8.808,8.808,0,0,1,1.614.2,6.13,6.13,0,0,1,1.414.707A2.708,2.708,0,0,1,278.9,13.6" transform="translate(5748.61 7090)" fill="#ff5987"/>
      <path id="Path_1491882" data-name="Path 1491882" d="M285.962,30.659a.521.521,0,0,1-.4-.2.752.752,0,0,1,0-.908,15.234,15.234,0,0,0,0-21.4.752.752,0,0,1,0-.908c.2-.3.605-.2.908,0a16.389,16.389,0,0,1,0,23.114c-.2.2-.3.3-.505.3" transform="translate(5748.61 7090)" fill="#94d4ff"/>
    </g>
  </g>
</svg>
