<svg xmlns="http://www.w3.org/2000/svg" xmlns:xlink="http://www.w3.org/1999/xlink" width="98" height="97.999" viewBox="0 0 98 97.999">
  <defs>
    <clipPath id="clip-path">
      <rect id="Rectangle_434983" data-name="Rectangle 434983" width="37.736" height="63.121" fill="none"/>
    </clipPath>
  </defs>
  <g id="Group_1228894" data-name="Group 1228894" transform="translate(-803.781 -1972.016)">
    <g id="Group_1204143" data-name="Group 1204143" transform="translate(-67.331 1694.852)">
      <g id="Group_1188789" data-name="Group 1188789" transform="translate(871.113 277.164)">
        <path id="Path_1243039" data-name="Path 1243039" d="M41.05,0h0a41.05,41.05,0,0,1,0,82.1h0a41.05,41.05,0,0,1,0-82.1Z" transform="translate(7.951 7.949)" fill="#fdcae3"/>
        <rect id="Rectangle_400907" data-name="Rectangle 400907" width="88.438" height="88.437" rx="44.218" transform="translate(4.782 4.781)" fill="none"/>
        <g id="Group_1098742" data-name="Group 1098742" transform="translate(0)">
          <g id="Rectangle_400898" data-name="Rectangle 400898" transform="translate(0)" fill="none" stroke="#fff" stroke-width="2" opacity="0.859">
            <rect width="98" height="97.999" rx="48.999" stroke="none"/>
            <rect x="1" y="1" width="96" height="95.999" rx="47.999" fill="none"/>
          </g>
          <g id="Rectangle_400907-2" data-name="Rectangle 400907" transform="translate(0)" fill="none" stroke="#0f1f33" stroke-linecap="round" stroke-width="2">
            <rect width="98" height="97.999" rx="48.999" stroke="none"/>
            <rect x="1" y="1" width="96" height="95.999" rx="47.999" fill="none"/>
          </g>
        </g>
      </g>
    </g>
    <g id="Group_1229125" data-name="Group 1229125" transform="translate(832.705 1987.789)">
      <path id="Path_1532361" data-name="Path 1532361" d="M22.264,35.7v14.23L16.61,55.357V69.212l5.319,4.339H19.011v9.125H45.56V73.551H42.6l4.237-3.475V50.135H28.686V35.7Z" transform="translate(-9.099 -19.554)" fill="#f3feff" stroke="#000" stroke-linecap="round" stroke-linejoin="round" stroke-width="2" stroke-dasharray="80 5"/>
      <path id="Path_1532362" data-name="Path 1532362" d="M33.152,69.984v2.9h14.52v13.4l-5.791,4.886h4.757l3.321-2.724V69.984ZM44.806,93.465l.006,6.85h3.844l0-6.85Zm-20.462,0,.006,6.85h3.844l0-6.85Z" transform="translate(-13.336 -38.337)" fill="#cfe4e5"/>
      <g id="Group_1229126" data-name="Group 1229126">
        <g id="Group_1229125-2" data-name="Group 1229125" clip-path="url(#clip-path)">
          <path id="Path_1532363" data-name="Path 1532363" d="M27.745,80.067a1.13,1.13,0,0,1-1.13-1.131V65.795a1.131,1.131,0,1,1,2.261,0V78.937a1.13,1.13,0,0,1-1.131,1.131" transform="translate(-14.579 -35.423)"/>
          <path id="Path_1532364" data-name="Path 1532364" d="M41.947,71.52a1.13,1.13,0,0,1-1.131-1.131V66.7a1.131,1.131,0,1,1,2.261,0V70.39a1.13,1.13,0,0,1-1.131,1.131" transform="translate(-22.359 -35.917)"/>
          <path id="Path_1532365" data-name="Path 1532365" d="M56.56,71.88a1.13,1.13,0,0,1-1.131-1.131V67.057a1.131,1.131,0,0,1,2.261,0V70.75A1.13,1.13,0,0,1,56.56,71.88" transform="translate(-30.364 -36.114)"/>
          <path id="Path_1532366" data-name="Path 1532366" d="M68.131,119.17H61.6a1.131,1.131,0,0,1,0-2.261h6.529a1.131,1.131,0,0,1,0,2.261" transform="translate(-33.126 -64.043)"/>
          <path id="Path_1532367" data-name="Path 1532367" d="M28.156,119.17h-4.41a1.131,1.131,0,0,1,0-2.261h4.41a1.131,1.131,0,0,1,0,2.261" transform="translate(-12.388 -64.043)"/>
          <path id="Path_1532368" data-name="Path 1532368" d="M44.774,119.17H42.482a1.131,1.131,0,1,1,0-2.261h2.292a1.131,1.131,0,0,1,0,2.261" transform="translate(-22.652 -64.043)"/>
          <path id="Path_1532369" data-name="Path 1532369" d="M69.412,71.88a1.13,1.13,0,0,1-1.131-1.131V67.057a1.131,1.131,0,0,1,2.261,0V70.75a1.13,1.13,0,0,1-1.131,1.131" transform="translate(-37.404 -36.114)"/>
          <path id="Path_1532370" data-name="Path 1532370" d="M34.13,5.7a.99.99,0,0,1-.615-.927L33.558.979A.989.989,0,1,1,35.535,1L35.493,4.8a.989.989,0,0,1-1.363.9" transform="translate(-18.36 0)" fill="#2d2d2d"/>
          <path id="Path_1532371" data-name="Path 1532371" d="M58.7,35.421a.989.989,0,0,1,.385-1.9l3.795.043a.989.989,0,0,1-.022,1.977l-3.795-.042a.98.98,0,0,1-.364-.073" transform="translate(-31.82 -18.36)" fill="#2d2d2d"/>
          <path id="Path_1532372" data-name="Path 1532372" d="M.614,34.775A.989.989,0,0,1,1,32.87l3.794.043a.989.989,0,1,1-.021,1.977L.978,34.848a.98.98,0,0,1-.364-.073" transform="translate(0 -18.006)" fill="#2d2d2d"/>
          <path id="Path_1532373" data-name="Path 1532373" d="M51.617,14.555a.989.989,0,0,1-.317-1.622l2.713-2.654A.989.989,0,0,1,55.4,11.693l-2.713,2.654a.99.99,0,0,1-1.067.208" transform="translate(-27.94 -5.476)" fill="#2d2d2d"/>
          <path id="Path_1532374" data-name="Path 1532374" d="M10.087,55.171a.989.989,0,0,1-.317-1.622L12.484,50.9a.989.989,0,0,1,1.383,1.414l-2.713,2.654a.99.99,0,0,1-1.067.208" transform="translate(-5.189 -27.726)" fill="#2d2d2d"/>
          <path id="Path_1532375" data-name="Path 1532375" d="M53.88,55.623a.986.986,0,0,1-.332-.224l-2.654-2.713A.989.989,0,1,1,52.309,51.3l2.654,2.713a.989.989,0,0,1-1.083,1.607" transform="translate(-27.726 -27.941)" fill="#2d2d2d"/>
          <path id="Path_1532376" data-name="Path 1532376" d="M13.264,14.092a.986.986,0,0,1-.332-.224l-2.654-2.713a.989.989,0,1,1,1.414-1.382l2.654,2.713a.989.989,0,0,1-1.083,1.607" transform="translate(-5.476 -5.19)" fill="#2d2d2d"/>
        </g>
      </g>
    </g>
  </g>
</svg>
