<svg xmlns="http://www.w3.org/2000/svg" width="98" height="97.998" viewBox="0 0 98 97.998">
  <g id="Group_1229104" data-name="Group 1229104" transform="translate(-803.781 -1972.016)">
    <g id="Group_1204143" data-name="Group 1204143" transform="translate(-67.331 1694.852)">
      <g id="Group_1188789" data-name="Group 1188789" transform="translate(871.113 277.164)">
        <path id="Path_1243039" data-name="Path 1243039" d="M41.05,0h0a41.05,41.05,0,0,1,0,82.1h0a41.05,41.05,0,0,1,0-82.1Z" transform="translate(7.951 7.949)" fill="#ffa724"/>
        <rect id="Rectangle_400907" data-name="Rectangle 400907" width="88.438" height="88.437" rx="44.218" transform="translate(4.782 4.781)" fill="none"/>
        <g id="Group_1098742" data-name="Group 1098742" transform="translate(0)">
          <g id="Rectangle_400898" data-name="Rectangle 400898" transform="translate(0)" fill="none" stroke="#fff" stroke-width="2" opacity="0.859">
            <rect width="98" height="97.999" rx="48.999" stroke="none"/>
            <rect x="1" y="1" width="96" height="95.999" rx="47.999" fill="none"/>
          </g>
          <g id="Rectangle_400907-2" data-name="Rectangle 400907" transform="translate(0)" fill="none" stroke="#0f1f33" stroke-linecap="round" stroke-width="2">
            <rect width="98" height="97.999" rx="48.999" stroke="none"/>
            <rect x="1" y="1" width="96" height="95.999" rx="47.999" fill="none"/>
          </g>
        </g>
      </g>
    </g>
    <g id="Group_1229109" data-name="Group 1229109" transform="translate(-6406.438 9023.145)">
      <path id="Path_1532174" data-name="Path 1532174" d="M463.134,236.294H452.345a.605.605,0,0,1,0-1.21h10.688a.651.651,0,0,1,.605.606.506.506,0,0,1-.5.6" transform="translate(6810 -7217)" fill="#005068" stroke="#000" stroke-linecap="round" stroke-linejoin="round" stroke-width="2" stroke-dasharray="80 5"/>
      <path id="Path_1532175" data-name="Path 1532175" d="M446.1,236.294H435.408a.605.605,0,1,1,0-1.21H446.1a.605.605,0,0,1,0,1.21" transform="translate(6810 -7217)" fill="#005068" stroke="#000" stroke-linecap="round" stroke-linejoin="round" stroke-width="2" stroke-dasharray="80 5"/>
      <path id="Path_1532176" data-name="Path 1532176" d="M478.257,222.986v16.435a2.5,2.5,0,0,1-2.521,2.519H465.553a2.5,2.5,0,0,1-2.52-2.519V222.986a2.5,2.5,0,0,1,2.52-2.52h10.183a2.63,2.63,0,0,1,2.521,2.52" transform="translate(6810 -7217)" fill="#3cbaeb" stroke="#000" stroke-linecap="round" stroke-linejoin="round" stroke-width="2" stroke-dasharray="80 5"/>
      <path id="Path_1532177" data-name="Path 1532177" d="M435.408,235.69v3.831a2.5,2.5,0,0,1-2.522,2.521H422.7a2.5,2.5,0,0,1-2.52-2.521V222.986a2.5,2.5,0,0,1,2.52-2.521h10.183a2.5,2.5,0,0,1,2.522,2.521Z" transform="translate(6810 -7217)" fill="#8fe269" stroke="#000" stroke-linecap="round" stroke-linejoin="round" stroke-width="2" stroke-dasharray="80 5"/>
      <path id="Path_1532178" data-name="Path 1532178" d="M446.1,190.42v2.319H432.181V190.42A2.711,2.711,0,0,1,434.9,187.7h8.468a2.851,2.851,0,0,1,2.723,2.723" transform="translate(6810 -7217)" fill="#fe9800" stroke="#000" stroke-linecap="round" stroke-linejoin="round" stroke-width="2" stroke-dasharray="80 5"/>
      <path id="Path_1532179" data-name="Path 1532179" d="M432.181,192.84h31.356a2.711,2.711,0,0,1,2.722,2.722v12.4H432.181Z" transform="translate(6810 -7217)" fill="#fec100" stroke="#000" stroke-linecap="round" stroke-linejoin="round" stroke-width="2" stroke-dasharray="80 5"/>
      <path id="Path_1532180" data-name="Path 1532180" d="M423.409,225.607h5.042a.6.6,0,1,0,0-1.21h-5.042a.651.651,0,0,0-.6.606.58.58,0,0,0,.6.6" transform="translate(6810 -7217)" fill="#00cc76"/>
      <path id="Path_1532181" data-name="Path 1532181" d="M423.409,228.733h8.167a.651.651,0,0,0,.605-.6c0-.3-.3-.706-.605-.706h-8.167a.65.65,0,0,0-.6.6.666.666,0,0,0,.6.706" transform="translate(6810 -7217)" fill="#00cc76"/>
      <path id="Path_1532182" data-name="Path 1532182" d="M431.576,230.649h-8.167a.6.6,0,0,0,0,1.209h8.167a.651.651,0,0,0,.605-.6.581.581,0,0,0-.605-.6" transform="translate(6810 -7217)" fill="#00cc76"/>
      <path id="Path_1532183" data-name="Path 1532183" d="M431.576,233.774h-8.167a.6.6,0,0,0,0,1.21h8.167a.6.6,0,1,0,0-1.21" transform="translate(6810 -7217)" fill="#00cc76"/>
      <path id="Path_1532184" data-name="Path 1532184" d="M431.576,236.9h-8.167a.6.6,0,0,0,0,1.21h8.167a.6.6,0,1,0,0-1.21" transform="translate(6810 -7217)" fill="#00cc76"/>
      <path id="Path_1532185" data-name="Path 1532185" d="M466.259,225.607H471.3a.6.6,0,1,0,0-1.21h-5.041a.651.651,0,0,0-.605.606.581.581,0,0,0,.605.6" transform="translate(6810 -7217)" fill="#0097e0"/>
      <path id="Path_1532186" data-name="Path 1532186" d="M466.259,228.733h8.167a.65.65,0,0,0,.6-.6c0-.3-.3-.706-.6-.706h-8.167a.65.65,0,0,0-.605.6.667.667,0,0,0,.605.706" transform="translate(6810 -7217)" fill="#0097e0"/>
      <path id="Path_1532187" data-name="Path 1532187" d="M474.426,230.649h-8.168a.6.6,0,0,0,0,1.209h8.168a.65.65,0,0,0,.6-.6.581.581,0,0,0-.6-.6" transform="translate(6810 -7217)" fill="#0097e0"/>
      <path id="Path_1532188" data-name="Path 1532188" d="M474.426,233.774h-8.168a.6.6,0,0,0,0,1.21h8.168a.6.6,0,0,0,0-1.21" transform="translate(6810 -7217)" fill="#0097e0"/>
      <path id="Path_1532189" data-name="Path 1532189" d="M474.426,236.9h-8.168a.6.6,0,0,0,0,1.21h8.168a.6.6,0,0,0,0-1.21" transform="translate(6810 -7217)" fill="#0097e0"/>
      <path id="Path_1532190" data-name="Path 1532190" d="M449.22,233.168a.651.651,0,0,1-.605-.6V213.609a.605.605,0,0,1,1.21,0v18.854a.673.673,0,0,1-.605.705" transform="translate(6810 -7217)" fill="#005068" stroke="#000" stroke-linecap="round" stroke-linejoin="round" stroke-width="2" stroke-dasharray="80 5"/>
      <path id="Path_1532191" data-name="Path 1532191" d="M448.615,204.132H432.181v1.311h16.434a.651.651,0,0,0,.605-.6.674.674,0,0,0-.605-.706" transform="translate(6810 -7217)" fill="#fe9800"/>
      <path id="Path_1532192" data-name="Path 1532192" d="M449.22,232.564a3.126,3.126,0,1,1-3.126,3.126,3.125,3.125,0,0,1,3.126-3.126" transform="translate(6810 -7217)" fill="#006c87" stroke="#000" stroke-linecap="round" stroke-linejoin="round" stroke-width="2" stroke-dasharray="80 5"/>
      <path id="Path_1532193" data-name="Path 1532193" d="M466.259,207.963v3.025a2.711,2.711,0,0,1-2.722,2.722H434.9a2.711,2.711,0,0,1-2.722-2.722v-3.025Z" transform="translate(6810 -7217)" fill="#fe9800" stroke="#000" stroke-linecap="round" stroke-linejoin="round" stroke-width="2" stroke-dasharray="80 5"/>
    </g>
  </g>
</svg>
