<svg xmlns="http://www.w3.org/2000/svg" width="98" height="97.999" viewBox="0 0 98 97.999">
  <g id="Group_1228863" data-name="Group 1228863" transform="translate(-803.781 -1972.016)">
    <g id="Group_1204143" data-name="Group 1204143" transform="translate(-67.331 1694.852)">
      <g id="Group_1188789" data-name="Group 1188789" transform="translate(871.113 277.164)">
        <path id="Path_1243039" data-name="Path 1243039" d="M41.05,0h0a41.05,41.05,0,0,1,0,82.1h0a41.05,41.05,0,0,1,0-82.1Z" transform="translate(7.951 7.949)" fill="#fdcae3"/>
        <rect id="Rectangle_400907" data-name="Rectangle 400907" width="88.438" height="88.437" rx="44.218" transform="translate(4.782 4.781)" fill="none"/>
        <g id="Group_1098742" data-name="Group 1098742" transform="translate(0)">
          <g id="Rectangle_400898" data-name="Rectangle 400898" transform="translate(0)" fill="none" stroke="#fff" stroke-width="2" opacity="0.859">
            <rect width="98" height="97.999" rx="48.999" stroke="none"/>
            <rect x="1" y="1" width="96" height="95.999" rx="47.999" fill="none"/>
          </g>
          <g id="Rectangle_400907-2" data-name="Rectangle 400907" transform="translate(0)" fill="none" stroke="#0f1f33" stroke-linecap="round" stroke-width="2">
            <rect width="98" height="97.999" rx="48.999" stroke="none"/>
            <rect x="1" y="1" width="96" height="95.999" rx="47.999" fill="none"/>
          </g>
        </g>
      </g>
    </g>
    <g id="Group_1228885" data-name="Group 1228885" transform="translate(9710.848 10725.09)">
      <path id="Path_1491219" data-name="Path 1491219" d="M362.207,33.273h-3.129a.605.605,0,1,1,0-1.211h3.129a.605.605,0,0,1,0,1.211" transform="translate(-9207 -8737.346)" fill="#2c4151" stroke="#000" stroke-linecap="round" stroke-linejoin="round" stroke-width="2" stroke-dasharray="80 5"/>
      <path id="Path_1491220" data-name="Path 1491220" d="M323.045,11.774v42.9h32.8v-42.9Z" transform="translate(-9207 -8737.346)" fill="#f2f2f2" stroke="#000" stroke-linecap="round" stroke-linejoin="round" stroke-width="2" stroke-dasharray="80 5"/>
      <rect id="Rectangle_425523" data-name="Rectangle 425523" width="27.757" height="37.851" transform="translate(-8881.432 -8723.049)" fill="#87c7ff" stroke="#000" stroke-linecap="round" stroke-linejoin="round" stroke-width="2" stroke-dasharray="80 5"/>
      <path id="Path_1491221" data-name="Path 1491221" d="M342.626,40.743h0a1.42,1.42,0,0,1,1.817.6,1.1,1.1,0,0,1,.1.505,1.312,1.312,0,0,1-.808,1.211l-1.312.606-1.11-2.423Z" transform="translate(-9207 -8737.346)" fill="#f0582f" stroke="#000" stroke-linecap="round" stroke-linejoin="round" stroke-width="2" stroke-dasharray="80 5"/>
      <path id="Path_1491222" data-name="Path 1491222" d="M344.241,47.606a1.368,1.368,0,0,1-.707,1.816,1.266,1.266,0,0,1-.605.1,1.576,1.576,0,0,1-1.313-.808l-2.826-6.359,2.524-1.11,1.11,2.422Z" transform="translate(-9207 -8737.346)" fill="#22282d" stroke="#000" stroke-linecap="round" stroke-linejoin="round" stroke-width="2" stroke-dasharray="80 5"/>
      <path id="Path_1491223" data-name="Path 1491223" d="M341.819,38.825l.807,1.918-1.312.5-2.523,1.11-.707.4-.908-1.918Z" transform="translate(-9207 -8737.346)" fill="#ffd15c" stroke="#000" stroke-linecap="round" stroke-linejoin="round" stroke-width="1" stroke-dasharray="80 5"/>
      <path id="Path_1491224" data-name="Path 1491224" d="M355.848,38.522a1.322,1.322,0,0,1-1.615-.808l-.1-.2-7.267-16.25a1.369,1.369,0,0,1,.706-1.817,1.281,1.281,0,0,1,.606-.1,1.576,1.576,0,0,1,1.312.808l3.937,8.781,2.523,5.652.908,2.019a1.368,1.368,0,0,1-.706,1.816c-.2.1-.2.1-.3.1" transform="translate(-9207 -8737.346)" fill="#efc203" stroke="#000" stroke-linecap="round" stroke-linejoin="round" stroke-width="2" stroke-dasharray="80 5"/>
      <path id="Path_1491225" data-name="Path 1491225" d="M339.093,29.337l3.937,8.883-1.211.6-4.643,2.019-1.111.505-.807-1.818-2.423-5.45-.706-1.615Z" transform="translate(-9207 -8737.346)" fill="#efc203" stroke="#000" stroke-linecap="round" stroke-linejoin="round" stroke-width="2" stroke-dasharray="80 5"/>
      <path id="Path_1491226" data-name="Path 1491226" d="M346.865,21.363l7.268,16.149-.808.1-10.3.606-3.937-8.883Z" transform="translate(-9207 -8737.346)" fill="#f5ea0a" stroke="#000" stroke-linecap="round" stroke-linejoin="round" stroke-width="2" stroke-dasharray="80 5"/>
      <path id="Path_1491227" data-name="Path 1491227" d="M332.835,34.081l2.422,5.45-.5.2a2.953,2.953,0,0,1-3.937-1.513,2.693,2.693,0,0,1-.3-1.212,2.974,2.974,0,0,1,1.717-2.725Z" transform="translate(-9207 -8737.346)" fill="#f5ea0a" stroke="#000" stroke-linecap="round" stroke-linejoin="round" stroke-width="2" stroke-dasharray="80 5"/>
      <path id="Path_1491228" data-name="Path 1491228" d="M374.824,49.02a6.494,6.494,0,0,1-1.514,4.139,6.256,6.256,0,0,0-4.744-2.221,2.524,2.524,0,1,0-2.523-2.523,2.5,2.5,0,0,0,2.523,2.523,5.94,5.94,0,0,0-4.744,2.221,6.5,6.5,0,0,1-1.514-4.139,6.259,6.259,0,1,1,12.516,0" transform="translate(-9207 -8737.346)" fill="#333940" stroke="#000" stroke-linecap="round" stroke-linejoin="round" stroke-width="2" stroke-dasharray="80 5"/>
      <path id="Path_1491229" data-name="Path 1491229" d="M374.824,32.567a6.708,6.708,0,0,1-1.514,4.138,6.26,6.26,0,0,0-4.744-2.221,2.523,2.523,0,1,0-2.523-2.522,2.5,2.5,0,0,0,2.523,2.522,5.94,5.94,0,0,0-4.744,2.221,6.5,6.5,0,0,1-1.514-4.138,6.332,6.332,0,0,1,6.359-6.359,6.427,6.427,0,0,1,6.157,6.359" transform="translate(-9207 -8737.346)" fill="#333940" stroke="#000" stroke-linecap="round" stroke-linejoin="round" stroke-width="2" stroke-dasharray="80 5"/>
      <path id="Path_1491230" data-name="Path 1491230" d="M374.824,16.216a6.711,6.711,0,0,1-1.514,4.139,6.256,6.256,0,0,0-4.744-2.221,2.524,2.524,0,1,0-2.523-2.523,2.5,2.5,0,0,0,2.523,2.523,5.94,5.94,0,0,0-4.744,2.221,6.5,6.5,0,0,1-1.514-4.139,6.259,6.259,0,1,1,12.516,0" transform="translate(-9207 -8737.346)" fill="#333940" stroke="#000" stroke-linecap="round" stroke-linejoin="round" stroke-width="2" stroke-dasharray="80 5"/>
      <path id="Path_1491231" data-name="Path 1491231" d="M373.209,20.354a6.257,6.257,0,0,1-4.744,2.22,5.942,5.942,0,0,1-4.744-2.22,6.258,6.258,0,0,1,4.744-2.221,5.94,5.94,0,0,1,4.744,2.221" transform="translate(-9207 -8737.346)" fill="#07cc66" stroke="#000" stroke-linecap="round" stroke-linejoin="round" stroke-width="2" stroke-dasharray="80 5"/>
      <path id="Path_1491232" data-name="Path 1491232" d="M373.209,36.705a6.258,6.258,0,0,1-4.744,2.221,5.94,5.94,0,0,1-4.744-2.221,6.177,6.177,0,0,1,9.488,0" transform="translate(-9207 -8737.346)" fill="#4a7aff" stroke="#000" stroke-linecap="round" stroke-linejoin="round" stroke-width="2" stroke-dasharray="80 5"/>
      <path id="Path_1491233" data-name="Path 1491233" d="M373.209,53.158a6.257,6.257,0,0,1-4.744,2.22,5.939,5.939,0,0,1-4.744-2.22,6.258,6.258,0,0,1,4.744-2.221,5.94,5.94,0,0,1,4.744,2.221" transform="translate(-9207 -8737.346)" fill="#f0582f" stroke="#000" stroke-linecap="round" stroke-linejoin="round" stroke-width="2" stroke-dasharray="80 5"/>
      <path id="Path_1491234" data-name="Path 1491234" d="M368.465,45.891a2.524,2.524,0,1,1-2.523,2.523,2.5,2.5,0,0,1,2.523-2.523" transform="translate(-9207 -8737.346)" fill="#ffd5ab" stroke="#000" stroke-linecap="round" stroke-linejoin="round" stroke-width="2" stroke-dasharray="80 5"/>
      <path id="Path_1491235" data-name="Path 1491235" d="M368.465,29.438a2.523,2.523,0,1,1-2.523,2.523,2.5,2.5,0,0,1,2.523-2.523" transform="translate(-9207 -8737.346)" fill="#ffd5ab" stroke="#000" stroke-linecap="round" stroke-linejoin="round" stroke-width="2" stroke-dasharray="80 5"/>
      <path id="Path_1491236" data-name="Path 1491236" d="M368.465,13.087a2.524,2.524,0,1,1-2.523,2.523,2.5,2.5,0,0,1,2.523-2.523" transform="translate(-9207 -8737.346)" fill="#ffd5ab" stroke="#000" stroke-linecap="round" stroke-linejoin="round" stroke-width="2" stroke-dasharray="80 5"/>
      <path id="Path_1491237" data-name="Path 1491237" d="M335.056,34.788a.629.629,0,0,1-.606-.4.637.637,0,0,1,.3-.808l3.23-1.413a.61.61,0,0,1,.505,1.11l-3.23,1.413c0,.1-.1.1-.2.1" transform="translate(-9207 -8737.346)" fill="#f5ea0a"/>
      <path id="Path_1491238" data-name="Path 1491238" d="M335.964,36.705a.626.626,0,0,1-.6-.4.636.636,0,0,1,.3-.808l3.23-1.514a.61.61,0,0,1,.505,1.111l-3.23,1.513c-.1.1-.1.1-.2.1" transform="translate(-9207 -8737.346)" fill="#f5ea0a"/>
      <path id="Path_1491239" data-name="Path 1491239" d="M336.772,38.623a.629.629,0,0,1-.606-.4.636.636,0,0,1,.3-.808L339.7,36a.61.61,0,0,1,.505,1.11l-3.23,1.413c0,.1-.1.1-.2.1" transform="translate(-9207 -8737.346)" fill="#f5ea0a"/>
      <path id="Path_1491240" data-name="Path 1491240" d="M350.3,35.7a.628.628,0,0,1-.605-.4l-3.937-9.185a.61.61,0,0,1,1.11-.505l3.937,9.186a.633.633,0,0,1-.3.806c0,.1-.1.1-.2.1" transform="translate(-9207 -8737.346)" fill="#efc203"/>
      <path id="Path_1491241" data-name="Path 1491241" d="M347.673,34.182a.626.626,0,0,1-.605-.4l-1.817-4.34a.61.61,0,1,1,1.11-.5l1.817,4.34a.635.635,0,0,1-.3.807c0,.1-.1.1-.2.1" transform="translate(-9207 -8737.346)" fill="#efc203"/>
      <path id="Path_1491242" data-name="Path 1491242" d="M360.289,46.5h-1.312a.652.652,0,0,1-.606-.6V20.657a.652.652,0,0,1,.606-.606h1.312a.606.606,0,0,1,0,1.212h-.605V45.285h.605a.605.605,0,0,1,0,1.211" transform="translate(-9207 -8737.346)" fill="#40596b" stroke="#000" stroke-linecap="round" stroke-linejoin="round" stroke-width="2" stroke-dasharray="80 5"/>
      <path id="Path_1491243" data-name="Path 1491243" d="M336.267,27.521h-8.176a.606.606,0,0,1,0-1.211h8.176a.651.651,0,0,1,.605.606c.1.4-.2.6-.605.6" transform="translate(-9207 -8737.346)" fill="#fff"/>
      <path id="Path_1491244" data-name="Path 1491244" d="M336.267,25h-8.176a.606.606,0,0,1,0-1.211h8.176a.651.651,0,0,1,.605.606c.1.4-.2.6-.605.6" transform="translate(-9207 -8737.346)" fill="#fff"/>
      <path id="Path_1491245" data-name="Path 1491245" d="M336.267,22.474h-8.176a.606.606,0,0,1,0-1.211h8.176a.651.651,0,0,1,.605.606c.1.4-.2.605-.605.605" transform="translate(-9207 -8737.346)" fill="#fff"/>
      <path id="Path_1491246" data-name="Path 1491246" d="M336.267,19.95h-8.176a.606.606,0,0,1,0-1.211h8.176a.651.651,0,0,1,.605.606c.1.4-.2.605-.605.605" transform="translate(-9207 -8737.346)" fill="#fff"/>
      <path id="Path_1491247" data-name="Path 1491247" d="M336.267,17.427h-8.176a.606.606,0,0,1,0-1.211h8.176a.651.651,0,0,1,.605.606c.1.4-.2.6-.605.6" transform="translate(-9207 -8737.346)" fill="#fff"/>
      <path id="Path_1491248" data-name="Path 1491248" d="M355.848,9.453v2.523h-32.8V9.453a5.062,5.062,0,0,1,5.047-5.047H350.8a5,5,0,0,1,5.047,5.047" transform="translate(-9207 -8737.346)" fill="#555a66" stroke="#000" stroke-linecap="round" stroke-linejoin="round" stroke-width="2" stroke-dasharray="80 5"/>
      <path id="Path_1491249" data-name="Path 1491249" d="M342.02,8.746h-5.047a.651.651,0,0,1-.6-.605.651.651,0,0,1,.6-.606h5.047a.651.651,0,0,1,.605.606.651.651,0,0,1-.605.605" transform="translate(-9207 -8737.346)" fill="#404651" stroke="#000" stroke-linecap="round" stroke-linejoin="round" stroke-width="2" stroke-dasharray="80 5"/>
      <path id="Path_1491250" data-name="Path 1491250" d="M323.045,54.571v2.522a5.061,5.061,0,0,0,5.046,5.047H350.8a5.061,5.061,0,0,0,5.047-5.047V54.571Z" transform="translate(-9207 -8737.346)" fill="#555a66" stroke="#000" stroke-linecap="round" stroke-linejoin="round" stroke-width="2" stroke-dasharray="80 5"/>
      <path id="Path_1491251" data-name="Path 1491251" d="M339.5,56.488a1.918,1.918,0,1,1-1.918,1.918,1.857,1.857,0,0,1,1.918-1.918" transform="translate(-9207 -8737.346)" fill="#404651" stroke="#000" stroke-linecap="round" stroke-linejoin="round" stroke-width="2" stroke-dasharray="80 5"/>
    </g>
  </g>
</svg>
